<svg xmlns="http://www.w3.org/2000/svg" xmlns:xlink="http://www.w3.org/1999/xlink" width="1980" zoomAndPan="magnify" viewBox="0 0 1485 149.999998" height="200" preserveAspectRatio="xMidYMid meet" version="1.0"><defs><clipPath id="962768ca91"><path d="M 438.554688 15 L 543.554688 15 L 543.554688 135 L 438.554688 135 Z M 438.554688 15 " clip-rule="nonzero"/></clipPath><clipPath id="5f662bdbc4"><path d="M 939.046875 15 L 1046.296875 15 L 1046.296875 135 L 939.046875 135 Z M 939.046875 15 " clip-rule="nonzero"/></clipPath><clipPath id="9ca81c5199"><path d="M 595.273438 15 L 715.273438 15 L 715.273438 135 L 595.273438 135 Z M 595.273438 15 " clip-rule="nonzero"/></clipPath><clipPath id="5db62d2d95"><path d="M 766.832031 15 L 857 15 L 857 105 L 766.832031 105 Z M 766.832031 15 " clip-rule="nonzero"/></clipPath><clipPath id="11b1cc2005"><path d="M 826.789062 14.988281 C 796.148438 14.988281 798.058594 28.265625 798.058594 28.265625 L 798.09375 42.019531 L 827.332031 42.019531 L 827.332031 46.148438 L 786.480469 46.148438 C 786.480469 46.148438 766.875 43.929688 766.875 74.820312 C 766.875 105.714844 783.988281 104.621094 783.988281 104.621094 L 794.199219 104.621094 L 794.199219 90.28125 C 794.199219 90.28125 793.648438 73.183594 811.039062 73.183594 L 840.042969 73.183594 C 840.042969 73.183594 856.332031 73.445312 856.332031 57.449219 L 856.332031 30.996094 C 856.332031 30.996094 858.808594 14.988281 826.789062 14.988281 Z M 810.664062 24.238281 C 813.574219 24.238281 815.925781 26.585938 815.925781 29.492188 C 815.925781 32.398438 813.574219 34.75 810.664062 34.75 C 807.753906 34.75 805.40625 32.398438 805.40625 29.492188 C 805.40625 26.585938 807.753906 24.238281 810.664062 24.238281 Z M 810.664062 24.238281 " clip-rule="nonzero"/></clipPath><linearGradient x1="0.00416821" gradientTransform="matrix(89.504676, 0, 0, 89.63787, 766.87341, 14.986895)" y1="-0.00405745" x2="1.027757" gradientUnits="userSpaceOnUse" y2="1.01158" id="5d108330bd"><stop stop-opacity="1" stop-color="rgb(21.998596%, 49.398804%, 72.198486%)" offset="0"/><stop stop-opacity="1" stop-color="rgb(21.99707%, 49.383545%, 72.171021%)" offset="0.125"/><stop stop-opacity="1" stop-color="rgb(21.986389%, 49.269104%, 71.974182%)" offset="0.140625"/><stop stop-opacity="1" stop-color="rgb(21.966553%, 49.072266%, 71.633911%)" offset="0.15625"/><stop stop-opacity="1" stop-color="rgb(21.948242%, 48.875427%, 71.29364%)" offset="0.171875"/><stop stop-opacity="1" stop-color="rgb(21.928406%, 48.678589%, 70.953369%)" offset="0.1875"/><stop stop-opacity="1" stop-color="rgb(21.910095%, 48.48175%, 70.611572%)" offset="0.203125"/><stop stop-opacity="1" stop-color="rgb(21.890259%, 48.286438%, 70.271301%)" offset="0.21875"/><stop stop-opacity="1" stop-color="rgb(21.870422%, 48.0896%, 69.93103%)" offset="0.234375"/><stop stop-opacity="1" stop-color="rgb(21.852112%, 47.892761%, 69.590759%)" offset="0.25"/><stop stop-opacity="1" stop-color="rgb(21.832275%, 47.695923%, 69.250488%)" offset="0.265625"/><stop stop-opacity="1" stop-color="rgb(21.813965%, 47.499084%, 68.908691%)" offset="0.28125"/><stop stop-opacity="1" stop-color="rgb(21.794128%, 47.302246%, 68.56842%)" offset="0.296875"/><stop stop-opacity="1" stop-color="rgb(21.775818%, 47.105408%, 68.228149%)" offset="0.3125"/><stop stop-opacity="1" stop-color="rgb(21.755981%, 46.908569%, 67.887878%)" offset="0.328125"/><stop stop-opacity="1" stop-color="rgb(21.736145%, 46.711731%, 67.546082%)" offset="0.34375"/><stop stop-opacity="1" stop-color="rgb(21.717834%, 46.514893%, 67.205811%)" offset="0.359375"/><stop stop-opacity="1" stop-color="rgb(21.697998%, 46.31958%, 66.86554%)" offset="0.375"/><stop stop-opacity="1" stop-color="rgb(21.679688%, 46.122742%, 66.525269%)" offset="0.390625"/><stop stop-opacity="1" stop-color="rgb(21.659851%, 45.925903%, 66.184998%)" offset="0.40625"/><stop stop-opacity="1" stop-color="rgb(21.641541%, 45.729065%, 65.843201%)" offset="0.421875"/><stop stop-opacity="1" stop-color="rgb(21.621704%, 45.532227%, 65.50293%)" offset="0.4375"/><stop stop-opacity="1" stop-color="rgb(21.601868%, 45.335388%, 65.162659%)" offset="0.453125"/><stop stop-opacity="1" stop-color="rgb(21.583557%, 45.13855%, 64.822388%)" offset="0.46875"/><stop stop-opacity="1" stop-color="rgb(21.563721%, 44.941711%, 64.482117%)" offset="0.484375"/><stop stop-opacity="1" stop-color="rgb(21.54541%, 44.744873%, 64.14032%)" offset="0.494335"/><stop stop-opacity="1" stop-color="rgb(21.536255%, 44.647217%, 63.970947%)" offset="0.5"/><stop stop-opacity="1" stop-color="rgb(21.525574%, 44.548035%, 63.800049%)" offset="0.505665"/><stop stop-opacity="1" stop-color="rgb(21.516418%, 44.450378%, 63.630676%)" offset="0.515625"/><stop stop-opacity="1" stop-color="rgb(21.505737%, 44.352722%, 63.459778%)" offset="0.53125"/><stop stop-opacity="1" stop-color="rgb(21.487427%, 44.155884%, 63.119507%)" offset="0.546875"/><stop stop-opacity="1" stop-color="rgb(21.46759%, 43.959045%, 62.77771%)" offset="0.5625"/><stop stop-opacity="1" stop-color="rgb(21.44928%, 43.762207%, 62.437439%)" offset="0.578125"/><stop stop-opacity="1" stop-color="rgb(21.429443%, 43.565369%, 62.097168%)" offset="0.59375"/><stop stop-opacity="1" stop-color="rgb(21.411133%, 43.36853%, 61.756897%)" offset="0.609375"/><stop stop-opacity="1" stop-color="rgb(21.391296%, 43.171692%, 61.416626%)" offset="0.625"/><stop stop-opacity="1" stop-color="rgb(21.37146%, 42.974854%, 61.074829%)" offset="0.640625"/><stop stop-opacity="1" stop-color="rgb(21.353149%, 42.778015%, 60.734558%)" offset="0.65625"/><stop stop-opacity="1" stop-color="rgb(21.333313%, 42.582703%, 60.394287%)" offset="0.671875"/><stop stop-opacity="1" stop-color="rgb(21.315002%, 42.385864%, 60.054016%)" offset="0.6875"/><stop stop-opacity="1" stop-color="rgb(21.295166%, 42.189026%, 59.713745%)" offset="0.703125"/><stop stop-opacity="1" stop-color="rgb(21.276855%, 41.992188%, 59.371948%)" offset="0.71875"/><stop stop-opacity="1" stop-color="rgb(21.257019%, 41.795349%, 59.031677%)" offset="0.734375"/><stop stop-opacity="1" stop-color="rgb(21.237183%, 41.598511%, 58.691406%)" offset="0.75"/><stop stop-opacity="1" stop-color="rgb(21.218872%, 41.401672%, 58.351135%)" offset="0.765625"/><stop stop-opacity="1" stop-color="rgb(21.203613%, 41.25061%, 58.09021%)" offset="0.78125"/><stop stop-opacity="1" stop-color="rgb(21.199036%, 41.19873%, 57.998657%)" offset="0.8125"/><stop stop-opacity="1" stop-color="rgb(21.199036%, 41.19873%, 57.998657%)" offset="0.875"/><stop stop-opacity="1" stop-color="rgb(21.199036%, 41.19873%, 57.998657%)" offset="1"/></linearGradient><clipPath id="3d6a2cb86f"><path d="M 798 45 L 887.582031 45 L 887.582031 135 L 798 135 Z M 798 45 " clip-rule="nonzero"/></clipPath><clipPath id="573aab8d59"><path d="M 827.660156 134.96875 C 858.300781 134.96875 856.386719 121.6875 856.386719 121.6875 L 856.351562 107.929688 L 827.113281 107.929688 L 827.113281 103.804688 L 867.964844 103.804688 C 867.964844 103.804688 887.574219 106.023438 887.574219 75.132812 C 887.574219 44.238281 870.460938 45.332031 870.460938 45.332031 L 860.246094 45.332031 L 860.246094 59.667969 C 860.246094 59.667969 860.796875 76.769531 843.40625 76.769531 L 814.402344 76.769531 C 814.402344 76.769531 798.109375 76.507812 798.109375 92.507812 L 798.109375 118.957031 C 798.109375 118.957031 795.636719 134.96875 827.660156 134.96875 Z M 843.78125 125.714844 C 840.875 125.714844 838.519531 123.363281 838.519531 120.460938 C 838.519531 117.550781 840.875 115.203125 843.78125 115.203125 C 846.691406 115.203125 849.042969 117.550781 849.042969 120.460938 C 849.042969 123.363281 846.691406 125.714844 843.78125 125.714844 Z M 843.78125 125.714844 " clip-rule="nonzero"/></clipPath><linearGradient x1="-0.0326453" gradientTransform="matrix(89.507392, 0, 0, 89.63832, 798.066529, 45.328614)" y1="-0.00636594" x2="1.013978" gradientUnits="userSpaceOnUse" y2="0.985247" id="5fc14a43bd"><stop stop-opacity="1" stop-color="rgb(100%, 87.799072%, 32.199097%)" offset="0"/><stop stop-opacity="1" stop-color="rgb(100%, 87.799072%, 32.199097%)" offset="0.125"/><stop stop-opacity="1" stop-color="rgb(100%, 87.799072%, 32.199097%)" offset="0.1875"/><stop stop-opacity="1" stop-color="rgb(100%, 87.759399%, 32.15332%)" offset="0.21875"/><stop stop-opacity="1" stop-color="rgb(100%, 87.590027%, 31.959534%)" offset="0.234375"/><stop stop-opacity="1" stop-color="rgb(100%, 87.332153%, 31.661987%)" offset="0.25"/><stop stop-opacity="1" stop-color="rgb(100%, 87.07428%, 31.365967%)" offset="0.265625"/><stop stop-opacity="1" stop-color="rgb(100%, 86.816406%, 31.06842%)" offset="0.28125"/><stop stop-opacity="1" stop-color="rgb(100%, 86.558533%, 30.7724%)" offset="0.296875"/><stop stop-opacity="1" stop-color="rgb(100%, 86.300659%, 30.474854%)" offset="0.3125"/><stop stop-opacity="1" stop-color="rgb(100%, 86.04126%, 30.177307%)" offset="0.328125"/><stop stop-opacity="1" stop-color="rgb(100%, 85.783386%, 29.881287%)" offset="0.34375"/><stop stop-opacity="1" stop-color="rgb(100%, 85.525513%, 29.58374%)" offset="0.359375"/><stop stop-opacity="1" stop-color="rgb(100%, 85.267639%, 29.28772%)" offset="0.375"/><stop stop-opacity="1" stop-color="rgb(100%, 85.009766%, 28.990173%)" offset="0.390625"/><stop stop-opacity="1" stop-color="rgb(100%, 84.751892%, 28.694153%)" offset="0.40625"/><stop stop-opacity="1" stop-color="rgb(100%, 84.494019%, 28.396606%)" offset="0.421875"/><stop stop-opacity="1" stop-color="rgb(100%, 84.236145%, 28.100586%)" offset="0.4375"/><stop stop-opacity="1" stop-color="rgb(100%, 83.978271%, 27.80304%)" offset="0.453125"/><stop stop-opacity="1" stop-color="rgb(100%, 83.720398%, 27.505493%)" offset="0.46875"/><stop stop-opacity="1" stop-color="rgb(100%, 83.460999%, 27.209473%)" offset="0.482837"/><stop stop-opacity="1" stop-color="rgb(100%, 83.332825%, 27.061462%)" offset="0.484375"/><stop stop-opacity="1" stop-color="rgb(100%, 83.203125%, 26.911926%)" offset="0.5"/><stop stop-opacity="1" stop-color="rgb(100%, 82.945251%, 26.615906%)" offset="0.515625"/><stop stop-opacity="1" stop-color="rgb(100%, 82.687378%, 26.318359%)" offset="0.517163"/><stop stop-opacity="1" stop-color="rgb(100%, 82.559204%, 26.170349%)" offset="0.53125"/><stop stop-opacity="1" stop-color="rgb(100%, 82.429504%, 26.022339%)" offset="0.546875"/><stop stop-opacity="1" stop-color="rgb(100%, 82.171631%, 25.724792%)" offset="0.5625"/><stop stop-opacity="1" stop-color="rgb(100%, 81.913757%, 25.428772%)" offset="0.578125"/><stop stop-opacity="1" stop-color="rgb(100%, 81.655884%, 25.131226%)" offset="0.59375"/><stop stop-opacity="1" stop-color="rgb(100%, 81.39801%, 24.835205%)" offset="0.609375"/><stop stop-opacity="1" stop-color="rgb(100%, 81.138611%, 24.537659%)" offset="0.625"/><stop stop-opacity="1" stop-color="rgb(100%, 80.880737%, 24.240112%)" offset="0.640625"/><stop stop-opacity="1" stop-color="rgb(100%, 80.622864%, 23.944092%)" offset="0.65625"/><stop stop-opacity="1" stop-color="rgb(100%, 80.36499%, 23.646545%)" offset="0.671875"/><stop stop-opacity="1" stop-color="rgb(100%, 80.107117%, 23.350525%)" offset="0.6875"/><stop stop-opacity="1" stop-color="rgb(100%, 79.849243%, 23.052979%)" offset="0.703125"/><stop stop-opacity="1" stop-color="rgb(100%, 79.59137%, 22.756958%)" offset="0.71875"/><stop stop-opacity="1" stop-color="rgb(100%, 79.333496%, 22.459412%)" offset="0.734375"/><stop stop-opacity="1" stop-color="rgb(100%, 79.075623%, 22.163391%)" offset="0.75"/><stop stop-opacity="1" stop-color="rgb(100%, 78.816223%, 21.865845%)" offset="0.765625"/><stop stop-opacity="1" stop-color="rgb(100%, 78.55835%, 21.568298%)" offset="0.78125"/><stop stop-opacity="1" stop-color="rgb(100%, 78.300476%, 21.272278%)" offset="0.796875"/><stop stop-opacity="1" stop-color="rgb(100%, 78.042603%, 20.974731%)" offset="0.8125"/><stop stop-opacity="1" stop-color="rgb(100%, 77.784729%, 20.678711%)" offset="0.828125"/><stop stop-opacity="1" stop-color="rgb(100%, 77.526855%, 20.381165%)" offset="0.84375"/><stop stop-opacity="1" stop-color="rgb(100%, 77.268982%, 20.085144%)" offset="0.859375"/><stop stop-opacity="1" stop-color="rgb(100%, 77.011108%, 19.787598%)" offset="0.875"/><stop stop-opacity="1" stop-color="rgb(100%, 76.753235%, 19.491577%)" offset="0.890625"/><stop stop-opacity="1" stop-color="rgb(100%, 76.560974%, 19.270325%)" offset="0.90625"/><stop stop-opacity="1" stop-color="rgb(100%, 76.499939%, 19.198608%)" offset="0.9375"/><stop stop-opacity="1" stop-color="rgb(100%, 76.499939%, 19.198608%)" offset="1"/></linearGradient></defs><g clip-path="url(#962768ca91)"><path fill="#e44d26" d="M 448.085938 122.734375 L 438.523438 15.34375 L 543.585938 15.34375 L 534.015625 122.722656 L 490.988281 134.660156 Z M 448.085938 122.734375 " fill-opacity="1" fill-rule="nonzero"/></g><path fill="#f16529" d="M 525.820312 115.882812 L 534 24.125 L 491.054688 24.125 L 491.054688 125.535156 Z M 525.820312 115.882812 " fill-opacity="1" fill-rule="nonzero"/><path fill="#ebebeb" d="M 491.011719 37.292969 L 458.074219 37.292969 L 461.621094 77.125 L 491.054688 77.125 L 491.054688 63.957031 L 473.652344 63.957031 L 472.449219 50.46875 L 491.054688 50.46875 L 491.054688 37.292969 Z M 491.054688 98.117188 L 491 98.132812 L 476.351562 94.171875 L 475.421875 83.667969 L 462.210938 83.667969 L 464.050781 104.347656 L 490.996094 111.808594 L 491.054688 111.789062 Z M 491.054688 98.117188 " fill-opacity="1" fill-rule="nonzero"/><path fill="#ffffff" d="M 491.011719 77.125 L 507.207031 77.125 L 505.71875 94.203125 L 491.046875 98.167969 L 491.046875 111.871094 L 518.011719 104.386719 L 521.625 63.949219 L 491.054688 63.949219 Z M 523.640625 40.828125 L 523.953125 37.292969 L 491.003906 37.292969 L 491.003906 50.464844 L 522.769531 50.464844 L 523.03125 47.503906 Z M 523.640625 40.828125 " fill-opacity="1" fill-rule="nonzero"/><g clip-path="url(#5f662bdbc4)"><path fill="#0277bd" d="M 1046.285156 15 L 939.054688 15 L 948.519531 122.367188 L 992.671875 135 L 1036.824219 122.367188 Z M 1046.285156 15 " fill-opacity="1" fill-rule="nonzero"/></g><path fill="#039be5" d="M 992.671875 24.472656 L 992.671875 125.210938 L 1027.992188 115.105469 L 1035.875 24.472656 Z M 992.671875 24.472656 " fill-opacity="1" fill-rule="nonzero"/><path fill="#ffffff" d="M 1021.371094 40.261719 L 992.671875 40.261719 L 992.671875 52.894531 L 1008.125 52.894531 L 1007.175781 65.527344 L 992.671875 65.527344 L 992.671875 78.15625 L 1006.546875 78.15625 L 1005.601562 92.367188 L 992.671875 96.789062 L 992.671875 110.050781 L 1017.585938 101.84375 L 1019.792969 65.527344 Z M 1021.371094 40.261719 " fill-opacity="1" fill-rule="nonzero"/><path fill="#eeeeee" d="M 992.671875 40.261719 L 992.671875 52.894531 L 964.601562 52.894531 L 963.65625 40.261719 Z M 978.164062 65.527344 L 978.792969 78.15625 L 992.671875 78.15625 L 992.671875 65.527344 Z M 979.425781 84.472656 L 966.808594 84.472656 L 967.753906 101.84375 L 992.671875 110.050781 L 992.671875 96.789062 L 979.738281 92.367188 Z M 979.425781 84.472656 " fill-opacity="1" fill-rule="nonzero"/><g clip-path="url(#9ca81c5199)"><path fill="#f7df1e" d="M 595.273438 15 L 715.273438 15 L 715.273438 135 L 595.273438 135 Z M 595.273438 15 " fill-opacity="1" fill-rule="nonzero"/></g><path fill="#000000" d="M 626.828125 115.28125 L 636.011719 109.726562 C 637.78125 112.867188 639.394531 115.523438 643.261719 115.523438 C 646.964844 115.523438 649.300781 114.070312 649.300781 108.4375 L 649.300781 70.09375 L 660.574219 70.09375 L 660.574219 108.59375 C 660.574219 120.273438 653.730469 125.59375 643.742188 125.59375 C 634.722656 125.59375 629.484375 120.917969 626.828125 115.28125 " fill-opacity="1" fill-rule="nonzero"/><path fill="#000000" d="M 666.703125 114.070312 L 675.886719 108.753906 C 678.304688 112.703125 681.445312 115.601562 687 115.601562 C 691.671875 115.601562 694.652344 113.269531 694.652344 110.042969 C 694.652344 106.175781 691.59375 104.808594 686.4375 102.554688 L 683.621094 101.34375 C 675.480469 97.878906 670.085938 93.535156 670.085938 84.347656 C 670.085938 75.890625 676.527344 69.445312 686.601562 69.445312 C 693.769531 69.445312 698.925781 71.945312 702.628906 78.46875 L 693.847656 84.109375 C 691.917969 80.644531 689.820312 79.273438 686.601562 79.273438 C 683.296875 79.273438 681.199219 81.371094 681.199219 84.109375 C 681.199219 87.492188 683.296875 88.859375 688.128906 90.957031 L 690.945312 92.160156 C 700.53125 96.273438 705.933594 100.457031 705.933594 109.882812 C 705.933594 120.03125 697.957031 125.59375 687.242188 125.59375 C 676.769531 125.59375 670.007812 120.59375 666.703125 114.070312 " fill-opacity="1" fill-rule="nonzero"/><g clip-path="url(#5db62d2d95)"><g clip-path="url(#11b1cc2005)"><path fill="url(#5d108330bd)" d="M 766.875 15 L 766.875 105.714844 L 858.808594 105.714844 L 858.808594 15 Z M 766.875 15 " fill-rule="nonzero"/></g></g><g clip-path="url(#3d6a2cb86f)"><g clip-path="url(#573aab8d59)"><path fill="url(#5fc14a43bd)" d="M 795.636719 44.238281 L 795.636719 134.96875 L 887.574219 134.96875 L 887.574219 44.238281 Z M 795.636719 44.238281 " fill-rule="nonzero"/></g></g></svg>