<svg xmlns="http://www.w3.org/2000/svg" xmlns:xlink="http://www.w3.org/1999/xlink" width="1980" zoomAndPan="magnify" viewBox="0 0 1485 149.999998" height="200" preserveAspectRatio="xMidYMid meet" version="1.0"><defs><clipPath id="0154077eff"><path d="M 667.027344 19 L 817.777344 19 L 817.777344 133 L 667.027344 133 Z M 667.027344 19 " clip-rule="nonzero"/></clipPath><clipPath id="5f681a6d3d"><path d="M 869.527344 15 L 989.527344 15 L 989.527344 135 L 869.527344 135 Z M 869.527344 15 " clip-rule="nonzero"/></clipPath><clipPath id="09a36d105d"><path d="M 532.671875 15 L 615.171875 15 L 615.171875 135 L 532.671875 135 Z M 532.671875 15 " clip-rule="nonzero"/></clipPath></defs><g clip-path="url(#0154077eff)"><path fill="#f06292" d="M 796.566406 84.21875 C 791.335938 84.246094 786.800781 85.503906 783.003906 87.382812 C 781.617188 84.605469 780.207031 82.160156 779.972656 80.347656 C 779.695312 78.226562 779.375 76.960938 779.710938 74.433594 C 780.042969 71.910156 781.503906 68.332031 781.484375 68.0625 C 781.460938 67.792969 781.15625 66.507812 778.136719 66.484375 C 775.117188 66.464844 772.535156 67.066406 772.234375 67.867188 C 771.929688 68.664062 771.347656 70.457031 770.988281 72.332031 C 770.460938 75.070312 764.960938 84.847656 761.839844 89.957031 C 760.820312 87.960938 759.953125 86.203125 759.773438 84.8125 C 759.496094 82.695312 759.175781 81.425781 759.511719 78.902344 C 759.84375 76.375 761.304688 72.800781 761.28125 72.53125 C 761.261719 72.261719 760.957031 70.976562 757.9375 70.953125 C 754.917969 70.933594 752.335938 71.535156 752.035156 72.332031 C 751.730469 73.128906 751.402344 74.992188 750.789062 76.800781 C 750.167969 78.601562 742.863281 94.90625 740.945312 99.132812 C 739.96875 101.285156 739.121094 103.015625 738.523438 104.195312 C 738.519531 104.191406 738.519531 104.1875 738.519531 104.1875 C 738.519531 104.1875 738.484375 104.265625 738.421875 104.402344 C 737.90625 105.40625 737.605469 105.960938 737.605469 105.960938 C 737.605469 105.960938 737.609375 105.96875 737.617188 105.980469 C 737.207031 106.722656 736.769531 107.40625 736.558594 107.40625 C 736.40625 107.40625 736.105469 105.441406 736.621094 102.742188 C 737.710938 97.085938 740.320312 88.265625 740.296875 87.960938 C 740.285156 87.804688 740.785156 86.265625 738.59375 85.464844 C 736.460938 84.683594 735.703125 85.984375 735.507812 85.988281 C 735.320312 85.992188 735.183594 86.449219 735.183594 86.449219 C 735.183594 86.449219 737.554688 76.53125 730.65625 76.53125 C 726.339844 76.53125 720.367188 81.253906 717.421875 85.539062 C 715.5625 86.554688 711.585938 88.726562 707.371094 91.046875 C 705.75 91.941406 704.097656 92.851562 702.527344 93.714844 C 702.421875 93.597656 702.3125 93.480469 702.203125 93.359375 C 693.835938 84.425781 678.375 78.105469 679.027344 66.085938 C 679.265625 61.71875 680.78125 50.214844 708.746094 36.265625 C 731.648438 24.839844 749.988281 27.984375 753.15625 34.953125 C 757.683594 44.910156 743.355469 63.414062 719.570312 66.085938 C 710.507812 67.105469 705.734375 63.585938 704.546875 62.277344 C 703.296875 60.898438 703.109375 60.835938 702.644531 61.09375 C 701.882812 61.519531 702.363281 62.734375 702.644531 63.460938 C 703.355469 65.308594 706.265625 68.589844 711.234375 70.226562 C 715.609375 71.664062 726.25 72.453125 739.117188 67.464844 C 753.53125 61.886719 764.785156 46.355469 761.476562 33.378906 C 758.113281 20.179688 736.253906 15.839844 715.5625 23.199219 C 703.234375 27.578125 689.90625 34.453125 680.320312 43.429688 C 668.921875 54.101562 667.105469 63.390625 667.855469 67.273438 C 670.515625 81.066406 689.5 90.046875 697.101562 96.699219 C 696.730469 96.90625 696.375 97.101562 696.054688 97.28125 C 692.242188 99.167969 677.769531 106.75 674.152344 114.761719 C 670.042969 123.847656 674.804688 130.371094 677.957031 131.25 C 687.71875 133.96875 697.738281 129.074219 703.125 121.035156 C 708.507812 112.996094 707.851562 102.527344 705.378906 97.75 C 705.347656 97.691406 705.316406 97.632812 705.285156 97.574219 C 706.265625 96.988281 707.269531 96.398438 708.265625 95.8125 C 710.203125 94.667969 712.109375 93.605469 713.761719 92.707031 C 712.835938 95.242188 712.15625 98.285156 711.808594 102.675781 C 711.390625 107.835938 713.503906 114.503906 716.269531 117.125 C 717.488281 118.28125 718.949219 118.308594 719.875 118.308594 C 723.089844 118.308594 724.558594 115.628906 726.175781 112.460938 C 728.15625 108.578125 729.914062 104.054688 729.914062 104.054688 C 729.914062 104.054688 727.710938 116.269531 733.71875 116.269531 C 735.910156 116.269531 738.113281 113.425781 739.09375 111.976562 C 739.097656 111.996094 739.097656 112 739.097656 112 C 739.097656 112 739.15625 111.90625 739.269531 111.71875 C 739.496094 111.371094 739.625 111.148438 739.625 111.148438 C 739.625 111.148438 739.628906 111.125 739.636719 111.085938 C 740.519531 109.554688 742.472656 106.066406 745.398438 100.3125 C 749.183594 92.878906 752.808594 83.5625 752.808594 83.5625 C 752.808594 83.5625 753.144531 85.839844 754.253906 89.605469 C 754.902344 91.820312 756.285156 94.269531 757.375 96.621094 C 756.5 97.839844 755.960938 98.539062 755.960938 98.539062 C 755.960938 98.539062 755.964844 98.554688 755.972656 98.578125 C 755.273438 99.511719 754.488281 100.515625 753.664062 101.496094 C 750.675781 105.058594 747.121094 109.125 746.644531 110.296875 C 746.082031 111.679688 746.214844 112.695312 747.300781 113.519531 C 748.09375 114.113281 749.5 114.210938 750.976562 114.109375 C 753.660156 113.929688 755.546875 113.261719 756.476562 112.855469 C 757.929688 112.34375 759.621094 111.535156 761.207031 110.367188 C 764.136719 108.210938 765.902344 105.125 765.734375 101.039062 C 765.636719 98.785156 764.925781 96.554688 764.015625 94.449219 C 764.28125 94.066406 764.546875 93.679688 764.816406 93.289062 C 769.433594 86.53125 773.015625 79.101562 773.015625 79.101562 C 773.015625 79.101562 773.351562 81.378906 774.457031 85.148438 C 775.015625 87.050781 776.121094 89.132812 777.117188 91.171875 C 772.773438 94.703125 770.082031 98.808594 769.148438 101.5 C 767.417969 106.480469 768.773438 108.738281 771.3125 109.253906 C 772.460938 109.484375 774.089844 108.957031 775.308594 108.4375 C 776.832031 107.933594 778.65625 107.09375 780.367188 105.835938 C 783.296875 103.679688 786.113281 100.660156 785.945312 96.574219 C 785.867188 94.714844 785.363281 92.867188 784.679688 91.09375 C 788.359375 89.558594 793.125 88.707031 799.195312 89.414062 C 812.21875 90.9375 814.769531 99.078125 814.285156 102.484375 C 813.792969 105.894531 811.0625 107.765625 810.148438 108.332031 C 809.238281 108.898438 808.957031 109.09375 809.03125 109.515625 C 809.144531 110.125 809.566406 110.105469 810.347656 109.972656 C 811.417969 109.789062 817.183594 107.199219 817.429688 100.910156 C 817.742188 92.917969 810.101562 84.148438 796.566406 84.21875 Z M 696.191406 118.101562 C 691.875 122.8125 685.851562 124.589844 683.265625 123.09375 C 680.476562 121.472656 681.582031 114.535156 686.875 109.535156 C 690.101562 106.488281 694.265625 103.679688 697.027344 101.953125 C 697.65625 101.574219 698.582031 101.019531 699.703125 100.347656 C 699.890625 100.242188 699.996094 100.183594 699.996094 100.183594 L 699.992188 100.175781 C 700.210938 100.046875 700.429688 99.914062 700.660156 99.773438 C 702.589844 106.890625 700.722656 113.15625 696.191406 118.101562 Z M 727.617188 96.714844 C 726.117188 100.378906 722.972656 109.761719 721.058594 109.257812 C 719.414062 108.828125 718.414062 101.695312 720.730469 94.675781 C 721.894531 91.144531 724.382812 86.921875 725.847656 85.28125 C 728.203125 82.644531 730.796875 81.785156 731.425781 82.855469 C 732.226562 84.214844 728.558594 94.414062 727.617188 96.714844 Z M 753.578125 109.117188 C 752.941406 109.449219 752.355469 109.65625 752.089844 109.496094 C 751.886719 109.378906 752.351562 108.9375 752.351562 108.9375 C 752.351562 108.9375 755.597656 105.441406 756.875 103.847656 C 757.621094 102.921875 758.480469 101.820312 759.421875 100.59375 C 759.429688 100.71875 759.429688 100.839844 759.429688 100.960938 C 759.425781 105.148438 755.382812 107.976562 753.578125 109.117188 Z M 773.578125 104.550781 C 773.101562 104.214844 773.183594 103.121094 774.746094 99.707031 C 775.355469 98.371094 776.757812 96.117188 779.1875 93.964844 C 779.472656 94.851562 779.640625 95.699219 779.636719 96.488281 C 779.609375 101.761719 775.851562 103.734375 773.578125 104.550781 Z M 773.578125 104.550781 " fill-opacity="1" fill-rule="nonzero"/></g><g clip-path="url(#5f681a6d3d)"><path fill="#563d7c" d="M 869.527344 119.527344 C 869.527344 128.070312 876.457031 135 885 135 L 974.054688 135 C 982.597656 135 989.527344 128.070312 989.527344 119.527344 L 989.527344 30.472656 C 989.527344 21.925781 982.597656 15 974.054688 15 L 885 15 C 876.453125 15 869.527344 21.925781 869.527344 30.472656 Z M 869.527344 119.527344 " fill-opacity="1" fill-rule="nonzero"/></g><path fill="#ffffff" d="M 919.289062 68.082031 L 919.289062 51.085938 L 934.25 51.085938 C 935.671875 51.085938 937.046875 51.207031 938.367188 51.441406 C 939.691406 51.679688 940.863281 52.105469 941.878906 52.714844 C 942.898438 53.324219 943.710938 54.171875 944.320312 55.257812 C 944.929688 56.34375 945.234375 57.734375 945.234375 59.429688 C 945.234375 62.484375 944.320312 64.6875 942.488281 66.046875 C 940.660156 67.402344 938.316406 68.082031 935.46875 68.082031 Z M 903.3125 38.671875 L 903.3125 111.328125 L 938.523438 111.328125 C 941.777344 111.328125 944.949219 110.921875 948.035156 110.105469 C 951.125 109.292969 953.871094 108.039062 956.28125 106.339844 C 958.6875 104.644531 960.601562 102.460938 962.027344 99.777344 C 963.453125 97.097656 964.164062 93.929688 964.164062 90.261719 C 964.164062 85.71875 963.0625 81.835938 960.859375 78.613281 C 958.652344 75.390625 955.3125 73.132812 950.832031 71.84375 C 954.089844 70.285156 956.550781 68.28125 958.210938 65.839844 C 959.875 63.398438 960.703125 60.347656 960.703125 56.683594 C 960.703125 53.292969 960.148438 50.441406 959.027344 48.136719 C 957.90625 45.828125 956.332031 43.980469 954.296875 42.589844 C 952.257812 41.199219 949.816406 40.199219 946.96875 39.585938 C 944.121094 38.976562 940.964844 38.671875 937.507812 38.671875 Z M 919.289062 98.914062 L 919.289062 78.96875 L 936.691406 78.96875 C 940.148438 78.96875 942.929688 79.765625 945.035156 81.359375 C 947.140625 82.953125 948.1875 85.617188 948.1875 89.347656 C 948.1875 91.246094 947.867188 92.808594 947.222656 94.03125 C 946.578125 95.25 945.714844 96.214844 944.625 96.929688 C 943.542969 97.640625 942.289062 98.152344 940.863281 98.457031 C 939.4375 98.761719 937.945312 98.914062 936.386719 98.914062 Z M 919.289062 98.914062 " fill-opacity="1" fill-rule="nonzero"/><g clip-path="url(#09a36d105d)"><path fill="#563d7c" d="M 555.386719 14.992188 C 542.84375 14.992188 532.675781 25.199219 532.675781 37.785156 C 532.675781 45.46875 536.464844 52.261719 542.265625 56.390625 C 536.464844 60.519531 532.675781 67.3125 532.675781 74.996094 C 532.675781 82.679688 536.464844 89.472656 542.265625 93.601562 C 536.464844 97.730469 532.675781 104.523438 532.675781 112.207031 C 532.675781 124.792969 542.84375 135 555.386719 135 C 567.929688 135 578.097656 124.792969 578.097656 112.207031 L 578.097656 92.648438 C 582.011719 95.859375 587.015625 97.789062 592.46875 97.789062 C 605.007812 97.789062 615.179688 87.582031 615.179688 74.996094 C 615.179688 67.3125 611.390625 60.519531 605.585938 56.390625 C 611.390625 52.261719 615.179688 45.46875 615.179688 37.785156 C 615.179688 25.199219 605.007812 14.992188 592.46875 14.992188 Z M 569.757812 89.414062 L 555.386719 89.414062 C 547.453125 89.414062 541.019531 82.960938 541.019531 74.996094 C 541.019531 67.03125 547.453125 60.578125 555.386719 60.578125 L 569.757812 60.578125 Z M 555.386719 52.203125 L 569.757812 52.203125 L 569.757812 23.367188 L 555.386719 23.367188 C 547.453125 23.367188 541.019531 29.820312 541.019531 37.785156 C 541.019531 45.75 547.453125 52.203125 555.386719 52.203125 Z M 606.835938 37.785156 C 606.835938 45.742188 600.410156 52.195312 592.480469 52.203125 L 578.097656 52.203125 L 578.097656 23.367188 L 592.46875 23.367188 C 600.402344 23.367188 606.835938 29.820312 606.835938 37.785156 Z M 578.097656 74.980469 C 578.109375 67.027344 584.527344 60.585938 592.449219 60.578125 L 592.480469 60.578125 C 600.410156 60.585938 606.835938 67.039062 606.835938 74.996094 C 606.835938 82.960938 600.402344 89.414062 592.46875 89.414062 C 584.539062 89.414062 578.109375 82.96875 578.097656 75.015625 Z M 555.386719 97.789062 C 547.453125 97.789062 541.019531 104.242188 541.019531 112.207031 C 541.019531 120.171875 547.453125 126.625 555.386719 126.625 C 563.324219 126.625 569.757812 120.171875 569.757812 112.207031 L 569.757812 97.789062 Z M 555.386719 97.789062 " fill-opacity="1" fill-rule="evenodd"/></g></svg>