<svg xmlns="http://www.w3.org/2000/svg" xmlns:xlink="http://www.w3.org/1999/xlink" width="1080" zoomAndPan="magnify" viewBox="0 0 810 1439.999935" height="1920" preserveAspectRatio="xMidYMid meet" version="1.0"><defs><clipPath id="d622444114"><path d="M 82.109375 627.222656 L 244.859375 627.222656 L 244.859375 812 L 82.109375 812 Z M 82.109375 627.222656 " clip-rule="nonzero"/></clipPath><clipPath id="7d86063d41"><path d="M 312.222656 627.222656 L 497.472656 627.222656 L 497.472656 812.472656 L 312.222656 812.472656 Z M 312.222656 627.222656 " clip-rule="nonzero"/></clipPath><clipPath id="4a450dfd82"><path d="M 565.277344 627 L 728.777344 627 L 728.777344 812.839844 L 565.277344 812.839844 Z M 565.277344 627 " clip-rule="nonzero"/></clipPath><clipPath id="b17ece7ee8"><path d="M 603 581.839844 L 629 581.839844 L 629 613 L 603 613 Z M 603 581.839844 " clip-rule="nonzero"/></clipPath><clipPath id="2f8a933d77"><path d="M 633 581.839844 L 659 581.839844 L 659 614 L 633 614 Z M 633 581.839844 " clip-rule="nonzero"/></clipPath><clipPath id="229a18867d"><path d="M 663 581.839844 L 689 581.839844 L 689 614 L 663 614 Z M 663 581.839844 " clip-rule="nonzero"/></clipPath><clipPath id="db6ac9955b"><path d="M 570.433594 552.703125 L 723.875 552.703125 L 723.875 618.742188 L 570.433594 618.742188 Z M 570.433594 552.703125 " clip-rule="nonzero"/></clipPath></defs><rect x="-81" width="972" fill="#ffffff" y="-143.999994" height="1727.999922" fill-opacity="1"/><rect x="-81" width="972" fill="#ffffff" y="-143.999994" height="1727.999922" fill-opacity="1"/><rect x="-81" width="972" fill="#ebebeb" y="-143.999994" height="1727.999922" fill-opacity="1"/><g clip-path="url(#d622444114)"><path fill="#e44d26" d="M 96.886719 793.550781 L 82.066406 627.738281 L 244.90625 627.738281 L 230.074219 793.527344 L 163.382812 811.964844 Z M 96.886719 793.550781 " fill-opacity="1" fill-rule="nonzero"/></g><path fill="#f16529" d="M 217.371094 782.96875 L 230.050781 641.296875 L 163.484375 641.296875 L 163.484375 797.875 Z M 217.371094 782.96875 " fill-opacity="1" fill-rule="nonzero"/><path fill="#ebebeb" d="M 163.417969 661.632812 L 112.363281 661.632812 L 117.863281 723.128906 L 163.484375 723.128906 L 163.484375 702.796875 L 136.511719 702.796875 L 134.648438 681.972656 L 163.484375 681.972656 L 163.484375 661.632812 Z M 163.484375 755.542969 L 163.398438 755.566406 L 140.695312 749.453125 L 139.253906 733.234375 L 118.777344 733.234375 L 121.632812 765.164062 L 163.394531 776.675781 L 163.484375 776.648438 Z M 163.484375 755.542969 " fill-opacity="1" fill-rule="nonzero"/><path fill="#ffffff" d="M 163.417969 723.128906 L 188.523438 723.128906 L 186.214844 749.496094 L 163.476562 755.617188 L 163.476562 776.773438 L 205.269531 765.21875 L 210.867188 702.785156 L 163.484375 702.785156 Z M 213.996094 667.089844 L 214.480469 661.632812 L 163.40625 661.632812 L 163.40625 681.964844 L 212.644531 681.964844 L 213.050781 677.394531 Z M 213.996094 667.089844 " fill-opacity="1" fill-rule="nonzero"/><g clip-path="url(#7d86063d41)"><path fill="#f7df1e" d="M 312.222656 627.222656 L 497.472656 627.222656 L 497.472656 812.472656 L 312.222656 812.472656 Z M 312.222656 627.222656 " fill-opacity="1" fill-rule="nonzero"/></g><path fill="#000000" d="M 360.933594 782.03125 L 375.109375 773.453125 C 377.84375 778.304688 380.332031 782.40625 386.300781 782.40625 C 392.019531 782.40625 395.628906 780.164062 395.628906 771.464844 L 395.628906 712.273438 L 413.03125 712.273438 L 413.03125 771.710938 C 413.03125 789.738281 402.46875 797.949219 387.046875 797.949219 C 373.121094 797.949219 365.035156 790.734375 360.933594 782.03125 " fill-opacity="1" fill-rule="nonzero"/><path fill="#000000" d="M 422.492188 780.164062 L 436.667969 771.957031 C 440.402344 778.050781 445.25 782.53125 453.824219 782.53125 C 461.039062 782.53125 465.640625 778.925781 465.640625 773.945312 C 465.640625 767.976562 460.914062 765.863281 452.957031 762.382812 L 448.605469 760.515625 C 436.042969 755.167969 427.714844 748.460938 427.714844 734.277344 C 427.714844 721.222656 437.65625 711.273438 453.207031 711.273438 C 464.273438 711.273438 472.234375 715.128906 477.949219 725.203125 L 464.394531 733.910156 C 461.414062 728.5625 458.179688 726.449219 453.207031 726.449219 C 448.105469 726.449219 444.871094 729.683594 444.871094 733.910156 C 444.871094 739.132812 448.105469 741.246094 455.566406 744.480469 L 459.917969 746.339844 C 474.714844 752.6875 483.050781 759.148438 483.050781 773.699219 C 483.050781 789.367188 470.742188 797.949219 454.199219 797.949219 C 438.035156 797.949219 427.59375 790.234375 422.492188 780.164062 " fill-opacity="1" fill-rule="nonzero"/><g clip-path="url(#4a450dfd82)"><path fill="#264de4" d="M 646.957031 812.832031 L 580.246094 794.28125 L 565.382812 627.238281 L 728.730469 627.234375 L 713.855469 794.253906 L 646.960938 812.832031 Z M 646.957031 812.832031 " fill-opacity="1" fill-rule="nonzero"/></g><path fill="#2965f1" d="M 701.113281 783.621094 L 713.832031 640.894531 L 647.058594 640.894531 L 647.058594 798.628906 L 701.113281 783.617188 Z M 701.113281 783.621094 " fill-opacity="1" fill-rule="nonzero"/><path fill="#ebebeb" d="M 599.460938 702.851562 L 601.292969 723.332031 L 647.058594 723.332031 L 647.058594 702.851562 Z M 599.460938 702.851562 " fill-opacity="1" fill-rule="nonzero"/><path fill="#ebebeb" d="M 595.777344 661.378906 L 597.636719 681.867188 L 647.058594 681.867188 L 647.058594 661.378906 Z M 595.777344 661.378906 " fill-opacity="1" fill-rule="nonzero"/><path fill="#ebebeb" d="M 647.058594 756.054688 L 646.96875 756.082031 L 624.195312 749.917969 L 622.738281 733.578125 L 602.207031 733.578125 L 605.074219 765.75 L 646.960938 777.398438 L 647.058594 777.371094 Z M 647.058594 756.054688 " fill-opacity="1" fill-rule="nonzero"/><g clip-path="url(#b17ece7ee8)"><path fill="#000000" d="M 603.824219 581.839844 L 628.59375 581.839844 L 628.59375 592.21875 L 614.183594 592.21875 L 614.183594 602.59375 L 628.59375 602.59375 L 628.59375 612.96875 L 603.824219 612.96875 Z M 603.824219 581.839844 " fill-opacity="1" fill-rule="nonzero"/></g><g clip-path="url(#2f8a933d77)"><path fill="#000000" d="M 633.546875 581.839844 L 658.316406 581.839844 L 658.316406 590.863281 L 643.90625 590.863281 L 643.90625 592.667969 L 658.316406 592.667969 L 658.316406 613.421875 L 633.546875 613.421875 L 633.546875 603.945312 L 647.960938 603.945312 L 647.960938 602.140625 L 633.546875 602.140625 Z M 633.546875 581.839844 " fill-opacity="1" fill-rule="nonzero"/></g><g clip-path="url(#229a18867d)"><path fill="#000000" d="M 663.273438 581.839844 L 688.039062 581.839844 L 688.039062 590.863281 L 673.625 590.863281 L 673.625 592.667969 L 688.039062 592.667969 L 688.039062 613.421875 L 663.273438 613.421875 L 663.273438 603.945312 L 677.679688 603.945312 L 677.679688 602.140625 L 663.273438 602.140625 Z M 663.273438 581.839844 " fill-opacity="1" fill-rule="nonzero"/></g><path fill="#ffffff" d="M 694.527344 702.851562 L 698.214844 661.378906 L 646.988281 661.378906 L 646.988281 681.867188 L 675.804688 681.867188 L 673.945312 702.851562 L 646.988281 702.851562 L 646.988281 723.332031 L 672.171875 723.332031 L 669.796875 749.902344 L 646.988281 756.074219 L 646.988281 777.386719 L 688.910156 765.75 L 689.21875 762.285156 L 694.027344 708.347656 Z M 694.527344 702.851562 " fill-opacity="1" fill-rule="nonzero"/><g clip-path="url(#db6ac9955b)"><path fill="#ebebeb" d="M 570.433594 552.703125 L 723.875 552.703125 L 723.875 619.832031 L 570.433594 619.832031 Z M 570.433594 552.703125 " fill-opacity="1" fill-rule="nonzero"/></g></svg>