<svg xmlns="http://www.w3.org/2000/svg" xmlns:xlink="http://www.w3.org/1999/xlink" width="1980" zoomAndPan="magnify" viewBox="0 0 1485 149.999998" height="200" preserveAspectRatio="xMidYMid meet" version="1.0"><defs><clipPath id="f7210a0e6b"><path d="M 582.339844 15 L 702.339844 15 L 702.339844 135 L 582.339844 135 Z M 582.339844 15 " clip-rule="nonzero"/></clipPath><clipPath id="9818a526a3"><path d="M 753.894531 15 L 873.894531 15 L 873.894531 135 L 753.894531 135 Z M 753.894531 15 " clip-rule="nonzero"/></clipPath><clipPath id="0970a0b723"><path d="M 840.820312 56.671875 L 840.777344 56.652344 C 840.75 56.644531 840.726562 56.632812 840.703125 56.613281 C 840.632812 56.535156 840.601562 56.425781 840.617188 56.320312 L 843.035156 41.554688 L 854.375 52.882812 L 842.578125 57.898438 C 842.546875 57.910156 842.515625 57.917969 842.476562 57.914062 L 842.429688 57.914062 C 842.417969 57.90625 842.402344 57.894531 842.371094 57.863281 C 841.929688 57.375 841.40625 56.96875 840.820312 56.671875 Z M 857.269531 55.773438 L 869.394531 67.882812 C 871.910156 70.402344 873.175781 71.660156 873.632812 73.113281 C 873.703125 73.328125 873.757812 73.542969 873.800781 73.769531 L 844.828125 61.507812 C 844.808594 61.503906 844.792969 61.496094 844.78125 61.488281 C 844.664062 61.445312 844.527344 61.390625 844.527344 61.273438 C 844.527344 61.152344 844.667969 61.097656 844.78125 61.050781 L 844.816406 61.035156 Z M 873.304688 77.652344 C 872.683594 78.828125 871.460938 80.050781 869.398438 82.113281 L 855.726562 95.765625 L 838.042969 92.085938 L 837.953125 92.070312 C 837.796875 92.046875 837.628906 92.015625 837.628906 91.875 C 837.492188 90.402344 836.753906 89.054688 835.582031 88.148438 C 835.507812 88.078125 835.527344 87.964844 835.550781 87.859375 C 835.550781 87.84375 835.550781 87.828125 835.554688 87.8125 L 838.882812 67.421875 L 838.890625 67.355469 C 838.910156 67.199219 838.9375 67.015625 839.082031 67.015625 C 840.519531 66.835938 841.828125 66.089844 842.710938 64.9375 C 842.738281 64.910156 842.757812 64.871094 842.796875 64.851562 C 842.894531 64.804688 843.015625 64.851562 843.117188 64.898438 Z M 852.582031 98.90625 L 830.101562 121.363281 L 833.949219 97.738281 L 833.960938 97.707031 C 833.960938 97.675781 833.96875 97.644531 833.976562 97.613281 C 834.003906 97.539062 834.089844 97.507812 834.167969 97.480469 L 834.207031 97.460938 C 835.050781 97.105469 835.792969 96.546875 836.378906 95.84375 C 836.453125 95.761719 836.542969 95.675781 836.660156 95.660156 C 836.691406 95.652344 836.71875 95.652344 836.753906 95.660156 L 852.582031 98.910156 Z M 825.347656 126.113281 L 822.8125 128.644531 L 794.800781 88.203125 C 794.789062 88.1875 794.777344 88.175781 794.769531 88.160156 C 794.722656 88.101562 794.675781 88.039062 794.6875 87.972656 C 794.6875 87.921875 794.722656 87.878906 794.753906 87.84375 L 794.785156 87.800781 C 794.871094 87.675781 794.941406 87.550781 795.019531 87.417969 L 795.082031 87.308594 L 795.09375 87.300781 C 795.136719 87.226562 795.175781 87.148438 795.253906 87.109375 C 795.320312 87.078125 795.410156 87.089844 795.480469 87.109375 L 826.515625 93.5 C 826.601562 93.515625 826.6875 93.546875 826.75 93.605469 C 826.792969 93.644531 826.804688 93.6875 826.8125 93.738281 C 827.253906 95.394531 828.441406 96.753906 830.027344 97.410156 C 830.117188 97.449219 830.078125 97.550781 830.035156 97.652344 C 830.019531 97.699219 830.003906 97.746094 829.988281 97.792969 C 829.601562 100.171875 826.246094 120.597656 825.347656 126.113281 Z M 820.054688 131.394531 C 818.1875 133.246094 817.082031 134.222656 815.835938 134.617188 C 814.609375 135.003906 813.296875 135.003906 812.066406 134.617188 C 810.609375 134.152344 809.347656 132.898438 806.828125 130.378906 L 778.699219 102.277344 L 786.046875 90.894531 C 786.082031 90.835938 786.117188 90.785156 786.171875 90.75 C 786.25 90.691406 786.363281 90.714844 786.457031 90.75 C 788.144531 91.253906 789.953125 91.164062 791.578125 90.488281 C 791.664062 90.457031 791.75 90.433594 791.816406 90.496094 C 791.847656 90.523438 791.878906 90.558594 791.902344 90.59375 L 820.054688 131.402344 Z M 775.984375 99.566406 L 769.53125 93.121094 L 782.277344 87.691406 C 782.308594 87.679688 782.34375 87.667969 782.378906 87.667969 C 782.488281 87.667969 782.550781 87.777344 782.605469 87.871094 C 782.734375 88.066406 782.871094 88.257812 783.011719 88.445312 L 783.050781 88.496094 C 783.089844 88.550781 783.066406 88.605469 783.027344 88.652344 L 775.988281 99.566406 Z M 766.675781 90.265625 L 758.511719 82.113281 C 757.125 80.722656 756.117188 79.71875 755.414062 78.855469 L 780.242188 84 C 780.273438 84.003906 780.304688 84.007812 780.335938 84.015625 C 780.488281 84.039062 780.65625 84.066406 780.65625 84.210938 C 780.65625 84.363281 780.472656 84.441406 780.316406 84.496094 L 780.242188 84.527344 Z M 753.988281 74.664062 C 754.015625 74.132812 754.113281 73.613281 754.269531 73.113281 C 754.734375 71.660156 755.992188 70.402344 758.511719 67.882812 L 768.960938 57.445312 C 773.769531 64.421875 778.59375 71.386719 783.429688 78.339844 C 783.515625 78.453125 783.609375 78.582031 783.511719 78.675781 C 783.054688 79.175781 782.597656 79.726562 782.277344 80.320312 C 782.242188 80.402344 782.1875 80.464844 782.121094 80.519531 C 782.078125 80.542969 782.035156 80.53125 781.988281 80.523438 L 781.984375 80.523438 L 753.988281 74.660156 Z M 771.757812 54.652344 L 785.804688 40.621094 C 787.125 41.199219 791.929688 43.226562 796.230469 45.039062 C 799.480469 46.414062 802.449219 47.664062 803.378906 48.070312 C 803.472656 48.105469 803.554688 48.144531 803.597656 48.238281 C 803.621094 48.292969 803.613281 48.367188 803.597656 48.425781 C 803.144531 50.484375 803.761719 52.628906 805.238281 54.136719 C 805.332031 54.230469 805.238281 54.367188 805.152344 54.480469 L 805.109375 54.546875 L 790.84375 76.621094 C 790.808594 76.679688 790.773438 76.730469 790.710938 76.773438 C 790.636719 76.820312 790.527344 76.796875 790.441406 76.777344 C 789.886719 76.632812 789.316406 76.554688 788.742188 76.542969 C 788.230469 76.542969 787.671875 76.636719 787.109375 76.742188 L 787.105469 76.742188 C 787.042969 76.75 786.988281 76.765625 786.9375 76.726562 C 786.882812 76.679688 786.835938 76.628906 786.796875 76.566406 Z M 788.644531 37.785156 L 806.828125 19.617188 C 809.347656 17.101562 810.609375 15.84375 812.066406 15.382812 C 813.296875 14.996094 814.609375 14.996094 815.835938 15.382812 C 817.296875 15.84375 818.554688 17.101562 821.074219 19.617188 L 825.015625 23.554688 L 812.082031 43.566406 C 812.050781 43.625 812.007812 43.675781 811.953125 43.714844 C 811.878906 43.769531 811.765625 43.746094 811.671875 43.714844 C 809.601562 43.089844 807.355469 43.523438 805.667969 44.871094 C 805.582031 44.960938 805.457031 44.910156 805.347656 44.863281 C 803.660156 44.128906 790.523438 38.582031 788.644531 37.785156 Z M 827.761719 26.300781 L 839.707031 38.230469 L 836.828125 56.035156 L 836.828125 56.082031 C 836.828125 56.121094 836.820312 56.160156 836.804688 56.199219 C 836.773438 56.261719 836.710938 56.273438 836.648438 56.292969 C 836.03125 56.480469 835.453125 56.769531 834.933594 57.148438 C 834.910156 57.164062 834.890625 57.179688 834.871094 57.199219 C 834.839844 57.238281 834.800781 57.273438 834.746094 57.277344 C 834.699219 57.28125 834.65625 57.273438 834.609375 57.257812 L 816.414062 49.53125 L 816.375 49.515625 C 816.261719 49.46875 816.121094 49.414062 816.121094 49.292969 C 816.015625 48.28125 815.6875 47.304688 815.152344 46.433594 C 815.066406 46.292969 814.972656 46.140625 815.046875 45.996094 Z M 815.464844 53.191406 L 832.527344 60.410156 C 832.621094 60.453125 832.722656 60.492188 832.761719 60.589844 C 832.78125 60.648438 832.78125 60.710938 832.761719 60.769531 C 832.714844 61.019531 832.667969 61.300781 832.667969 61.589844 L 832.667969 62.070312 C 832.667969 62.1875 832.546875 62.238281 832.433594 62.285156 L 832.402344 62.296875 C 829.695312 63.449219 794.453125 78.457031 794.402344 78.457031 C 794.347656 78.457031 794.292969 78.457031 794.238281 78.40625 C 794.144531 78.3125 794.238281 78.183594 794.324219 78.066406 C 794.339844 78.042969 794.351562 78.023438 794.367188 78 L 808.386719 56.316406 L 808.414062 56.277344 C 808.492188 56.148438 808.585938 56 808.738281 56 L 808.878906 56.023438 C 809.195312 56.066406 809.480469 56.105469 809.761719 56.105469 C 811.890625 56.105469 813.863281 55.070312 815.050781 53.304688 C 815.078125 53.253906 815.117188 53.214844 815.160156 53.179688 C 815.242188 53.117188 815.363281 53.148438 815.464844 53.191406 Z M 795.925781 81.894531 L 834.339844 65.527344 C 834.339844 65.527344 834.394531 65.527344 834.449219 65.578125 C 834.65625 65.789062 834.839844 65.929688 835.007812 66.0625 L 835.089844 66.117188 C 835.171875 66.160156 835.25 66.210938 835.253906 66.289062 C 835.253906 66.324219 835.253906 66.339844 835.25 66.371094 L 831.960938 86.558594 L 831.945312 86.640625 C 831.921875 86.796875 831.90625 86.976562 831.753906 86.976562 C 829.976562 87.09375 828.367188 88.085938 827.457031 89.621094 L 827.445312 89.648438 C 827.402344 89.71875 827.359375 89.789062 827.289062 89.828125 C 827.222656 89.855469 827.140625 89.84375 827.070312 89.828125 L 796.433594 83.519531 C 796.402344 83.507812 795.960938 81.894531 795.925781 81.894531 Z M 795.925781 81.894531 " clip-rule="nonzero"/></clipPath><radialGradient gradientTransform="matrix(0.999995, 0, 0, 1.000005, 753.98871, 15.093599)" gradientUnits="userSpaceOnUse" r="119.813391" cx="59.906695" id="e9aead6ddc" cy="-59.906695" fx="59.906695" fy="-59.906695"><stop stop-opacity="1" stop-color="rgb(12.637329%, 77.464294%, 71.82312%)" offset="0"/><stop stop-opacity="1" stop-color="rgb(12.879944%, 77.229309%, 71.865845%)" offset="0.015625"/><stop stop-opacity="1" stop-color="rgb(13.087463%, 77.027893%, 71.902466%)" offset="0.0273438"/><stop stop-opacity="1" stop-color="rgb(13.294983%, 76.826477%, 71.939087%)" offset="0.0390625"/><stop stop-opacity="1" stop-color="rgb(13.500977%, 76.625061%, 71.974182%)" offset="0.0507812"/><stop stop-opacity="1" stop-color="rgb(13.708496%, 76.423645%, 72.010803%)" offset="0.0625"/><stop stop-opacity="1" stop-color="rgb(13.916016%, 76.222229%, 72.047424%)" offset="0.0742188"/><stop stop-opacity="1" stop-color="rgb(14.123535%, 76.020813%, 72.084045%)" offset="0.0859375"/><stop stop-opacity="1" stop-color="rgb(14.331055%, 75.819397%, 72.120667%)" offset="0.0976562"/><stop stop-opacity="1" stop-color="rgb(14.538574%, 75.616455%, 72.155762%)" offset="0.109375"/><stop stop-opacity="1" stop-color="rgb(14.746094%, 75.415039%, 72.192383%)" offset="0.121094"/><stop stop-opacity="1" stop-color="rgb(14.953613%, 75.213623%, 72.229004%)" offset="0.132812"/><stop stop-opacity="1" stop-color="rgb(15.161133%, 75.012207%, 72.265625%)" offset="0.144531"/><stop stop-opacity="1" stop-color="rgb(15.368652%, 74.810791%, 72.302246%)" offset="0.15625"/><stop stop-opacity="1" stop-color="rgb(15.576172%, 74.609375%, 72.337341%)" offset="0.167969"/><stop stop-opacity="1" stop-color="rgb(15.783691%, 74.407959%, 72.373962%)" offset="0.179688"/><stop stop-opacity="1" stop-color="rgb(15.991211%, 74.206543%, 72.410583%)" offset="0.191406"/><stop stop-opacity="1" stop-color="rgb(16.19873%, 74.005127%, 72.447205%)" offset="0.203125"/><stop stop-opacity="1" stop-color="rgb(16.40625%, 73.803711%, 72.483826%)" offset="0.214844"/><stop stop-opacity="1" stop-color="rgb(16.61377%, 73.600769%, 72.518921%)" offset="0.226562"/><stop stop-opacity="1" stop-color="rgb(16.819763%, 73.399353%, 72.555542%)" offset="0.238281"/><stop stop-opacity="1" stop-color="rgb(17.027283%, 73.197937%, 72.592163%)" offset="0.25"/><stop stop-opacity="1" stop-color="rgb(17.303467%, 72.929382%, 72.640991%)" offset="0.261719"/><stop stop-opacity="1" stop-color="rgb(17.649841%, 72.593689%, 72.7005%)" offset="0.28125"/><stop stop-opacity="1" stop-color="rgb(17.996216%, 72.257996%, 72.761536%)" offset="0.300781"/><stop stop-opacity="1" stop-color="rgb(18.341064%, 71.922302%, 72.822571%)" offset="0.320312"/><stop stop-opacity="1" stop-color="rgb(18.687439%, 71.585083%, 72.88208%)" offset="0.339844"/><stop stop-opacity="1" stop-color="rgb(19.032288%, 71.24939%, 72.943115%)" offset="0.359375"/><stop stop-opacity="1" stop-color="rgb(19.343567%, 70.947266%, 72.998047%)" offset="0.378906"/><stop stop-opacity="1" stop-color="rgb(19.619751%, 70.678711%, 73.046875%)" offset="0.394531"/><stop stop-opacity="1" stop-color="rgb(19.897461%, 70.410156%, 73.094177%)" offset="0.410156"/><stop stop-opacity="1" stop-color="rgb(20.173645%, 70.141602%, 73.143005%)" offset="0.425781"/><stop stop-opacity="1" stop-color="rgb(20.449829%, 69.873047%, 73.191833%)" offset="0.441406"/><stop stop-opacity="1" stop-color="rgb(20.726013%, 69.604492%, 73.240662%)" offset="0.457031"/><stop stop-opacity="1" stop-color="rgb(21.003723%, 69.334412%, 73.287964%)" offset="0.472656"/><stop stop-opacity="1" stop-color="rgb(21.279907%, 69.065857%, 73.336792%)" offset="0.488281"/><stop stop-opacity="1" stop-color="rgb(21.522522%, 68.830872%, 73.379517%)" offset="0.503906"/><stop stop-opacity="1" stop-color="rgb(21.730042%, 68.629456%, 73.416138%)" offset="0.515625"/><stop stop-opacity="1" stop-color="rgb(21.937561%, 68.42804%, 73.452759%)" offset="0.527344"/><stop stop-opacity="1" stop-color="rgb(22.143555%, 68.226624%, 73.487854%)" offset="0.539062"/><stop stop-opacity="1" stop-color="rgb(22.351074%, 68.025208%, 73.524475%)" offset="0.550781"/><stop stop-opacity="1" stop-color="rgb(22.558594%, 67.823792%, 73.561096%)" offset="0.5625"/><stop stop-opacity="1" stop-color="rgb(22.766113%, 67.622375%, 73.597717%)" offset="0.574219"/><stop stop-opacity="1" stop-color="rgb(22.973633%, 67.420959%, 73.634338%)" offset="0.585938"/><stop stop-opacity="1" stop-color="rgb(23.181152%, 67.218018%, 73.669434%)" offset="0.597656"/><stop stop-opacity="1" stop-color="rgb(23.388672%, 67.016602%, 73.706055%)" offset="0.609375"/><stop stop-opacity="1" stop-color="rgb(23.596191%, 66.815186%, 73.742676%)" offset="0.621094"/><stop stop-opacity="1" stop-color="rgb(23.872375%, 66.546631%, 73.791504%)" offset="0.632812"/><stop stop-opacity="1" stop-color="rgb(24.21875%, 66.210938%, 73.851013%)" offset="0.652344"/><stop stop-opacity="1" stop-color="rgb(24.563599%, 65.875244%, 73.912048%)" offset="0.671875"/><stop stop-opacity="1" stop-color="rgb(24.874878%, 65.57312%, 73.96698%)" offset="0.691406"/><stop stop-opacity="1" stop-color="rgb(25.151062%, 65.304565%, 74.015808%)" offset="0.707031"/><stop stop-opacity="1" stop-color="rgb(25.427246%, 65.034485%, 74.06311%)" offset="0.722656"/><stop stop-opacity="1" stop-color="rgb(25.704956%, 64.76593%, 74.111938%)" offset="0.738281"/><stop stop-opacity="1" stop-color="rgb(25.947571%, 64.530945%, 74.154663%)" offset="0.753906"/><stop stop-opacity="1" stop-color="rgb(26.15509%, 64.329529%, 74.191284%)" offset="0.765625"/><stop stop-opacity="1" stop-color="rgb(26.36261%, 64.128113%, 74.226379%)" offset="0.777344"/><stop stop-opacity="1" stop-color="rgb(26.568604%, 63.926697%, 74.263%)" offset="0.789062"/><stop stop-opacity="1" stop-color="rgb(26.776123%, 63.725281%, 74.299622%)" offset="0.800781"/><stop stop-opacity="1" stop-color="rgb(26.983643%, 63.523865%, 74.336243%)" offset="0.8125"/><stop stop-opacity="1" stop-color="rgb(27.259827%, 63.25531%, 74.385071%)" offset="0.824219"/><stop stop-opacity="1" stop-color="rgb(27.606201%, 62.918091%, 74.44458%)" offset="0.84375"/><stop stop-opacity="1" stop-color="rgb(27.91748%, 62.615967%, 74.499512%)" offset="0.863281"/><stop stop-opacity="1" stop-color="rgb(28.160095%, 62.380981%, 74.542236%)" offset="0.878906"/><stop stop-opacity="1" stop-color="rgb(28.367615%, 62.179565%, 74.578857%)" offset="0.890625"/><stop stop-opacity="1" stop-color="rgb(28.575134%, 61.978149%, 74.613953%)" offset="0.902344"/><stop stop-opacity="1" stop-color="rgb(28.851318%, 61.709595%, 74.662781%)" offset="0.914062"/><stop stop-opacity="1" stop-color="rgb(29.161072%, 61.407471%, 74.717712%)" offset="0.933594"/><stop stop-opacity="1" stop-color="rgb(29.403687%, 61.172485%, 74.760437%)" offset="0.949219"/><stop stop-opacity="1" stop-color="rgb(29.679871%, 60.902405%, 74.807739%)" offset="0.960938"/><stop stop-opacity="1" stop-color="rgb(30.026245%, 60.566711%, 74.868774%)" offset="0.980469"/><stop stop-opacity="1" stop-color="rgb(30.198669%, 60.398865%, 74.899292%)" offset="1"/></radialGradient></defs><g clip-path="url(#f7210a0e6b)"><path fill="#f03c2e" d="M 700.074219 69.65625 L 647.683594 17.265625 C 647.324219 16.90625 646.933594 16.585938 646.511719 16.304688 C 646.089844 16.023438 645.644531 15.785156 645.175781 15.589844 C 644.707031 15.394531 644.222656 15.25 643.726562 15.148438 C 643.230469 15.050781 642.726562 15 642.21875 15 C 641.710938 15 641.207031 15.050781 640.710938 15.148438 C 640.214844 15.25 639.730469 15.394531 639.261719 15.589844 C 638.792969 15.785156 638.347656 16.023438 637.925781 16.304688 C 637.503906 16.585938 637.113281 16.90625 636.753906 17.265625 L 625.878906 28.140625 L 639.679688 41.941406 C 642.890625 40.816406 646.566406 41.582031 649.121094 44.140625 C 649.730469 44.75 650.242188 45.433594 650.660156 46.1875 C 651.078125 46.941406 651.382812 47.738281 651.574219 48.578125 C 651.769531 49.417969 651.839844 50.269531 651.792969 51.128906 C 651.746094 51.988281 651.582031 52.824219 651.300781 53.640625 L 664.601562 66.941406 C 667.820312 65.832031 671.53125 66.546875 674.101562 69.125 C 674.527344 69.550781 674.910156 70.015625 675.246094 70.515625 C 675.582031 71.019531 675.867188 71.550781 676.097656 72.109375 C 676.328125 72.664062 676.503906 73.242188 676.621094 73.832031 C 676.738281 74.425781 676.796875 75.023438 676.796875 75.628906 C 676.796875 76.234375 676.738281 76.832031 676.621094 77.421875 C 676.503906 78.015625 676.328125 78.589844 676.097656 79.148438 C 675.867188 79.707031 675.582031 80.238281 675.246094 80.738281 C 674.910156 81.242188 674.53125 81.707031 674.101562 82.132812 C 673.675781 82.5625 673.210938 82.941406 672.707031 83.277344 C 672.207031 83.613281 671.675781 83.898438 671.117188 84.128906 C 670.558594 84.359375 669.984375 84.53125 669.390625 84.652344 C 668.800781 84.769531 668.199219 84.828125 667.597656 84.828125 C 666.992188 84.828125 666.394531 84.765625 665.800781 84.648438 C 665.210938 84.53125 664.632812 84.355469 664.078125 84.125 C 663.519531 83.894531 662.988281 83.609375 662.484375 83.273438 C 661.984375 82.9375 661.519531 82.554688 661.09375 82.128906 C 658.394531 79.429688 657.726562 75.453125 659.089844 72.128906 L 646.683594 59.722656 L 646.683594 92.367188 C 647.589844 92.816406 648.402344 93.394531 649.121094 94.105469 C 649.550781 94.53125 649.929688 94.996094 650.265625 95.5 C 650.601562 96 650.886719 96.53125 651.117188 97.089844 C 651.347656 97.648438 651.523438 98.222656 651.640625 98.816406 C 651.757812 99.40625 651.816406 100.003906 651.816406 100.609375 C 651.816406 101.210938 651.757812 101.8125 651.640625 102.402344 C 651.523438 102.996094 651.347656 103.570312 651.117188 104.128906 C 650.886719 104.6875 650.601562 105.214844 650.265625 105.71875 C 649.929688 106.21875 649.550781 106.683594 649.121094 107.109375 C 648.695312 107.539062 648.230469 107.917969 647.730469 108.253906 C 647.226562 108.589844 646.695312 108.875 646.140625 109.105469 C 645.582031 109.335938 645.007812 109.511719 644.414062 109.628906 C 643.820312 109.746094 643.222656 109.804688 642.621094 109.804688 C 642.015625 109.804688 641.417969 109.746094 640.824219 109.628906 C 640.234375 109.511719 639.660156 109.335938 639.101562 109.105469 C 638.542969 108.875 638.011719 108.589844 637.511719 108.253906 C 637.007812 107.917969 636.542969 107.539062 636.117188 107.109375 C 635.691406 106.683594 635.308594 106.21875 634.972656 105.71875 C 634.636719 105.214844 634.351562 104.6875 634.121094 104.128906 C 633.890625 103.570312 633.714844 102.996094 633.597656 102.402344 C 633.480469 101.8125 633.421875 101.210938 633.421875 100.609375 C 633.421875 100.003906 633.480469 99.40625 633.597656 98.8125 C 633.714844 98.222656 633.890625 97.648438 634.121094 97.089844 C 634.351562 96.53125 634.636719 96 634.972656 95.5 C 635.308594 94.996094 635.691406 94.53125 636.117188 94.105469 C 637.007812 93.222656 637.992188 92.550781 639.128906 92.101562 L 639.128906 59.152344 C 638.035156 58.703125 637.007812 58.039062 636.117188 57.144531 C 635.472656 56.5 634.933594 55.777344 634.503906 54.972656 C 634.074219 54.167969 633.773438 53.316406 633.597656 52.421875 C 633.417969 51.527344 633.378906 50.625 633.46875 49.714844 C 633.5625 48.808594 633.785156 47.933594 634.136719 47.09375 L 620.523438 33.488281 L 584.601562 69.375 C 584.242188 69.734375 583.921875 70.125 583.636719 70.546875 C 583.355469 70.96875 583.117188 71.414062 582.921875 71.882812 C 582.730469 72.351562 582.582031 72.835938 582.484375 73.332031 C 582.382812 73.832031 582.335938 74.332031 582.335938 74.839844 C 582.335938 75.347656 582.382812 75.851562 582.484375 76.347656 C 582.582031 76.847656 582.730469 77.328125 582.921875 77.800781 C 583.117188 78.269531 583.355469 78.714844 583.636719 79.136719 C 583.921875 79.558594 584.242188 79.949219 584.601562 80.304688 L 636.996094 132.695312 C 637.355469 133.050781 637.742188 133.371094 638.164062 133.65625 C 638.585938 133.9375 639.03125 134.175781 639.5 134.371094 C 639.96875 134.5625 640.453125 134.710938 640.953125 134.808594 C 641.449219 134.90625 641.953125 134.957031 642.457031 134.957031 C 642.964844 134.957031 643.46875 134.90625 643.964844 134.808594 C 644.464844 134.710938 644.945312 134.5625 645.414062 134.371094 C 645.882812 134.175781 646.328125 133.9375 646.75 133.65625 C 647.171875 133.371094 647.5625 133.050781 647.921875 132.695312 L 700.074219 80.625 C 700.433594 80.265625 700.753906 79.875 701.035156 79.453125 C 701.316406 79.03125 701.554688 78.585938 701.75 78.117188 C 701.945312 77.648438 702.09375 77.164062 702.191406 76.667969 C 702.289062 76.167969 702.339844 75.667969 702.339844 75.160156 C 702.339844 74.652344 702.289062 74.148438 702.191406 73.652344 C 702.09375 73.152344 701.945312 72.671875 701.75 72.199219 C 701.554688 71.730469 701.316406 71.285156 701.035156 70.863281 C 700.753906 70.441406 700.433594 70.050781 700.074219 69.695312 " fill-opacity="1" fill-rule="nonzero"/></g><g clip-path="url(#9818a526a3)"><g clip-path="url(#0970a0b723)"><path fill="url(#e9aead6ddc)" d="M 753.988281 15 L 753.988281 135 L 873.800781 135 L 873.800781 15 Z M 753.988281 15 " fill-rule="nonzero"/></g></g></svg>