<svg xmlns="http://www.w3.org/2000/svg" xmlns:xlink="http://www.w3.org/1999/xlink" width="1980" zoomAndPan="magnify" viewBox="0 0 1485 149.999998" height="200" preserveAspectRatio="xMidYMid meet" version="1.0"><defs><clipPath id="bb8332dc35"><path d="M 544.730469 17 L 674.480469 17 L 674.480469 133 L 544.730469 133 Z M 544.730469 17 " clip-rule="nonzero"/></clipPath><clipPath id="df8c012421"><path d="M 727 15 L 755 15 L 755 121 L 727 121 Z M 727 15 " clip-rule="nonzero"/></clipPath><clipPath id="9e7355f7ac"><path d="M 751 105 L 759 105 L 759 135 L 751 135 Z M 751 105 " clip-rule="nonzero"/></clipPath><clipPath id="71c1456f70"><path d="M 833.796875 15 L 940.296875 15 L 940.296875 135 L 833.796875 135 Z M 833.796875 15 " clip-rule="nonzero"/></clipPath></defs><g clip-path="url(#bb8332dc35)"><path fill="#00d8ff" d="M 651.324219 54.742188 C 649.984375 54.28125 648.59375 53.84375 647.15625 53.429688 C 647.394531 52.46875 647.613281 51.519531 647.804688 50.589844 C 650.957031 35.28125 648.898438 22.949219 641.851562 18.890625 C 635.09375 15 624.046875 19.058594 612.886719 28.761719 C 611.8125 29.695312 610.738281 30.683594 609.664062 31.71875 C 608.945312 31.03125 608.234375 30.371094 607.519531 29.738281 C 595.824219 19.363281 584.101562 14.988281 577.066406 19.058594 C 570.316406 22.964844 568.316406 34.558594 571.15625 49.0625 C 571.429688 50.464844 571.753906 51.894531 572.113281 53.351562 C 570.457031 53.820312 568.855469 54.320312 567.320312 54.855469 C 553.613281 59.632812 544.855469 67.117188 544.855469 74.882812 C 544.855469 82.902344 554.253906 90.949219 568.535156 95.824219 C 569.660156 96.210938 570.832031 96.574219 572.035156 96.917969 C 571.644531 98.488281 571.304688 100.03125 571.019531 101.539062 C 568.3125 115.792969 570.425781 127.109375 577.15625 130.988281 C 584.109375 134.996094 595.777344 130.875 607.140625 120.953125 C 608.039062 120.167969 608.941406 119.335938 609.839844 118.464844 C 611.015625 119.589844 612.183594 120.65625 613.34375 121.65625 C 624.347656 131.117188 635.21875 134.9375 641.941406 131.050781 C 648.886719 127.035156 651.148438 114.871094 648.214844 100.082031 C 647.992188 98.949219 647.730469 97.796875 647.441406 96.625 C 648.261719 96.382812 649.066406 96.128906 649.847656 95.871094 C 664.695312 90.953125 674.351562 83.011719 674.351562 74.882812 C 674.351562 67.089844 665.3125 59.554688 651.324219 54.742188 Z M 648.109375 90.625 C 647.398438 90.855469 646.671875 91.085938 645.933594 91.300781 C 644.292969 86.121094 642.082031 80.605469 639.371094 74.910156 C 641.957031 69.347656 644.082031 63.90625 645.675781 58.757812 C 647 59.140625 648.285156 59.542969 649.523438 59.96875 C 661.507812 64.09375 668.816406 70.1875 668.816406 74.882812 C 668.816406 79.882812 660.925781 86.378906 648.109375 90.625 Z M 642.785156 101.152344 C 644.085938 107.695312 644.269531 113.609375 643.410156 118.234375 C 642.640625 122.386719 641.085938 125.160156 639.171875 126.265625 C 635.089844 128.625 626.363281 125.558594 616.953125 117.464844 C 615.871094 116.535156 614.785156 115.542969 613.695312 114.496094 C 617.34375 110.507812 620.992188 105.875 624.550781 100.722656 C 630.808594 100.171875 636.722656 99.261719 642.089844 98.023438 C 642.351562 99.089844 642.585938 100.132812 642.785156 101.152344 Z M 589.007812 125.855469 C 585.019531 127.265625 581.84375 127.308594 579.921875 126.199219 C 575.839844 123.84375 574.140625 114.753906 576.457031 102.570312 C 576.722656 101.171875 577.039062 99.738281 577.402344 98.273438 C 582.707031 99.445312 588.578125 100.289062 594.851562 100.792969 C 598.4375 105.835938 602.191406 110.464844 605.96875 114.519531 C 605.144531 115.316406 604.320312 116.074219 603.5 116.789062 C 598.476562 121.179688 593.441406 124.292969 589.007812 125.855469 Z M 570.328125 90.59375 C 564.011719 88.4375 558.796875 85.636719 555.222656 82.570312 C 552.011719 79.828125 550.390625 77.097656 550.390625 74.882812 C 550.390625 70.171875 557.417969 64.160156 569.144531 60.074219 C 570.566406 59.578125 572.058594 59.113281 573.601562 58.675781 C 575.222656 63.941406 577.347656 69.449219 579.914062 75.015625 C 577.316406 80.667969 575.160156 86.261719 573.523438 91.59375 C 572.421875 91.277344 571.355469 90.941406 570.328125 90.59375 Z M 576.589844 48 C 574.15625 35.574219 575.769531 26.199219 579.839844 23.84375 C 584.171875 21.339844 593.75 24.910156 603.84375 33.871094 C 604.492188 34.445312 605.140625 35.042969 605.792969 35.664062 C 602.027344 39.699219 598.308594 44.296875 594.757812 49.304688 C 588.667969 49.867188 582.839844 50.773438 577.476562 51.988281 C 577.140625 50.632812 576.84375 49.300781 576.589844 48 Z M 632.441406 61.785156 C 631.164062 59.574219 629.847656 57.414062 628.507812 55.3125 C 632.640625 55.835938 636.597656 56.527344 640.3125 57.375 C 639.199219 60.949219 637.808594 64.6875 636.171875 68.519531 C 634.996094 66.289062 633.753906 64.042969 632.441406 61.785156 Z M 609.664062 39.613281 C 612.21875 42.375 614.773438 45.460938 617.289062 48.804688 C 614.753906 48.6875 612.1875 48.625 609.605469 48.625 C 607.042969 48.625 604.5 48.683594 601.980469 48.804688 C 604.496094 45.488281 607.074219 42.40625 609.664062 39.613281 Z M 586.742188 61.824219 C 585.460938 64.039062 584.242188 66.273438 583.085938 68.515625 C 581.476562 64.695312 580.097656 60.941406 578.972656 57.316406 C 582.664062 56.492188 586.605469 55.816406 590.710938 55.304688 C 589.351562 57.421875 588.023438 59.597656 586.742188 61.824219 Z M 590.828125 94.855469 C 586.585938 94.386719 582.589844 93.742188 578.894531 92.9375 C 580.039062 89.25 581.445312 85.417969 583.09375 81.515625 C 584.25 83.753906 585.476562 85.988281 586.761719 88.214844 C 588.074219 90.476562 589.433594 92.691406 590.828125 94.855469 Z M 609.816406 110.539062 C 607.195312 107.714844 604.582031 104.585938 602.027344 101.222656 C 604.503906 101.320312 607.035156 101.371094 609.605469 101.371094 C 612.246094 101.371094 614.855469 101.308594 617.417969 101.199219 C 614.902344 104.621094 612.351562 107.753906 609.816406 110.539062 Z M 636.222656 81.320312 C 637.953125 85.261719 639.414062 89.074219 640.570312 92.703125 C 636.820312 93.554688 632.761719 94.242188 628.492188 94.757812 C 629.839844 92.632812 631.164062 90.433594 632.46875 88.171875 C 633.789062 85.886719 635.039062 83.597656 636.222656 81.320312 Z M 627.671875 85.414062 C 625.648438 88.921875 623.570312 92.265625 621.460938 95.425781 C 617.621094 95.699219 613.652344 95.839844 609.605469 95.839844 C 605.574219 95.839844 601.652344 95.71875 597.878906 95.472656 C 595.683594 92.273438 593.5625 88.914062 591.550781 85.441406 C 589.542969 81.980469 587.699219 78.488281 586.027344 75.015625 C 587.699219 71.539062 589.539062 68.039062 591.535156 64.582031 L 591.535156 64.585938 C 593.535156 61.121094 595.636719 57.777344 597.8125 54.59375 C 601.664062 54.304688 605.613281 54.152344 609.605469 54.152344 C 613.617188 54.152344 617.566406 54.304688 621.414062 54.597656 C 623.558594 57.757812 625.648438 61.089844 627.65625 64.554688 C 629.6875 68.058594 631.554688 71.53125 633.238281 74.9375 C 631.558594 78.402344 629.695312 81.910156 627.671875 85.414062 Z M 639.085938 23.679688 C 643.425781 26.179688 645.109375 36.253906 642.382812 49.472656 C 642.210938 50.316406 642.011719 51.171875 641.800781 52.042969 C 636.429688 50.804688 630.597656 49.882812 624.492188 49.3125 C 620.929688 44.246094 617.242188 39.644531 613.539062 35.660156 C 614.535156 34.703125 615.53125 33.789062 616.519531 32.929688 C 626.078125 24.617188 635.019531 21.332031 639.085938 23.679688 Z M 609.605469 63.324219 C 615.988281 63.324219 621.167969 68.5 621.167969 74.882812 C 621.167969 81.261719 615.988281 86.4375 609.605469 86.4375 C 603.21875 86.4375 598.039062 81.261719 598.039062 74.882812 C 598.039062 68.5 603.21875 63.324219 609.605469 63.324219 Z M 609.605469 63.324219 " fill-opacity="1" fill-rule="nonzero"/></g><path fill="#599636" d="M 753.890625 15.328125 L 757.089844 21.339844 C 757.808594 22.453125 758.589844 23.433594 759.507812 24.347656 C 762.1875 27.03125 764.730469 29.839844 767.015625 32.847656 C 772.441406 39.972656 776.097656 47.882812 778.710938 56.441406 C 780.277344 61.667969 781.125 67.03125 781.191406 72.453125 C 781.453125 88.664062 775.898438 102.585938 764.699219 114.152344 C 762.871094 115.984375 760.914062 117.679688 758.816406 119.1875 C 757.707031 119.1875 757.183594 118.335938 756.726562 117.550781 C 755.875 116.113281 755.355469 114.476562 755.089844 112.84375 C 754.699219 110.882812 754.441406 108.921875 754.566406 106.898438 L 754.566406 105.984375 C 754.476562 105.789062 753.5 15.789062 753.890625 15.328125 Z M 753.890625 15.328125 " fill-opacity="1" fill-rule="nonzero"/><g clip-path="url(#df8c012421)"><path fill="#6cac48" d="M 753.890625 15.128906 C 753.757812 14.863281 753.625 15.0625 753.496094 15.191406 C 753.558594 16.503906 753.101562 17.671875 752.386719 18.792969 C 751.597656 19.902344 750.558594 20.753906 749.511719 21.667969 C 743.703125 26.699219 739.128906 32.777344 735.46875 39.578125 C 730.597656 48.726562 728.085938 58.535156 727.375 68.859375 C 727.046875 72.582031 728.550781 85.722656 729.722656 89.511719 C 732.925781 99.578125 738.671875 108.011719 746.121094 115.332031 C 747.949219 117.09375 749.90625 118.730469 751.929688 120.300781 C 752.515625 120.300781 752.582031 119.773438 752.714844 119.386719 C 752.972656 118.550781 753.171875 117.699219 753.304688 116.835938 L 754.617188 107.03125 Z M 753.890625 15.128906 " fill-opacity="1" fill-rule="nonzero"/></g><g clip-path="url(#9e7355f7ac)"><path fill="#c2bfbf" d="M 757.089844 123.167969 C 757.21875 121.667969 757.941406 120.421875 758.722656 119.183594 C 757.9375 118.855469 757.351562 118.207031 756.894531 117.484375 C 756.5 116.832031 756.175781 116.046875 755.921875 115.328125 C 755.003906 112.582031 754.8125 109.703125 754.546875 106.898438 L 754.546875 105.199219 C 754.222656 105.460938 754.15625 107.679688 754.15625 108.011719 C 753.964844 110.980469 753.570312 113.921875 752.976562 116.835938 C 752.785156 118.011719 752.652344 119.1875 751.929688 120.234375 C 751.929688 120.363281 751.929688 120.496094 751.992188 120.691406 C 753.167969 124.15625 753.492188 127.683594 753.691406 131.28125 L 753.691406 132.59375 C 753.691406 134.160156 753.625 133.828125 754.925781 134.355469 C 755.453125 134.550781 756.035156 134.617188 756.5625 135.007812 C 756.953125 135.007812 757.019531 134.679688 757.019531 134.417969 L 756.824219 132.261719 L 756.824219 126.246094 C 756.757812 125.199219 756.953125 124.15625 757.085938 123.171875 Z M 757.089844 123.167969 " fill-opacity="1" fill-rule="nonzero"/></g><g clip-path="url(#71c1456f70)"><path fill="#539e43" d="M 887.046875 134.984375 C 885.398438 134.984375 883.859375 134.542969 882.433594 133.777344 L 867.8125 125.09375 C 865.613281 123.886719 866.710938 123.449219 867.371094 123.226562 C 870.339844 122.238281 870.890625 122.015625 873.96875 120.257812 C 874.296875 120.039062 874.738281 120.152344 875.066406 120.371094 L 886.277344 127.070312 C 886.714844 127.292969 887.269531 127.292969 887.601562 127.070312 L 931.457031 101.691406 C 931.894531 101.472656 932.113281 101.03125 932.113281 100.480469 L 932.113281 49.824219 C 932.113281 49.273438 931.894531 48.832031 931.457031 48.613281 L 887.601562 23.339844 C 887.160156 23.121094 886.609375 23.121094 886.277344 23.339844 L 842.421875 48.613281 C 841.980469 48.832031 841.761719 49.382812 841.761719 49.824219 L 841.761719 100.480469 C 841.761719 100.921875 841.980469 101.472656 842.417969 101.691406 L 854.402344 108.613281 C 860.886719 111.910156 864.953125 108.066406 864.953125 104.214844 L 864.953125 54.21875 C 864.953125 53.558594 865.503906 52.898438 866.273438 52.898438 L 871.878906 52.898438 C 872.539062 52.898438 873.199219 53.449219 873.199219 54.21875 L 873.199219 104.21875 C 873.199219 112.898438 868.472656 117.953125 860.226562 117.953125 C 857.699219 117.953125 855.71875 117.953125 850.113281 115.207031 L 838.570312 108.613281 C 835.714844 106.964844 833.957031 103.890625 833.957031 100.59375 L 833.957031 49.933594 C 833.957031 46.636719 835.714844 43.558594 838.570312 41.910156 L 882.433594 16.527344 C 885.175781 14.988281 888.917969 14.988281 891.664062 16.527344 L 935.523438 41.910156 C 938.382812 43.558594 940.140625 46.636719 940.140625 49.933594 L 940.140625 100.589844 C 940.140625 103.886719 938.382812 106.964844 935.523438 108.609375 L 891.664062 133.996094 C 890.238281 134.65625 888.585938 134.984375 887.046875 134.984375 Z M 900.570312 100.152344 C 881.332031 100.152344 877.375 91.359375 877.375 83.886719 C 877.375 83.226562 877.921875 82.566406 878.695312 82.566406 L 884.410156 82.566406 C 885.070312 82.566406 885.617188 83.007812 885.617188 83.667969 C 886.496094 89.492188 889.027344 92.347656 900.679688 92.347656 C 909.910156 92.347656 913.867188 90.257812 913.867188 85.316406 C 913.867188 82.460938 912.769531 80.371094 898.371094 78.941406 C 886.390625 77.734375 878.914062 75.09375 878.914062 65.539062 C 878.914062 56.636719 886.390625 51.359375 898.917969 51.359375 C 912.988281 51.359375 919.917969 56.195312 920.796875 66.746094 C 920.796875 67.074219 920.683594 67.402344 920.464844 67.734375 C 920.242188 67.957031 919.917969 68.175781 919.585938 68.175781 L 913.867188 68.175781 C 913.320312 68.175781 912.769531 67.734375 912.660156 67.183594 C 911.34375 61.140625 907.933594 59.164062 898.917969 59.164062 C 888.808594 59.164062 887.601562 62.679688 887.601562 65.316406 C 887.601562 68.503906 889.027344 69.492188 902.65625 71.25 C 916.179688 73.007812 922.554688 75.535156 922.554688 84.984375 C 922.441406 94.65625 914.527344 100.152344 900.570312 100.152344 Z M 900.570312 100.152344 " fill-opacity="1" fill-rule="nonzero"/></g></svg>