<svg xmlns="http://www.w3.org/2000/svg" xmlns:xlink="http://www.w3.org/1999/xlink" width="1080" zoomAndPan="magnify" viewBox="0 0 810 1439.999935" height="1920" preserveAspectRatio="xMidYMid meet" version="1.0"><defs><clipPath id="ce5d341040"><path d="M 109.554688 627.222656 L 277 627.222656 L 277 812 L 109.554688 812 Z M 109.554688 627.222656 " clip-rule="nonzero"/></clipPath><clipPath id="1fd4e4501e"><path d="M 388 627.222656 L 431 627.222656 L 431 789 L 388 789 Z M 388 627.222656 " clip-rule="nonzero"/></clipPath><clipPath id="e04d8a5193"><path d="M 347 627.222656 L 390 627.222656 L 390 790 L 347 790 Z M 347 627.222656 " clip-rule="nonzero"/></clipPath><clipPath id="8c0a756f53"><path d="M 385 766 L 397 766 L 397 812.472656 L 385 812.472656 Z M 385 766 " clip-rule="nonzero"/></clipPath></defs><rect x="-81" width="972" fill="#ffffff" y="-143.999994" height="1727.999922" fill-opacity="1"/><rect x="-81" width="972" fill="#ffffff" y="-143.999994" height="1727.999922" fill-opacity="1"/><rect x="-81" width="972" fill="#ebebeb" y="-143.999994" height="1727.999922" fill-opacity="1"/><path fill="#00d8ff" d="M 664.453125 688.574219 C 662.386719 687.863281 660.238281 687.1875 658.023438 686.550781 C 658.386719 685.066406 658.722656 683.601562 659.019531 682.164062 C 663.882812 658.535156 660.707031 639.496094 649.832031 633.230469 C 639.402344 627.222656 622.355469 633.488281 605.136719 648.46875 C 603.480469 649.90625 601.816406 651.433594 600.164062 653.03125 C 599.054688 651.972656 597.953125 650.953125 596.851562 649.972656 C 578.804688 633.957031 560.71875 627.207031 549.855469 633.492188 C 539.441406 639.519531 536.355469 657.414062 540.738281 679.808594 C 541.164062 681.972656 541.65625 684.179688 542.214844 686.425781 C 539.65625 687.152344 537.1875 687.925781 534.820312 688.75 C 513.664062 696.125 500.152344 707.679688 500.152344 719.667969 C 500.152344 732.042969 514.65625 744.46875 536.695312 751.996094 C 538.433594 752.589844 540.238281 753.152344 542.097656 753.683594 C 541.492188 756.109375 540.96875 758.488281 540.527344 760.816406 C 536.347656 782.820312 539.613281 800.292969 550 806.277344 C 560.726562 812.464844 578.734375 806.105469 596.269531 790.789062 C 597.65625 789.578125 599.046875 788.289062 600.4375 786.949219 C 602.246094 788.679688 604.050781 790.328125 605.839844 791.871094 C 622.824219 806.480469 639.597656 812.378906 649.972656 806.378906 C 660.691406 800.175781 664.179688 781.402344 659.652344 758.566406 C 659.308594 756.820312 658.902344 755.042969 658.457031 753.230469 C 659.722656 752.855469 660.964844 752.464844 662.175781 752.066406 C 685.085938 744.476562 699.988281 732.214844 699.988281 719.667969 C 699.988281 707.636719 686.039062 696.003906 664.453125 688.574219 Z M 659.488281 743.96875 C 658.394531 744.328125 657.273438 744.679688 656.132812 745.015625 C 653.601562 737.015625 650.191406 728.503906 646.007812 719.707031 C 649.996094 711.125 653.277344 702.722656 655.734375 694.773438 C 657.78125 695.363281 659.761719 695.988281 661.675781 696.644531 C 680.167969 703.007812 691.445312 712.417969 691.445312 719.667969 C 691.445312 727.386719 679.269531 737.414062 659.488281 743.96875 Z M 651.277344 760.222656 C 653.285156 770.320312 653.5625 779.449219 652.238281 786.589844 C 651.050781 793.003906 648.65625 797.28125 645.695312 798.988281 C 639.394531 802.632812 625.929688 797.898438 611.410156 785.402344 C 609.742188 783.96875 608.0625 782.4375 606.382812 780.824219 C 612.011719 774.667969 617.640625 767.511719 623.136719 759.558594 C 632.792969 758.707031 641.917969 757.304688 650.199219 755.390625 C 650.605469 757.039062 650.964844 758.644531 651.277344 760.222656 Z M 568.285156 798.355469 C 562.128906 800.535156 557.230469 800.597656 554.269531 798.886719 C 547.964844 795.25 545.34375 781.222656 548.917969 762.40625 C 549.328125 760.253906 549.816406 758.039062 550.378906 755.773438 C 558.5625 757.585938 567.621094 758.886719 577.304688 759.667969 C 582.835938 767.449219 588.628906 774.597656 594.460938 780.855469 C 593.1875 782.085938 591.914062 783.257812 590.652344 784.359375 C 582.898438 791.140625 575.128906 795.945312 568.285156 798.355469 Z M 539.457031 743.921875 C 529.714844 740.589844 521.667969 736.265625 516.152344 731.539062 C 511.195312 727.300781 508.691406 723.085938 508.691406 719.667969 C 508.691406 712.394531 519.539062 703.113281 537.632812 696.808594 C 539.828125 696.042969 542.128906 695.324219 544.511719 694.644531 C 547.011719 702.777344 550.292969 711.28125 554.253906 719.871094 C 550.242188 728.597656 546.914062 737.234375 544.390625 745.464844 C 542.691406 744.976562 541.042969 744.460938 539.457031 743.921875 Z M 549.121094 678.167969 C 545.363281 658.984375 547.859375 644.511719 554.136719 640.878906 C 560.820312 637.007812 575.605469 642.523438 591.179688 656.355469 C 592.179688 657.238281 593.179688 658.164062 594.1875 659.121094 C 588.378906 665.355469 582.640625 672.449219 577.160156 680.179688 C 567.761719 681.050781 558.765625 682.449219 550.496094 684.324219 C 549.972656 682.234375 549.515625 680.179688 549.121094 678.167969 Z M 635.316406 699.445312 C 633.339844 696.03125 631.308594 692.699219 629.242188 689.457031 C 635.617188 690.261719 641.722656 691.332031 647.460938 692.640625 C 645.742188 698.160156 643.597656 703.925781 641.066406 709.84375 C 639.257812 706.402344 637.335938 702.933594 635.316406 699.445312 Z M 600.164062 665.21875 C 604.105469 669.484375 608.046875 674.246094 611.925781 679.410156 C 608.015625 679.226562 604.058594 679.132812 600.070312 679.132812 C 596.121094 679.132812 592.195312 679.226562 588.308594 679.40625 C 592.1875 674.289062 596.167969 669.535156 600.164062 665.21875 Z M 564.789062 699.507812 C 562.8125 702.929688 560.933594 706.378906 559.148438 709.835938 C 556.660156 703.941406 554.535156 698.148438 552.796875 692.550781 C 558.5 691.273438 564.578125 690.230469 570.914062 689.441406 C 568.816406 692.714844 566.769531 696.070312 564.789062 699.503906 Z M 571.097656 750.5 C 564.550781 749.773438 558.378906 748.78125 552.679688 747.542969 C 554.445312 741.847656 556.617188 735.929688 559.15625 729.90625 C 560.945312 733.363281 562.835938 736.8125 564.820312 740.246094 L 564.824219 740.246094 C 566.847656 743.742188 568.945312 747.160156 571.097656 750.5 Z M 600.398438 774.714844 C 596.355469 770.351562 592.320312 765.519531 588.375 760.332031 C 592.203125 760.480469 596.105469 760.558594 600.070312 760.558594 C 604.144531 760.558594 608.171875 760.464844 612.128906 760.292969 C 608.242188 765.574219 604.308594 770.414062 600.398438 774.714844 Z M 641.144531 729.601562 C 643.816406 735.6875 646.070312 741.574219 647.859375 747.175781 C 642.066406 748.496094 635.804688 749.554688 629.21875 750.351562 C 631.292969 747.066406 633.339844 743.671875 635.355469 740.183594 C 637.390625 736.65625 639.320312 733.121094 641.144531 729.601562 Z M 627.953125 735.921875 C 624.832031 741.339844 621.621094 746.503906 618.367188 751.382812 C 612.441406 751.804688 606.316406 752.019531 600.070312 752.019531 C 593.847656 752.019531 587.800781 751.832031 581.976562 751.453125 C 578.589844 746.511719 575.3125 741.332031 572.210938 735.96875 C 569.113281 730.625 566.265625 725.234375 563.683594 719.871094 C 566.265625 714.503906 569.105469 709.101562 572.183594 703.769531 C 575.269531 698.417969 578.519531 693.261719 581.875 688.347656 C 587.816406 687.898438 593.910156 687.664062 600.070312 687.664062 C 606.261719 687.664062 612.355469 687.902344 618.296875 688.355469 C 621.605469 693.230469 624.832031 698.371094 627.929688 703.722656 C 631.058594 709.132812 633.941406 714.496094 636.539062 719.753906 C 633.949219 725.101562 631.074219 730.515625 627.953125 735.921875 Z M 645.5625 640.621094 C 652.261719 644.480469 654.859375 660.035156 650.652344 680.4375 C 650.386719 681.738281 650.082031 683.066406 649.753906 684.410156 C 641.464844 682.496094 632.464844 681.074219 623.042969 680.191406 C 617.546875 672.375 611.859375 665.265625 606.144531 659.117188 C 607.679688 657.640625 609.21875 656.230469 610.742188 654.902344 C 625.496094 642.066406 639.289062 637 645.5625 640.621094 Z M 600.070312 701.828125 C 609.921875 701.828125 617.914062 709.8125 617.914062 719.667969 C 617.914062 729.515625 609.921875 737.503906 600.070312 737.503906 C 590.21875 737.503906 582.226562 729.515625 582.226562 719.667969 C 582.226562 709.8125 590.21875 701.828125 600.070312 701.828125 Z M 600.070312 701.828125 " fill-opacity="1" fill-rule="nonzero"/><g clip-path="url(#ce5d341040)"><path fill="#8cc84b" d="M 185.804688 629.6875 C 190.417969 627.074219 196.300781 627.0625 200.800781 629.6875 L 269.699219 668.542969 C 274.007812 670.96875 276.894531 675.773438 276.851562 680.742188 L 276.851562 758.652344 C 276.882812 763.828125 273.714844 768.742188 269.167969 771.117188 L 200.640625 809.796875 C 199.46875 810.445312 198.230469 810.925781 196.929688 811.242188 C 195.628906 811.558594 194.308594 811.699219 192.96875 811.660156 C 191.632812 811.625 190.320312 811.410156 189.039062 811.023438 C 187.757812 810.636719 186.550781 810.085938 185.417969 809.375 L 164.851562 797.484375 C 163.449219 796.648438 161.875 795.984375 160.882812 794.628906 C 161.761719 793.453125 163.316406 793.300781 164.585938 792.78125 C 167.449219 791.871094 170.066406 790.472656 172.695312 788.996094 C 173.359375 788.535156 174.171875 788.707031 174.808594 789.125 L 192.34375 799.269531 C 193.597656 799.992188 194.867188 799.039062 195.9375 798.433594 L 263.226562 760.441406 C 264.058594 760.039062 264.519531 759.160156 264.449219 758.25 L 264.449219 681.089844 C 264.542969 680.050781 263.949219 679.105469 263.007812 678.683594 L 194.652344 640.171875 C 194.25 639.894531 193.800781 639.753906 193.3125 639.753906 C 192.820312 639.753906 192.375 639.890625 191.96875 640.167969 L 123.710938 678.757812 C 122.789062 679.179688 122.152344 680.113281 122.269531 681.152344 L 122.269531 758.3125 C 122.1875 759.222656 122.671875 760.082031 123.507812 760.476562 L 141.75 770.777344 C 145.175781 772.625 149.378906 773.664062 153.152344 772.308594 C 153.980469 771.996094 154.738281 771.566406 155.433594 771.023438 C 156.128906 770.480469 156.726562 769.84375 157.226562 769.117188 C 157.726562 768.390625 158.109375 767.605469 158.367188 766.765625 C 158.628906 765.921875 158.757812 765.058594 158.753906 764.175781 L 158.773438 687.480469 C 158.691406 686.339844 159.765625 685.402344 160.867188 685.515625 L 169.632812 685.515625 C 170.789062 685.488281 171.691406 686.710938 171.539062 687.855469 L 171.519531 765.035156 C 171.527344 771.890625 168.710938 779.347656 162.371094 782.710938 C 154.5625 786.75 144.90625 785.902344 137.1875 782.019531 L 117.574219 771.171875 C 112.957031 768.863281 109.859375 763.875 109.890625 758.703125 L 109.890625 680.796875 C 109.898438 679.53125 110.074219 678.285156 110.417969 677.066406 C 110.757812 675.847656 111.253906 674.695312 111.90625 673.609375 C 112.554688 672.523438 113.335938 671.542969 114.25 670.664062 C 115.160156 669.789062 116.175781 669.046875 117.285156 668.441406 Z M 205.667969 683.691406 C 215.632812 683.117188 226.296875 683.3125 235.261719 688.222656 C 242.203125 691.984375 246.050781 699.878906 246.175781 707.601562 C 245.980469 708.640625 244.894531 709.21875 243.902344 709.144531 C 241.019531 709.136719 238.125 709.183594 235.226562 709.125 C 234 709.171875 233.289062 708.039062 233.132812 706.957031 C 232.304688 703.261719 230.289062 699.609375 226.816406 697.824219 C 221.488281 695.152344 215.304688 695.285156 209.488281 695.34375 C 205.242188 695.574219 200.679688 695.9375 197.085938 698.433594 C 194.316406 700.324219 193.488281 704.203125 194.472656 707.214844 C 195.394531 709.425781 197.953125 710.136719 200.035156 710.792969 C 212.042969 713.933594 224.761719 713.679688 236.546875 717.757812 C 241.421875 719.445312 246.191406 722.722656 247.867188 727.828125 C 250.046875 734.675781 249.09375 742.855469 244.230469 748.351562 C 240.285156 752.875 234.539062 755.277344 228.800781 756.671875 C 221.167969 758.375 213.253906 758.417969 205.507812 757.652344 C 198.222656 756.824219 190.644531 754.90625 185.019531 749.945312 C 180.207031 745.765625 177.867188 739.257812 178.097656 732.976562 C 178.152344 731.914062 179.210938 731.175781 180.230469 731.261719 L 188.882812 731.261719 C 190.046875 731.183594 190.902344 732.1875 190.960938 733.285156 C 191.496094 736.746094 192.816406 740.496094 195.886719 742.515625 C 201.804688 746.335938 209.230469 746.070312 216 746.179688 C 221.613281 745.933594 227.914062 745.859375 232.5 742.140625 C 234.921875 740.023438 235.632812 736.484375 234.980469 733.4375 C 234.269531 730.863281 231.519531 729.671875 229.210938 728.820312 C 217.355469 725.070312 204.492188 726.433594 192.753906 722.1875 C 187.988281 720.5 183.378906 717.316406 181.550781 712.414062 C 178.996094 705.488281 180.167969 696.910156 185.550781 691.597656 C 190.742188 686.320312 198.355469 684.28125 205.566406 683.554688 Z M 205.667969 683.691406 " fill-opacity="1" fill-rule="nonzero"/></g><g clip-path="url(#1fd4e4501e)"><path fill="#599636" d="M 388.613281 627.726562 L 393.5625 637.011719 C 394.675781 638.726562 395.882812 640.242188 397.300781 641.65625 C 401.445312 645.792969 405.382812 650.128906 408.917969 654.773438 C 417.304688 665.773438 422.960938 677.988281 427 691.199219 C 429.421875 699.269531 430.738281 707.546875 430.835938 715.917969 C 431.242188 740.945312 422.652344 762.433594 405.335938 780.292969 C 402.507812 783.117188 399.480469 785.734375 396.234375 788.0625 C 394.519531 788.0625 393.707031 786.746094 393 785.535156 C 391.683594 783.320312 390.878906 780.789062 390.472656 778.269531 C 389.867188 775.242188 389.464844 772.214844 389.664062 769.089844 L 389.664062 767.675781 C 389.523438 767.375 388.011719 628.4375 388.613281 627.726562 Z M 388.613281 627.726562 " fill-opacity="1" fill-rule="nonzero"/></g><g clip-path="url(#e04d8a5193)"><path fill="#6cac48" d="M 388.613281 627.421875 C 388.410156 627.015625 388.207031 627.320312 388.003906 627.519531 C 388.101562 629.542969 387.394531 631.351562 386.289062 633.074219 C 385.070312 634.789062 383.460938 636.105469 381.84375 637.515625 C 372.859375 645.285156 365.789062 654.667969 360.125 665.164062 C 352.59375 679.289062 348.707031 694.429688 347.609375 710.367188 C 347.101562 716.113281 349.425781 736.398438 351.242188 742.25 C 356.191406 757.789062 365.082031 770.808594 376.597656 782.109375 C 379.425781 784.832031 382.453125 787.355469 385.582031 789.78125 C 386.492188 789.78125 386.589844 788.96875 386.800781 788.367188 C 387.199219 787.078125 387.503906 785.765625 387.710938 784.429688 L 389.738281 769.296875 Z M 388.613281 627.421875 " fill-opacity="1" fill-rule="nonzero"/></g><g clip-path="url(#8c0a756f53)"><path fill="#c2bfbf" d="M 393.5625 794.207031 C 393.765625 791.894531 394.878906 789.972656 396.089844 788.054688 C 394.871094 787.550781 393.96875 786.550781 393.261719 785.433594 C 392.652344 784.425781 392.148438 783.214844 391.753906 782.105469 C 390.339844 777.867188 390.039062 773.421875 389.632812 769.089844 L 389.632812 766.46875 C 389.128906 766.871094 389.023438 770.300781 389.023438 770.808594 C 388.730469 775.390625 388.121094 779.933594 387.203125 784.429688 C 386.902344 786.25 386.699219 788.0625 385.582031 789.675781 C 385.582031 789.878906 385.582031 790.082031 385.679688 790.382812 C 387.5 795.730469 388 801.179688 388.304688 806.730469 L 388.304688 808.757812 C 388.304688 811.175781 388.207031 810.667969 390.21875 811.476562 C 391.03125 811.777344 391.933594 811.882812 392.746094 812.484375 C 393.355469 812.484375 393.453125 811.980469 393.453125 811.574219 L 393.152344 808.246094 L 393.152344 798.960938 C 393.054688 797.339844 393.355469 795.730469 393.558594 794.214844 Z M 393.5625 794.207031 " fill-opacity="1" fill-rule="nonzero"/></g></svg>