<svg xmlns="http://www.w3.org/2000/svg" xmlns:xlink="http://www.w3.org/1999/xlink" width="1080" zoomAndPan="magnify" viewBox="0 0 810 1439.999935" height="1920" preserveAspectRatio="xMidYMid meet" version="1.0"><defs><clipPath id="8e80da3ad4"><path d="M 438.75 627.222656 L 624 627.222656 L 624 812.472656 L 438.75 812.472656 Z M 438.75 627.222656 " clip-rule="nonzero"/></clipPath><clipPath id="da2390c817"><path d="M 572.941406 691.554688 L 572.875 691.527344 C 572.832031 691.511719 572.796875 691.496094 572.761719 691.460938 C 572.652344 691.34375 572.601562 691.175781 572.628906 691.015625 L 576.359375 668.214844 L 593.863281 685.707031 L 575.65625 693.445312 C 575.605469 693.464844 575.554688 693.476562 575.5 693.472656 L 575.425781 693.472656 C 575.40625 693.460938 575.382812 693.441406 575.332031 693.390625 C 574.652344 692.636719 573.84375 692.015625 572.941406 691.554688 Z M 598.335938 690.164062 L 617.050781 708.859375 C 620.9375 712.753906 622.886719 714.691406 623.59375 716.9375 C 623.703125 717.269531 623.789062 717.601562 623.855469 717.949219 L 579.125 699.019531 C 579.097656 699.011719 579.074219 699 579.054688 698.992188 C 578.871094 698.921875 578.664062 698.835938 578.664062 698.65625 C 578.664062 698.472656 578.878906 698.386719 579.054688 698.3125 L 579.109375 698.289062 Z M 623.089844 723.945312 C 622.128906 725.757812 620.242188 727.644531 617.058594 730.832031 L 595.953125 751.90625 L 568.65625 746.226562 L 568.511719 746.199219 C 568.273438 746.160156 568.011719 746.117188 568.011719 745.902344 C 567.804688 743.625 566.660156 741.546875 564.855469 740.144531 C 564.738281 740.035156 564.769531 739.863281 564.804688 739.703125 C 564.804688 739.671875 564.804688 739.652344 564.8125 739.628906 L 569.949219 708.152344 L 569.964844 708.050781 C 569.992188 707.804688 570.035156 707.523438 570.261719 707.523438 C 572.476562 707.246094 574.492188 706.089844 575.859375 704.3125 C 575.902344 704.269531 575.933594 704.214844 575.988281 704.183594 C 576.140625 704.113281 576.328125 704.183594 576.488281 704.257812 Z M 591.097656 756.753906 L 556.394531 791.417969 L 562.335938 754.949219 L 562.347656 754.902344 C 562.347656 754.855469 562.363281 754.804688 562.378906 754.757812 C 562.421875 754.644531 562.550781 754.59375 562.675781 754.550781 L 562.730469 754.519531 C 564.03125 753.972656 565.179688 753.113281 566.085938 752.027344 C 566.199219 751.898438 566.335938 751.769531 566.515625 751.738281 C 566.566406 751.730469 566.613281 751.730469 566.660156 751.738281 L 591.097656 756.761719 Z M 549.054688 798.753906 L 545.136719 802.660156 L 501.894531 740.230469 C 501.878906 740.207031 501.863281 740.1875 501.847656 740.164062 C 501.78125 740.070312 501.707031 739.976562 501.722656 739.875 C 501.726562 739.796875 501.773438 739.730469 501.828125 739.671875 L 501.875 739.609375 C 502.007812 739.414062 502.117188 739.226562 502.238281 739.015625 L 502.335938 738.851562 L 502.347656 738.835938 C 502.417969 738.71875 502.480469 738.605469 502.59375 738.539062 C 502.699219 738.496094 502.835938 738.511719 502.949219 738.539062 L 550.859375 748.410156 C 550.992188 748.429688 551.121094 748.480469 551.222656 748.566406 C 551.289062 748.632812 551.300781 748.699219 551.316406 748.777344 C 551.996094 751.335938 553.832031 753.429688 556.28125 754.441406 C 556.417969 754.507812 556.359375 754.660156 556.292969 754.816406 C 556.265625 754.890625 556.242188 754.960938 556.222656 755.035156 C 555.621094 758.703125 550.441406 790.242188 549.054688 798.753906 Z M 540.882812 806.910156 C 538 809.765625 536.296875 811.273438 534.375 811.878906 C 532.480469 812.480469 530.449219 812.480469 528.550781 811.878906 C 526.304688 811.164062 524.351562 809.230469 520.464844 805.34375 L 477.039062 761.957031 L 488.382812 744.382812 C 488.4375 744.296875 488.488281 744.21875 488.578125 744.160156 C 488.699219 744.074219 488.871094 744.109375 489.015625 744.160156 C 491.621094 744.941406 494.414062 744.804688 496.925781 743.757812 C 497.058594 743.710938 497.1875 743.675781 497.289062 743.769531 C 497.339844 743.8125 497.386719 743.863281 497.421875 743.921875 L 540.882812 806.917969 Z M 472.851562 757.773438 L 462.890625 747.824219 L 482.5625 739.441406 C 482.613281 739.421875 482.667969 739.40625 482.722656 739.40625 C 482.886719 739.40625 482.984375 739.574219 483.070312 739.71875 C 483.269531 740.019531 483.480469 740.316406 483.699219 740.605469 L 483.761719 740.683594 C 483.820312 740.765625 483.78125 740.851562 483.722656 740.921875 L 472.859375 757.773438 Z M 458.480469 743.417969 L 445.878906 730.832031 C 443.734375 728.683594 442.179688 727.132812 441.097656 725.800781 L 479.421875 733.742188 C 479.46875 733.75 479.515625 733.757812 479.566406 733.765625 C 479.800781 733.800781 480.0625 733.84375 480.0625 734.066406 C 480.0625 734.304688 479.777344 734.421875 479.535156 734.507812 L 479.425781 734.558594 Z M 438.894531 719.328125 C 438.9375 718.511719 439.085938 717.710938 439.328125 716.9375 C 440.042969 714.691406 441.984375 712.753906 445.878906 708.859375 L 462.007812 692.75 C 469.433594 703.519531 476.878906 714.269531 484.347656 725.007812 C 484.476562 725.179688 484.621094 725.375 484.472656 725.519531 C 483.765625 726.292969 483.0625 727.144531 482.5625 728.0625 C 482.511719 728.1875 482.425781 728.289062 482.324219 728.367188 C 482.261719 728.402344 482.191406 728.386719 482.121094 728.375 L 482.109375 728.375 L 438.894531 719.320312 Z M 466.324219 688.4375 L 488.011719 666.773438 C 490.050781 667.667969 497.46875 670.796875 504.101562 673.59375 C 509.125 675.71875 513.703125 677.648438 515.140625 678.273438 C 515.285156 678.332031 515.414062 678.390625 515.480469 678.535156 C 515.515625 678.621094 515.5 678.730469 515.480469 678.824219 C 514.777344 682 515.734375 685.316406 518.007812 687.640625 C 518.152344 687.785156 518.007812 687.992188 517.878906 688.171875 L 517.8125 688.273438 L 495.792969 722.347656 C 495.734375 722.441406 495.679688 722.523438 495.582031 722.585938 C 495.46875 722.660156 495.304688 722.621094 495.167969 722.59375 C 494.3125 722.371094 493.429688 722.246094 492.546875 722.234375 C 491.753906 722.234375 490.894531 722.378906 490.023438 722.535156 L 490.019531 722.535156 C 489.925781 722.550781 489.835938 722.570312 489.761719 722.515625 C 489.675781 722.441406 489.601562 722.363281 489.542969 722.269531 Z M 492.390625 662.398438 L 520.464844 634.351562 C 524.351562 630.46875 526.304688 628.527344 528.550781 627.816406 C 530.449219 627.21875 532.480469 627.21875 534.375 627.816406 C 536.628906 628.527344 538.570312 630.46875 542.457031 634.351562 L 548.542969 640.429688 L 528.578125 671.324219 C 528.527344 671.414062 528.464844 671.492188 528.375 671.554688 C 528.261719 671.636719 528.085938 671.601562 527.941406 671.554688 C 524.75 670.585938 521.28125 671.253906 518.671875 673.339844 C 518.542969 673.472656 518.347656 673.398438 518.183594 673.324219 C 515.574219 672.191406 495.292969 663.628906 492.390625 662.398438 Z M 552.78125 644.667969 L 571.222656 663.085938 L 566.777344 690.570312 L 566.777344 690.640625 C 566.777344 690.707031 566.761719 690.765625 566.742188 690.824219 C 566.691406 690.921875 566.597656 690.941406 566.503906 690.96875 C 565.550781 691.257812 564.652344 691.703125 563.851562 692.289062 C 563.816406 692.3125 563.785156 692.339844 563.757812 692.371094 C 563.707031 692.425781 563.648438 692.480469 563.5625 692.488281 C 563.492188 692.492188 563.425781 692.480469 563.351562 692.457031 L 535.261719 680.53125 L 535.203125 680.507812 C 535.03125 680.433594 534.8125 680.347656 534.8125 680.164062 C 534.648438 678.601562 534.140625 677.09375 533.320312 675.75 C 533.179688 675.527344 533.035156 675.296875 533.152344 675.070312 Z M 533.796875 686.179688 L 560.136719 697.324219 C 560.28125 697.390625 560.441406 697.453125 560.5 697.601562 C 560.527344 697.695312 560.527344 697.789062 560.5 697.878906 C 560.425781 698.265625 560.355469 698.703125 560.355469 699.148438 L 560.355469 699.886719 C 560.355469 700.066406 560.167969 700.144531 559.992188 700.21875 L 559.941406 700.238281 C 555.765625 702.015625 501.363281 725.1875 501.28125 725.1875 C 501.199219 725.1875 501.113281 725.1875 501.03125 725.109375 C 500.886719 724.964844 501.03125 724.761719 501.160156 724.582031 C 501.183594 724.542969 501.207031 724.515625 501.230469 724.480469 L 522.871094 691.003906 L 522.914062 690.945312 C 523.039062 690.742188 523.183594 690.515625 523.414062 690.515625 L 523.628906 690.550781 C 524.121094 690.617188 524.5625 690.679688 524.996094 690.679688 C 528.28125 690.679688 531.324219 689.085938 533.160156 686.355469 C 533.203125 686.28125 533.261719 686.214844 533.324219 686.160156 C 533.457031 686.066406 533.644531 686.113281 533.796875 686.179688 Z M 503.632812 730.492188 L 562.933594 705.226562 C 562.933594 705.226562 563.019531 705.226562 563.105469 705.304688 C 563.425781 705.628906 563.707031 705.847656 563.96875 706.046875 L 564.097656 706.136719 C 564.21875 706.199219 564.34375 706.28125 564.351562 706.402344 C 564.351562 706.453125 564.351562 706.480469 564.34375 706.523438 L 559.261719 737.695312 L 559.242188 737.816406 C 559.207031 738.0625 559.175781 738.335938 558.945312 738.335938 C 556.199219 738.519531 553.714844 740.050781 552.3125 742.417969 L 552.292969 742.460938 C 552.226562 742.570312 552.160156 742.679688 552.054688 742.738281 C 551.953125 742.78125 551.820312 742.765625 551.714844 742.738281 L 504.421875 732.996094 C 504.371094 732.984375 503.6875 730.492188 503.632812 730.492188 Z M 503.632812 730.492188 " clip-rule="nonzero"/></clipPath><radialGradient gradientTransform="matrix(0.999995, 0, 0, 1.000005, 438.894438, 627.367812)" gradientUnits="userSpaceOnUse" r="184.961897" cx="92.480948" id="672f709ff0" cy="-92.480948" fx="92.480948" fy="-92.480948"><stop stop-opacity="1" stop-color="rgb(12.637329%, 77.464294%, 71.82312%)" offset="0"/><stop stop-opacity="1" stop-color="rgb(12.879944%, 77.229309%, 71.865845%)" offset="0.015625"/><stop stop-opacity="1" stop-color="rgb(13.087463%, 77.027893%, 71.902466%)" offset="0.0273438"/><stop stop-opacity="1" stop-color="rgb(13.294983%, 76.826477%, 71.939087%)" offset="0.0390625"/><stop stop-opacity="1" stop-color="rgb(13.500977%, 76.625061%, 71.974182%)" offset="0.0507812"/><stop stop-opacity="1" stop-color="rgb(13.708496%, 76.423645%, 72.010803%)" offset="0.0625"/><stop stop-opacity="1" stop-color="rgb(13.916016%, 76.222229%, 72.047424%)" offset="0.0742188"/><stop stop-opacity="1" stop-color="rgb(14.123535%, 76.020813%, 72.084045%)" offset="0.0859375"/><stop stop-opacity="1" stop-color="rgb(14.331055%, 75.819397%, 72.120667%)" offset="0.0976562"/><stop stop-opacity="1" stop-color="rgb(14.538574%, 75.616455%, 72.155762%)" offset="0.109375"/><stop stop-opacity="1" stop-color="rgb(14.746094%, 75.415039%, 72.192383%)" offset="0.121094"/><stop stop-opacity="1" stop-color="rgb(14.953613%, 75.213623%, 72.229004%)" offset="0.132812"/><stop stop-opacity="1" stop-color="rgb(15.161133%, 75.012207%, 72.265625%)" offset="0.144531"/><stop stop-opacity="1" stop-color="rgb(15.368652%, 74.810791%, 72.302246%)" offset="0.15625"/><stop stop-opacity="1" stop-color="rgb(15.576172%, 74.609375%, 72.337341%)" offset="0.167969"/><stop stop-opacity="1" stop-color="rgb(15.783691%, 74.407959%, 72.373962%)" offset="0.179688"/><stop stop-opacity="1" stop-color="rgb(15.991211%, 74.206543%, 72.410583%)" offset="0.191406"/><stop stop-opacity="1" stop-color="rgb(16.19873%, 74.005127%, 72.447205%)" offset="0.203125"/><stop stop-opacity="1" stop-color="rgb(16.40625%, 73.803711%, 72.483826%)" offset="0.214844"/><stop stop-opacity="1" stop-color="rgb(16.61377%, 73.600769%, 72.518921%)" offset="0.226562"/><stop stop-opacity="1" stop-color="rgb(16.819763%, 73.399353%, 72.555542%)" offset="0.238281"/><stop stop-opacity="1" stop-color="rgb(17.027283%, 73.197937%, 72.592163%)" offset="0.25"/><stop stop-opacity="1" stop-color="rgb(17.303467%, 72.929382%, 72.640991%)" offset="0.261719"/><stop stop-opacity="1" stop-color="rgb(17.649841%, 72.593689%, 72.7005%)" offset="0.28125"/><stop stop-opacity="1" stop-color="rgb(17.996216%, 72.257996%, 72.761536%)" offset="0.300781"/><stop stop-opacity="1" stop-color="rgb(18.341064%, 71.922302%, 72.822571%)" offset="0.320312"/><stop stop-opacity="1" stop-color="rgb(18.687439%, 71.585083%, 72.88208%)" offset="0.339844"/><stop stop-opacity="1" stop-color="rgb(19.032288%, 71.24939%, 72.943115%)" offset="0.359375"/><stop stop-opacity="1" stop-color="rgb(19.343567%, 70.947266%, 72.998047%)" offset="0.378906"/><stop stop-opacity="1" stop-color="rgb(19.619751%, 70.678711%, 73.046875%)" offset="0.394531"/><stop stop-opacity="1" stop-color="rgb(19.897461%, 70.410156%, 73.094177%)" offset="0.410156"/><stop stop-opacity="1" stop-color="rgb(20.173645%, 70.141602%, 73.143005%)" offset="0.425781"/><stop stop-opacity="1" stop-color="rgb(20.449829%, 69.873047%, 73.191833%)" offset="0.441406"/><stop stop-opacity="1" stop-color="rgb(20.726013%, 69.604492%, 73.240662%)" offset="0.457031"/><stop stop-opacity="1" stop-color="rgb(21.003723%, 69.334412%, 73.287964%)" offset="0.472656"/><stop stop-opacity="1" stop-color="rgb(21.279907%, 69.065857%, 73.336792%)" offset="0.488281"/><stop stop-opacity="1" stop-color="rgb(21.522522%, 68.830872%, 73.379517%)" offset="0.503906"/><stop stop-opacity="1" stop-color="rgb(21.730042%, 68.629456%, 73.416138%)" offset="0.515625"/><stop stop-opacity="1" stop-color="rgb(21.937561%, 68.42804%, 73.452759%)" offset="0.527344"/><stop stop-opacity="1" stop-color="rgb(22.143555%, 68.226624%, 73.487854%)" offset="0.539062"/><stop stop-opacity="1" stop-color="rgb(22.351074%, 68.025208%, 73.524475%)" offset="0.550781"/><stop stop-opacity="1" stop-color="rgb(22.558594%, 67.823792%, 73.561096%)" offset="0.5625"/><stop stop-opacity="1" stop-color="rgb(22.766113%, 67.622375%, 73.597717%)" offset="0.574219"/><stop stop-opacity="1" stop-color="rgb(22.973633%, 67.420959%, 73.634338%)" offset="0.585938"/><stop stop-opacity="1" stop-color="rgb(23.181152%, 67.218018%, 73.669434%)" offset="0.597656"/><stop stop-opacity="1" stop-color="rgb(23.388672%, 67.016602%, 73.706055%)" offset="0.609375"/><stop stop-opacity="1" stop-color="rgb(23.596191%, 66.815186%, 73.742676%)" offset="0.621094"/><stop stop-opacity="1" stop-color="rgb(23.872375%, 66.546631%, 73.791504%)" offset="0.632812"/><stop stop-opacity="1" stop-color="rgb(24.21875%, 66.210938%, 73.851013%)" offset="0.652344"/><stop stop-opacity="1" stop-color="rgb(24.563599%, 65.875244%, 73.912048%)" offset="0.671875"/><stop stop-opacity="1" stop-color="rgb(24.874878%, 65.57312%, 73.96698%)" offset="0.691406"/><stop stop-opacity="1" stop-color="rgb(25.151062%, 65.304565%, 74.015808%)" offset="0.707031"/><stop stop-opacity="1" stop-color="rgb(25.427246%, 65.034485%, 74.06311%)" offset="0.722656"/><stop stop-opacity="1" stop-color="rgb(25.704956%, 64.76593%, 74.111938%)" offset="0.738281"/><stop stop-opacity="1" stop-color="rgb(25.947571%, 64.530945%, 74.154663%)" offset="0.753906"/><stop stop-opacity="1" stop-color="rgb(26.15509%, 64.329529%, 74.191284%)" offset="0.765625"/><stop stop-opacity="1" stop-color="rgb(26.36261%, 64.128113%, 74.226379%)" offset="0.777344"/><stop stop-opacity="1" stop-color="rgb(26.568604%, 63.926697%, 74.263%)" offset="0.789062"/><stop stop-opacity="1" stop-color="rgb(26.776123%, 63.725281%, 74.299622%)" offset="0.800781"/><stop stop-opacity="1" stop-color="rgb(26.983643%, 63.523865%, 74.336243%)" offset="0.8125"/><stop stop-opacity="1" stop-color="rgb(27.259827%, 63.25531%, 74.385071%)" offset="0.824219"/><stop stop-opacity="1" stop-color="rgb(27.606201%, 62.918091%, 74.44458%)" offset="0.84375"/><stop stop-opacity="1" stop-color="rgb(27.91748%, 62.615967%, 74.499512%)" offset="0.863281"/><stop stop-opacity="1" stop-color="rgb(28.160095%, 62.380981%, 74.542236%)" offset="0.878906"/><stop stop-opacity="1" stop-color="rgb(28.367615%, 62.179565%, 74.578857%)" offset="0.890625"/><stop stop-opacity="1" stop-color="rgb(28.575134%, 61.978149%, 74.613953%)" offset="0.902344"/><stop stop-opacity="1" stop-color="rgb(28.851318%, 61.709595%, 74.662781%)" offset="0.914062"/><stop stop-opacity="1" stop-color="rgb(29.161072%, 61.407471%, 74.717712%)" offset="0.933594"/><stop stop-opacity="1" stop-color="rgb(29.403687%, 61.172485%, 74.760437%)" offset="0.949219"/><stop stop-opacity="1" stop-color="rgb(29.679871%, 60.902405%, 74.807739%)" offset="0.960938"/><stop stop-opacity="1" stop-color="rgb(30.026245%, 60.566711%, 74.868774%)" offset="0.980469"/><stop stop-opacity="1" stop-color="rgb(30.198669%, 60.398865%, 74.899292%)" offset="1"/></radialGradient><clipPath id="402fbd5fa8"><path d="M 185.695312 627.222656 L 370.945312 627.222656 L 370.945312 812.472656 L 185.695312 812.472656 Z M 185.695312 627.222656 " clip-rule="nonzero"/></clipPath></defs><rect x="-81" width="972" fill="#ffffff" y="-143.999994" height="1727.999922" fill-opacity="1"/><rect x="-81" width="972" fill="#ebebeb" y="-143.999994" height="1727.999922" fill-opacity="1"/><g clip-path="url(#8e80da3ad4)"><g clip-path="url(#da2390c817)"><path fill="url(#672f709ff0)" d="M 438.894531 627.222656 L 438.894531 812.472656 L 623.855469 812.472656 L 623.855469 627.222656 Z M 438.894531 627.222656 " fill-rule="nonzero"/></g></g><g clip-path="url(#402fbd5fa8)"><path fill="#f03c2e" d="M 367.449219 711.597656 L 286.570312 630.71875 C 286.015625 630.164062 285.414062 629.671875 284.765625 629.234375 C 284.113281 628.800781 283.425781 628.433594 282.703125 628.132812 C 281.976562 627.832031 281.230469 627.605469 280.464844 627.453125 C 279.695312 627.300781 278.917969 627.226562 278.136719 627.226562 C 277.351562 627.226562 276.578125 627.300781 275.808594 627.453125 C 275.039062 627.605469 274.296875 627.832031 273.570312 628.132812 C 272.847656 628.433594 272.160156 628.800781 271.507812 629.234375 C 270.859375 629.671875 270.253906 630.164062 269.703125 630.71875 L 252.914062 647.507812 L 274.21875 668.8125 C 279.171875 667.074219 284.847656 668.261719 288.792969 672.210938 C 289.734375 673.152344 290.527344 674.203125 291.167969 675.367188 C 291.8125 676.53125 292.28125 677.761719 292.582031 679.058594 C 292.878906 680.355469 292.992188 681.667969 292.917969 682.996094 C 292.847656 684.324219 292.59375 685.617188 292.15625 686.875 L 312.691406 707.40625 C 317.660156 705.695312 323.390625 706.800781 327.355469 710.777344 C 328.015625 711.4375 328.605469 712.152344 329.121094 712.929688 C 329.640625 713.703125 330.078125 714.523438 330.433594 715.382812 C 330.792969 716.246094 331.0625 717.132812 331.242188 718.046875 C 331.425781 718.960938 331.515625 719.886719 331.515625 720.820312 C 331.515625 721.75 331.425781 722.675781 331.246094 723.589844 C 331.0625 724.503906 330.792969 725.390625 330.4375 726.253906 C 330.078125 727.117188 329.640625 727.933594 329.125 728.710938 C 328.605469 729.484375 328.015625 730.203125 327.355469 730.859375 C 326.699219 731.519531 325.980469 732.109375 325.203125 732.628906 C 324.429688 733.144531 323.609375 733.582031 322.75 733.9375 C 321.886719 734.296875 321 734.566406 320.085938 734.746094 C 319.167969 734.929688 318.246094 735.019531 317.3125 735.019531 C 316.378906 735.019531 315.457031 734.925781 314.542969 734.746094 C 313.628906 734.5625 312.738281 734.292969 311.878906 733.933594 C 311.015625 733.578125 310.199219 733.140625 309.425781 732.621094 C 308.648438 732.101562 307.933594 731.511719 307.273438 730.851562 C 303.105469 726.683594 302.074219 720.546875 304.179688 715.414062 L 285.03125 696.261719 L 285.03125 746.65625 C 286.429688 747.351562 287.683594 748.246094 288.792969 749.34375 C 289.453125 750.003906 290.042969 750.71875 290.558594 751.496094 C 291.078125 752.269531 291.515625 753.089844 291.871094 753.949219 C 292.226562 754.808594 292.496094 755.699219 292.679688 756.613281 C 292.859375 757.527344 292.953125 758.449219 292.953125 759.382812 C 292.953125 760.3125 292.859375 761.238281 292.679688 762.152344 C 292.496094 763.066406 292.226562 763.953125 291.871094 764.8125 C 291.515625 765.675781 291.078125 766.492188 290.558594 767.269531 C 290.042969 768.042969 289.453125 768.761719 288.792969 769.421875 C 288.136719 770.078125 287.417969 770.667969 286.644531 771.183594 C 285.867188 771.703125 285.050781 772.140625 284.1875 772.496094 C 283.328125 772.855469 282.441406 773.125 281.527344 773.304688 C 280.609375 773.488281 279.6875 773.578125 278.757812 773.578125 C 277.824219 773.578125 276.902344 773.488281 275.988281 773.304688 C 275.070312 773.125 274.183594 772.855469 273.324219 772.496094 C 272.460938 772.140625 271.644531 771.703125 270.867188 771.183594 C 270.09375 770.667969 269.375 770.078125 268.71875 769.421875 C 268.058594 768.761719 267.46875 768.042969 266.949219 767.269531 C 266.429688 766.496094 265.992188 765.675781 265.636719 764.816406 C 265.277344 763.953125 265.007812 763.066406 264.828125 762.152344 C 264.644531 761.238281 264.554688 760.3125 264.554688 759.382812 C 264.554688 758.449219 264.644531 757.527344 264.828125 756.613281 C 265.007812 755.695312 265.277344 754.808594 265.636719 753.949219 C 265.992188 753.085938 266.429688 752.269531 266.949219 751.492188 C 267.46875 750.71875 268.058594 750.003906 268.71875 749.34375 C 270.089844 747.976562 271.613281 746.941406 273.367188 746.246094 L 273.367188 695.382812 C 271.675781 694.6875 270.089844 693.664062 268.71875 692.285156 C 268.222656 691.792969 267.765625 691.261719 267.347656 690.699219 C 266.929688 690.136719 266.558594 689.546875 266.226562 688.929688 C 265.898438 688.3125 265.617188 687.671875 265.378906 687.011719 C 265.144531 686.351562 264.960938 685.679688 264.824219 684.992188 C 264.6875 684.304688 264.605469 683.609375 264.574219 682.910156 C 264.539062 682.210938 264.558594 681.511719 264.628906 680.816406 C 264.699219 680.121094 264.824219 679.433594 264.996094 678.753906 C 265.167969 678.074219 265.390625 677.410156 265.660156 676.765625 L 244.648438 655.761719 L 189.1875 711.164062 C 188.632812 711.71875 188.136719 712.320312 187.703125 712.972656 C 187.265625 713.625 186.898438 714.3125 186.597656 715.035156 C 186.296875 715.757812 186.070312 716.503906 185.917969 717.273438 C 185.765625 718.042969 185.691406 718.820312 185.691406 719.601562 C 185.691406 720.386719 185.765625 721.160156 185.917969 721.929688 C 186.070312 722.699219 186.296875 723.445312 186.597656 724.167969 C 186.898438 724.894531 187.265625 725.582031 187.703125 726.230469 C 188.136719 726.882812 188.632812 727.484375 189.1875 728.039062 L 270.074219 808.914062 C 270.625 809.46875 271.226562 809.960938 271.878906 810.398438 C 272.53125 810.832031 273.21875 811.199219 273.941406 811.5 C 274.664062 811.800781 275.410156 812.027344 276.179688 812.179688 C 276.949219 812.332031 277.722656 812.40625 278.507812 812.40625 C 279.289062 812.40625 280.066406 812.332031 280.835938 812.179688 C 281.601562 812.027344 282.347656 811.800781 283.070312 811.5 C 283.796875 811.199219 284.484375 810.832031 285.132812 810.398438 C 285.785156 809.960938 286.386719 809.46875 286.941406 808.914062 L 367.449219 728.53125 C 368.003906 727.976562 368.5 727.375 368.933594 726.722656 C 369.371094 726.074219 369.738281 725.386719 370.039062 724.660156 C 370.339844 723.9375 370.566406 723.191406 370.71875 722.421875 C 370.871094 721.652344 370.949219 720.878906 370.949219 720.09375 C 370.949219 719.3125 370.871094 718.535156 370.71875 717.765625 C 370.566406 716.996094 370.339844 716.25 370.039062 715.527344 C 369.738281 714.804688 369.371094 714.117188 368.933594 713.464844 C 368.5 712.8125 368.003906 712.210938 367.449219 711.65625 " fill-opacity="1" fill-rule="nonzero"/></g></svg>