<svg xmlns="http://www.w3.org/2000/svg" xmlns:xlink="http://www.w3.org/1999/xlink" width="1080" zoomAndPan="magnify" viewBox="0 0 810 1439.999935" height="1920" preserveAspectRatio="xMidYMid meet" version="1.0"><defs><clipPath id="ef252b6265"><path d="M 438.75 627.222656 L 624 627.222656 L 624 812.472656 L 438.75 812.472656 Z M 438.75 627.222656 " clip-rule="nonzero"/></clipPath></defs><rect x="-81" width="972" fill="#ffffff" y="-143.999994" height="1727.999922" fill-opacity="1"/><rect x="-81" width="972" fill="#ebebeb" y="-143.999994" height="1727.999922" fill-opacity="1"/><path fill="#cf649a" d="M 337.578125 734.402344 C 329.34375 734.453125 322.214844 736.425781 316.234375 739.367188 C 314.027344 735 311.820312 731.1875 311.453125 728.339844 C 311.035156 725.03125 310.53125 723.007812 311.035156 719.058594 C 311.539062 715.105469 313.84375 709.5 313.84375 709.042969 C 313.800781 708.625 313.335938 706.605469 308.601562 706.5625 C 303.867188 706.515625 299.769531 707.480469 299.3125 708.722656 C 298.488281 711.019531 297.828125 713.363281 297.332031 715.753906 C 296.503906 720.074219 287.855469 735.375 282.933594 743.417969 C 281.320312 740.292969 279.941406 737.535156 279.667969 735.332031 C 279.25 732.023438 278.746094 730 279.25 726.050781 C 279.753906 722.097656 282.058594 716.492188 282.058594 716.035156 C 282.015625 715.617188 281.550781 713.597656 276.816406 713.550781 C 272.078125 713.507812 267.984375 714.472656 267.523438 715.714844 C 267.0625 716.957031 266.554688 719.894531 265.542969 722.746094 C 264.578125 725.59375 253.078125 751.140625 250.089844 757.800781 C 248.570312 761.203125 247.238281 763.914062 246.273438 765.753906 C 245.304688 767.589844 246.226562 765.894531 246.136719 766.078125 L 244.847656 768.511719 L 244.847656 768.558594 C 244.203125 769.707031 243.511719 770.8125 243.191406 770.8125 C 242.964844 770.8125 242.5 767.730469 243.285156 763.503906 C 244.988281 754.632812 249.128906 740.804688 249.078125 740.300781 C 249.078125 740.070312 249.863281 737.632812 246.410156 736.390625 C 243.050781 735.148438 241.855469 737.21875 241.582031 737.21875 C 241.304688 737.21875 241.074219 737.953125 241.074219 737.953125 C 241.074219 737.953125 244.800781 722.378906 233.941406 722.378906 C 227.136719 722.378906 217.753906 729.777344 213.105469 736.527344 L 189.644531 749.347656 L 189.136719 748.796875 C 175.992188 734.769531 151.660156 724.847656 152.671875 706.011719 C 153.039062 699.164062 155.429688 681.105469 199.398438 659.234375 C 235.414062 641.316406 264.257812 646.230469 269.273438 657.164062 C 276.402344 672.785156 253.863281 701.824219 216.421875 706.011719 C 202.164062 707.625 194.664062 702.105469 192.777344 700.039062 C 190.796875 697.878906 190.519531 697.789062 189.785156 698.203125 C 188.589844 698.847656 189.324219 700.777344 189.785156 701.925781 C 190.890625 704.824219 195.488281 709.96875 203.308594 712.542969 C 210.164062 714.792969 226.902344 716.035156 247.144531 708.222656 C 269.820312 699.445312 287.527344 675.09375 282.332031 654.742188 C 277.039062 634.019531 242.636719 627.21875 210.113281 638.753906 C 190.753906 645.636719 169.816406 656.386719 154.730469 670.492188 C 136.757812 687.214844 133.90625 701.832031 135.097656 707.894531 C 139.285156 729.539062 169.132812 743.644531 181.089844 754.074219 L 179.433594 754.996094 C 173.457031 757.933594 150.6875 769.835938 144.984375 782.425781 C 138.546875 796.667969 145.996094 806.914062 150.964844 808.292969 C 166.324219 812.570312 182.054688 804.894531 190.566406 792.257812 C 199.027344 779.621094 198.015625 763.21875 194.109375 755.730469 L 193.96875 755.453125 L 198.660156 752.699219 C 201.695312 750.902344 204.6875 749.25 207.308594 747.828125 C 205.835938 751.828125 204.777344 756.558594 204.222656 763.449219 C 203.578125 771.535156 206.890625 782.011719 211.261719 786.148438 C 213.195312 787.941406 215.492188 787.988281 216.921875 787.988281 C 221.980469 787.988281 224.28125 783.804688 226.8125 778.796875 C 229.9375 772.683594 232.699219 765.609375 232.699219 765.609375 C 232.699219 765.609375 229.246094 784.769531 238.675781 784.769531 C 242.128906 784.769531 245.578125 780.3125 247.140625 778.015625 L 247.140625 778.058594 C 247.140625 778.058594 247.230469 777.917969 247.417969 777.597656 C 247.785156 777.046875 247.96875 776.726562 247.96875 776.726562 L 247.96875 776.632812 C 249.347656 774.242188 252.429688 768.773438 257.03125 759.726562 C 262.964844 748.054688 268.667969 733.445312 268.667969 733.445312 C 268.667969 733.445312 269.21875 737.027344 270.925781 742.910156 C 271.9375 746.402344 274.144531 750.214844 275.847656 753.9375 L 273.640625 756.96875 L 273.683594 757.015625 C 272.507812 758.574219 271.292969 760.105469 270.046875 761.609375 C 265.355469 767.214844 259.746094 773.605469 259.011719 775.441406 C 258.132812 777.601562 258.316406 779.210938 260.023438 780.496094 C 261.265625 781.414062 263.472656 781.597656 265.816406 781.414062 C 270.046875 781.140625 272.992188 780.082031 274.464844 779.4375 C 277.132812 778.488281 279.617188 777.183594 281.914062 775.53125 C 286.511719 772.128906 289.320312 767.304688 289.046875 760.871094 C 288.90625 757.332031 287.757812 753.839844 286.328125 750.53125 L 287.574219 748.695312 C 294.839844 738.078125 300.453125 726.410156 300.453125 726.410156 C 300.453125 726.410156 301.003906 729.992188 302.707031 735.875 C 303.582031 738.863281 305.332031 742.121094 306.894531 745.339844 C 300.085938 750.898438 295.808594 757.332031 294.335938 761.558594 C 291.621094 769.371094 293.734375 772.910156 297.738281 773.738281 C 299.535156 774.105469 302.109375 773.277344 304.042969 772.449219 C 306.433594 771.667969 309.332031 770.335938 312 768.359375 C 316.601562 764.960938 321.015625 760.226562 320.789062 753.839844 C 320.648438 750.898438 319.867188 748.003906 318.808594 745.246094 C 324.601562 742.859375 332.101562 741.480469 341.621094 742.625 C 362.089844 745.015625 366.136719 757.789062 365.351562 763.117188 C 364.570312 768.445312 360.292969 771.386719 358.867188 772.304688 C 357.4375 773.179688 356.976562 773.5 357.117188 774.144531 C 357.300781 775.109375 357.945312 775.0625 359.1875 774.878906 C 360.894531 774.605469 369.953125 770.511719 370.320312 760.679688 C 370.871094 748.042969 358.867188 734.261719 337.574219 734.398438 Z M 179.714844 787.570312 C 172.953125 794.96875 163.433594 797.769531 159.386719 795.382812 C 155.015625 792.851562 156.71875 781.964844 165.046875 774.109375 C 170.105469 769.328125 176.683594 764.917969 181.007812 762.207031 L 185.195312 759.675781 C 185.46875 759.492188 185.652344 759.402344 185.652344 759.402344 C 185.976562 759.21875 186.34375 758.984375 186.714844 758.757812 C 189.796875 769.96875 186.851562 779.800781 179.722656 787.566406 Z M 229.167969 753.984375 C 226.820312 759.730469 221.851562 774.476562 218.863281 773.648438 C 216.289062 772.957031 214.722656 761.792969 218.355469 750.765625 C 220.195312 745.203125 224.105469 738.585938 226.40625 736.015625 C 230.132812 731.878906 234.179688 730.5 235.191406 732.199219 C 236.390625 734.402344 230.636719 750.394531 229.167969 753.980469 Z M 269.964844 773.464844 C 268.953125 773.972656 268.03125 774.339844 267.617188 774.0625 C 267.292969 773.878906 268.03125 773.1875 268.03125 773.1875 C 268.03125 773.1875 273.140625 767.71875 275.164062 765.195312 L 279.164062 760.09375 L 279.164062 760.644531 C 279.164062 767.261719 272.820312 771.671875 269.96875 773.464844 Z M 301.421875 766.296875 C 300.6875 765.746094 300.777344 764.042969 303.261719 758.714844 C 304.230469 756.601562 306.4375 753.0625 310.253906 749.710938 C 310.714844 751.085938 310.988281 752.421875 310.945312 753.660156 C 310.898438 761.929688 305.011719 765.011719 301.421875 766.296875 Z M 301.421875 766.296875 " fill-opacity="1" fill-rule="nonzero"/><g clip-path="url(#ef252b6265)"><path fill="#563d7c" d="M 438.75 788.585938 C 438.75 801.777344 449.445312 812.472656 462.636719 812.472656 L 600.113281 812.472656 C 613.304688 812.472656 624 801.777344 624 788.585938 L 624 651.109375 C 624 637.917969 613.304688 627.222656 600.113281 627.222656 L 462.636719 627.222656 C 449.441406 627.222656 438.75 637.917969 438.75 651.109375 Z M 438.75 788.585938 " fill-opacity="1" fill-rule="nonzero"/></g><path fill="#ffffff" d="M 515.570312 709.167969 L 515.570312 682.933594 L 538.660156 682.933594 C 540.863281 682.933594 542.980469 683.117188 545.023438 683.480469 C 547.0625 683.847656 548.871094 684.503906 550.441406 685.445312 C 552.011719 686.386719 553.273438 687.699219 554.210938 689.371094 C 555.152344 691.046875 555.625 693.195312 555.625 695.8125 C 555.625 700.527344 554.210938 703.929688 551.382812 706.027344 C 548.5625 708.117188 544.941406 709.167969 540.542969 709.167969 Z M 490.90625 663.765625 L 490.90625 775.929688 L 545.261719 775.929688 C 550.285156 775.929688 555.183594 775.300781 559.945312 774.042969 C 564.710938 772.789062 568.953125 770.851562 572.671875 768.230469 C 576.390625 765.609375 579.34375 762.238281 581.542969 758.101562 C 583.746094 753.960938 584.84375 749.070312 584.84375 743.410156 C 584.84375 736.398438 583.144531 730.398438 579.742188 725.425781 C 576.335938 720.449219 571.183594 716.96875 564.265625 714.976562 C 569.292969 712.570312 573.09375 709.480469 575.652344 705.707031 C 578.222656 701.9375 579.503906 697.226562 579.503906 691.570312 C 579.503906 686.335938 578.644531 681.9375 576.914062 678.375 C 575.183594 674.816406 572.753906 671.960938 569.613281 669.816406 C 566.464844 667.667969 562.695312 666.125 558.300781 665.179688 C 553.902344 664.238281 549.03125 663.765625 543.691406 663.765625 Z M 515.570312 756.769531 L 515.570312 725.976562 L 542.433594 725.976562 C 547.773438 725.976562 552.0625 727.207031 555.3125 729.667969 C 558.5625 732.128906 560.183594 736.238281 560.183594 742 C 560.183594 744.929688 559.683594 747.339844 558.691406 749.226562 C 557.695312 751.109375 556.363281 752.601562 554.683594 753.699219 C 553.011719 754.800781 551.070312 755.589844 548.871094 756.058594 C 546.671875 756.53125 544.371094 756.769531 541.960938 756.769531 Z M 515.570312 756.769531 " fill-opacity="1" fill-rule="nonzero"/></svg>