<svg xmlns="http://www.w3.org/2000/svg" viewBox="0 0 169.87 169.87"><defs><style>.cls-1{fill:#b1deef;}.cls-2{fill:#ceeaf6;}.cls-3{fill:#cdeaf6;}.cls-4{fill:#b2dff0;}.cls-5{fill:#cce9f5;}.cls-6{fill:#bfe4f2;}.cls-7{fill:#c5e6f4;}.cls-8{fill:#b8e1f1;}</style></defs><g id="Capa_2" data-name="Capa 2"><g id="Capa_1-2" data-name="Capa 1"><path class="cls-1" d="M35,64.34c-1.28.24-2.56.52-3.82.84H35Z"/><path class="cls-1" d="M.38,116.39A23.72,23.72,0,0,1,2,114a12.28,12.28,0,0,1,3.92-3.28c1.26-.67,2.6-1.16,3.91-1.72a17,17,0,0,0,3.41-2V96.76h6c.14-.44.27-.89.4-1.34a32.6,32.6,0,0,1,2.47-6.53,14.38,14.38,0,0,1,6.08-6.08,15.25,15.25,0,0,1,5.21-1.65,19.57,19.57,0,0,1,2.17,0,26.37,26.37,0,0,1,6.5.75,13.2,13.2,0,0,0,3.48.46,16,16,0,0,0,6-1.41,63.92,63.92,0,0,0,7.92-4.83c.36-.23.71-.47,1.06-.71V59.46H56.93V58.28a42.05,42.05,0,0,1-5.28,2.45,6.29,6.29,0,0,1,.22,1.59H49.59a2.73,2.73,0,0,0-.12-.83c-.24.07-.49.17-.74.24-1.35.4-2.73.71-4.11,1a2.78,2.78,0,0,0,.17.73,3.31,3.31,0,0,0,.52.9,3.24,3.24,0,0,0,.79.6,2.13,2.13,0,0,0,1,.23A4.25,4.25,0,0,1,49,65.6a4.7,4.7,0,0,1,1.51,1.16,5.46,5.46,0,0,1,1,1.73,6.34,6.34,0,0,1,0,4.27,5.34,5.34,0,0,1-1,1.75A4.7,4.7,0,0,1,49,75.67a4.37,4.37,0,0,1-3.74,0,4.57,4.57,0,0,1-1.53-1.16,5.34,5.34,0,0,1-1-1.75,6,6,0,0,1-.37-2.13h2.28a2.85,2.85,0,0,0,.2,1.13,3.31,3.31,0,0,0,.52.9,3,3,0,0,0,.79.6,2.25,2.25,0,0,0,2,0,3,3,0,0,0,.79-.6,3.6,3.6,0,0,0,.52-.9,2.85,2.85,0,0,0,.2-1.13,2.92,2.92,0,0,0-.2-1.13,3.72,3.72,0,0,0-.52-.89,3,3,0,0,0-.79-.6,2,2,0,0,0-1-.23,4.22,4.22,0,0,1-1.86-.42A4.7,4.7,0,0,1,43.7,66.2a5.34,5.34,0,0,1-1-1.75,5.8,5.8,0,0,1-.3-1.31c-1.46.23-2.92.5-4.38.7-.24,0-.46.09-.7.12V76.09H35V67.78H30v8.31H27.75V66.31a35.86,35.86,0,0,0-5,2.44A44.94,44.94,0,0,0,18,72c-.85.66-1.68,1.36-2.49,2.07v2H13.33c-.52.5-1.06,1-1.57,1.5-1.49,1.54-2.88,3.18-4.21,4.86a55.57,55.57,0,0,0-4.49,6.6A44.2,44.2,0,0,0,.41,94.39c-.1.23-.16.48-.41.6v21.74C.22,116.72.29,116.54.38,116.39Z"/><path class="cls-1" d="M15.46,104.84a18.44,18.44,0,0,0,1.5-2.39,26.77,26.77,0,0,0,1.37-3.1H15.46Z"/><path class="cls-1" d="M162.78,11.83c-1.21.06-2.41.27-3.61.45a31.76,31.76,0,0,1-3.22.38c-.79,0-1.57.14-2.36.11-1.38,0-2.75-.11-4.12-.25-.63-.06-1.26-.11-1.89-.12-.86,0-1.71-.13-2.56-.2a17.38,17.38,0,0,1-2.15-.21,14.57,14.57,0,0,0-1.75-.14,78.52,78.52,0,0,1-8.76-1.22c-2.16-.42-4.33-.85-6.51-1.21q-1.39-.22-2.82-.33c-1.43-.11-2.88-.18-4.31-.29-1-.07-1.94-.08-2.91-.1a26.25,26.25,0,0,0-3.31-.13c-1.22.11-2.43.1-3.64.24l-2.55.27c-1.17.14-2.32.34-3.47.59a48.23,48.23,0,0,0-6.36,1.63,27.84,27.84,0,0,0-6.33,3.07,17.16,17.16,0,0,0-2.22,1.76,19.06,19.06,0,0,0-1.82,2.09,18.11,18.11,0,0,0-2.89,5.5,28.4,28.4,0,0,0-1,4.47,11.14,11.14,0,0,0,1,5.87c.63,1.52,1.38,3,2.09,4.48a6.53,6.53,0,0,1,.78,3,2.06,2.06,0,0,1-1.4,1.95,4.4,4.4,0,0,1-3.34-.26,4.67,4.67,0,0,1-2.6-3,31.62,31.62,0,0,1-.86-3.35,36.51,36.51,0,0,0-1.61-5.38,39.32,39.32,0,0,0-2.09-4.34c-.87-1.58-1.82-3.12-2.66-4.71a12.44,12.44,0,0,1-1.6-6.78,8.64,8.64,0,0,1,.82-3.06,18.2,18.2,0,0,1,2.78-4.39A26.54,26.54,0,0,1,79.82,3,33.9,33.9,0,0,1,85.63.29,1.11,1.11,0,0,0,86.16,0H65.23a2.38,2.38,0,0,1-.49.56c-1.07,1.07-2.18,2.11-3.21,3.22A31,31,0,0,0,56.79,10a17.38,17.38,0,0,0-2,5.66,19.19,19.19,0,0,0-.06,4.79,29.41,29.41,0,0,0,2.51,9,30.68,30.68,0,0,0,4.1,7.08c.94,1.21,1.93,2.38,2.87,3.6a13,13,0,0,1,2.12,3.76,7,7,0,0,1,.2,3.8,12.34,12.34,0,0,1-3.25,6,21.4,21.4,0,0,1-4,3.21H66.4v2.59H62.79V73.88l1.92-1.27a14.16,14.16,0,0,1,4.73-2.14,7.77,7.77,0,0,1,6.61,1.36,9.35,9.35,0,0,1,2.44,2.79,55.08,55.08,0,0,1,3,6.32,60.71,60.71,0,0,0,2.71,5.85,25.73,25.73,0,0,0,3.24,4.66,25.08,25.08,0,0,0,6,5,19.73,19.73,0,0,0,6.84,2.51,22.69,22.69,0,0,0,4.94.13,34.25,34.25,0,0,0,5.59-1,15.67,15.67,0,0,1,4.09-.47,9,9,0,0,1,6.3,2.58,9.51,9.51,0,0,1,2.14,3.66,27.13,27.13,0,0,1,1.21,5.41c.17,1.29.33,2.59.42,3.89s.17,2.56.26,3.85a34.67,34.67,0,0,0,2,10.32,14.36,14.36,0,0,0,3.23,5.2,13.83,13.83,0,0,0,3,2.13c1.26.72,2.56,1.34,3.84,2h2v1.16a14.54,14.54,0,0,1,2.41,1.73,10.48,10.48,0,0,1,2.82,5,18.69,18.69,0,0,1,.52,6.18,17.29,17.29,0,0,1-1.22,5.67,14.41,14.41,0,0,1-1.81,3c-1,1.38-2.17,2.65-3.28,4a12.82,12.82,0,0,0-2.83,5.49,5.73,5.73,0,0,0-.08,1h9c.41-1.05.83-2.1,1.23-3.15,1-2.69,2-5.39,2.72-8.17a50.21,50.21,0,0,0,1.17-5.55,8.48,8.48,0,0,0,.18-1.95c0-.61.16-1.2.14-1.82a23.92,23.92,0,0,0-1.85-9.23,29.16,29.16,0,0,0-3.16-5.53,43,43,0,0,1-3-4.37,8.76,8.76,0,0,1-1-3.07,7.57,7.57,0,0,1,1.89-6,13.44,13.44,0,0,1,4-3.23c1.55-.89,3.15-1.69,4.7-2.57a40,40,0,0,0,6.11-4.13q1.83-1.56,3.53-3.27a13.53,13.53,0,0,0,3.79-7.27,16.23,16.23,0,0,0,.27-4.11c-.16-1.79-.31-3.59-.62-5.36s-.59-3.24-.83-4.86a21.39,21.39,0,0,1-.3-4.73,32.74,32.74,0,0,1,.61-3.93,22.77,22.77,0,0,1,2-5.67,14.75,14.75,0,0,1,2.24-3.46c.27-.3.51-.63.8-.91a.66.66,0,0,1,.46-.26V48.92c-.64.07-1.21.37-1.83.5a12.83,12.83,0,0,1-3.54.45,8.11,8.11,0,0,1-5.71-2.45,9.42,9.42,0,0,1-1.87-3.19c-.5-1.31-.82-2.68-1.25-4a15.4,15.4,0,0,0-2.91-5.31,15,15,0,0,0-2.32-2.18c-1.11-.88-2.25-1.73-3.43-2.53a16.22,16.22,0,0,0-6.71-2.58,25.48,25.48,0,0,0-4.54-.15,26.1,26.1,0,0,0-7.39,1.11,51.93,51.93,0,0,0-5.62,2.2,46.2,46.2,0,0,1-6.53,2.44,15.77,15.77,0,0,1-5.29.62,8.46,8.46,0,0,1-4.47-1.77,13.48,13.48,0,0,1-1.83-1.71,2.36,2.36,0,0,0-2.55-.64,8.32,8.32,0,0,0-3.47,1.92,10.64,10.64,0,0,0-1.39,1.46,4.39,4.39,0,0,0-.65,4.18A15.06,15.06,0,0,1,97,38.76a13.68,13.68,0,0,1-.19,5.37c-.47,2-1,4-1.45,6,0,.11-.07.22-.11.33s-.16.4-.41.34a.43.43,0,0,1-.35-.51c.15-1.14,0-2.3.08-3.45A4.82,4.82,0,0,0,92.86,43a14,14,0,0,1-2.61-2.83A8.08,8.08,0,0,1,89.13,37a12.31,12.31,0,0,1,.46-4.4,14.44,14.44,0,0,1,1.46-3.79,14,14,0,0,1,2.34-3.22,13.28,13.28,0,0,1,4.46-2.79,17.36,17.36,0,0,1,4.13-1,14,14,0,0,1,2.15-.18c1.27,0,2.54,0,3.81,0s2.37.19,3.56.33l2.61.34,2.55.31c.71.1,1.43.14,2.14.25,1,.14,2,0,3,.23a2.53,2.53,0,0,0,.55,0h4a36.72,36.72,0,0,0,3.78-.25c.58-.06,1.17-.07,1.75-.13,1.44-.16,2.86-.38,4.28-.64,2.77-.5,5.52-1.14,8.28-1.67a28.88,28.88,0,0,1,7-.57,13.86,13.86,0,0,1,3.18.67,24.18,24.18,0,0,1,7.92,4.32,25.3,25.3,0,0,1,2,1.73A20.41,20.41,0,0,1,168,31.07a21.57,21.57,0,0,1,1.56,3.16c.07.17.12.34.3.42V13.59a14,14,0,0,1-1.74-.75A12.47,12.47,0,0,0,162.78,11.83Zm-57,45.61a14.17,14.17,0,0,1,1.06-4.32,13.43,13.43,0,0,1,3.63-4.59,7.68,7.68,0,0,1,2-1.1,9.77,9.77,0,0,0,2.82-1.85,8.67,8.67,0,0,0,1.13-1.68A6.14,6.14,0,0,1,120.17,41c.72-.18,1.46-.26,2.19-.37a5,5,0,0,1,1.68.16,14.2,14.2,0,0,1,5.09,2c2,1.29,3.89,2.78,5.83,4.18a76.28,76.28,0,0,0,6.63,4.34c1.52.87,3.1,1.6,4.66,2.38a14.64,14.64,0,0,1,3.31,2.22,24.85,24.85,0,0,1,3.59,3.87,23.59,23.59,0,0,1,4.6,10.95,7.36,7.36,0,0,1,0,1.15,7.75,7.75,0,0,1-.72,3.62,7.41,7.41,0,0,1-1.44,2c-.63.65-1.27,1.3-1.93,1.92a9,9,0,0,0-2.66,5,16.25,16.25,0,0,0-.07,4.46c.12,1.44.42,2.85.6,4.28a22.32,22.32,0,0,1,.26,3.16,8.66,8.66,0,0,1-1.4,4.61,8.52,8.52,0,0,1-4.21,3.27,11.6,11.6,0,0,1-3.89.81,9,9,0,0,1-5.26-1.48,16.1,16.1,0,0,1-5-5.37,22.67,22.67,0,0,1-2.81-7.66c-.26-1.35-.44-2.71-.58-4.08s-.25-2.92-.4-4.37a16.74,16.74,0,0,0-1.42-5.82,11,11,0,0,0-1.56-2.37,15.25,15.25,0,0,0-4-3.25,70.36,70.36,0,0,0-6.83-3.15,30.44,30.44,0,0,1-5.56-2.79,7.25,7.25,0,0,1-2.48-3.08A8.54,8.54,0,0,1,105.74,57.44ZM91.08,63.13c.45,1.86.9,3.72,1.46,5.56.46,1.51.88,3,1.47,4.51a20.12,20.12,0,0,0,3.11,5.53,17.54,17.54,0,0,0,6.73,4.88,25.27,25.27,0,0,0,6.73,1.74,6,6,0,0,1,4.4,2.86,4.86,4.86,0,0,1,.72,1.3c.19.69-.09,1.11-.8,1.13-.5,0-1,0-1.56,0a26.48,26.48,0,0,0-4.11.37c-.93.13-1.86.28-2.81.34-.75.05-1.49.1-2.23.11a16.23,16.23,0,0,1-4.34-.59,14.14,14.14,0,0,1-5.22-2.52,13.71,13.71,0,0,1-2.52-2.64,18.26,18.26,0,0,1-3-6.9,17.44,17.44,0,0,1-.31-5c.07-1,.21-2.11.22-3.16a9.61,9.61,0,0,0-1.43-5A14.9,14.9,0,0,0,85,62.46a25.71,25.71,0,0,0-2.58-2.29c-1.17-.88-2.35-1.75-3.5-2.65a5.92,5.92,0,0,1-1.33-1.36,3.49,3.49,0,0,1-.36-2.75,7.07,7.07,0,0,1,1.41-2.9,4.12,4.12,0,0,0,.56-1,2.91,2.91,0,0,1,.82-1.3,2.59,2.59,0,0,1,2.15-.33,6,6,0,0,1,3.09,1.59,14.93,14.93,0,0,1,3.59,5.84A63.34,63.34,0,0,1,91.08,63.13Z"/><path class="cls-1" d="M136.74,145a25.06,25.06,0,0,0-3.11-2.6c-.55-.4-1.11-.78-1.68-1.17V145Z"/><path class="cls-1" d="M15.46,139.24V141c.34-.6.69-1.19,1.06-1.78Z"/><path class="cls-1" d="M132,153.27h7a8.67,8.67,0,0,0,.35-1.26,6.75,6.75,0,0,0-.58-4.45H132Z"/><path class="cls-1" d="M135.48,159.75c.79-1.28,1.61-2.55,2.32-3.88h-8.12V139.64c-.75-.51-1.49-1-2.22-1.58a13.53,13.53,0,0,1-4.71-6.23,13,13,0,0,1-.71-3c-.18-1.36-.25-2.74-.3-4.11,0-.87-.11-1.75-.21-2.63s-.18-1.79-.31-2.68a14.59,14.59,0,0,0-1.73-5.59,10.28,10.28,0,0,0-2.4-2.74,15.6,15.6,0,0,0-3.13-2,24.63,24.63,0,0,0-6-1.91c-1-.18-2-.34-3-.49-.63-.09-1.26-.09-1.89-.17-.87-.13-1.75-.11-2.62-.23-.64-.09-1.3-.12-2-.16-1.29-.07-2.56-.21-3.84-.32-1.48-.12-3-.26-4.43-.49a29,29,0,0,1-4.61-1,8,8,0,0,1-3.76-2.45A7.94,7.94,0,0,1,80.33,99a17.28,17.28,0,0,1-.71-3.78c-.09-1.08-.16-2.16-.28-3.23a30.86,30.86,0,0,0-.94-5.73,5.52,5.52,0,0,0-1.75-2.85,4.63,4.63,0,0,0-2.1-.89,11.12,11.12,0,0,0-5.28.39,30,30,0,0,0-5.85,2.68c-1.36.76-2.72,1.53-4.06,2.32s-2.51,1.53-3.77,2.29a17.39,17.39,0,0,1-5.42,2.42,13.32,13.32,0,0,1-4.09.27,27.34,27.34,0,0,0-5.35-.16,14.06,14.06,0,0,0-5.5,1.81,26.35,26.35,0,0,0-3.37,2.25h5v2.59H33.66v14h3.18V116H28.25v-2.6h3.14v-14h-2.3l-.28.29a16.57,16.57,0,0,0-3.16,6.23,44.1,44.1,0,0,1-1.45,4.66,11.18,11.18,0,0,1-2,3.12,12.23,12.23,0,0,1-5.25,3.24c-1.55.55-3.15,1-4.72,1.5a12.29,12.29,0,0,0-4,2.09,14.81,14.81,0,0,0-2.62,2.74,36.67,36.67,0,0,0-3.92,6.64,29.85,29.85,0,0,0-1.28,3.29c-.07.22-.06.52-.39.57v36.15H11.55a16,16,0,0,1-1.6-4.8,11.6,11.6,0,0,1-.17-2.43c0-.57,0-1.13,0-1.7a28.45,28.45,0,0,1,.38-3.9,50.24,50.24,0,0,1,1.11-5.43,46.27,46.27,0,0,1,1.92-5.87v-9.09h5.24c.21-.25.41-.5.63-.74a19.08,19.08,0,0,1,2.36-2.22,11.59,11.59,0,0,1,4-2,17.74,17.74,0,0,1,6.32-.51c1.27.09,2.53.11,3.79.09a7.28,7.28,0,0,0,4.44-1.44,8.74,8.74,0,0,0,2.48-3.1,61.38,61.38,0,0,1,4-7A22.86,22.86,0,0,1,49.61,116h0V102.21a2.92,2.92,0,0,0-.2-1.13,3.72,3.72,0,0,0-.52-.89,3,3,0,0,0-.79-.6,2,2,0,0,0-1-.24h-2.5V116H42.31V96.76h4.78a4.25,4.25,0,0,1,1.88.42,4.7,4.7,0,0,1,1.51,1.16,5.46,5.46,0,0,1,1,1.73,6.16,6.16,0,0,1,.37,2.14V114a23.86,23.86,0,0,1,5-3V96.76h9.56v2.59H59.15v5.72h7.28v2.6H59.15v2.43a27.68,27.68,0,0,1,5.1-1.23,23.25,23.25,0,0,1,5.07-.13,12.4,12.4,0,0,1,7.21,2.82,16.64,16.64,0,0,1,3,3.25c.91,1.32,1.78,2.68,2.74,4a8,8,0,0,0,4.46,3,30.72,30.72,0,0,0,4.38.81c1.32.14,2.64.26,4,.39a16,16,0,0,1,7.95,3,15.29,15.29,0,0,1,2.51,2.16,34,34,0,0,1,2.34,2.89,38.48,38.48,0,0,1,3.25,5.4,16.91,16.91,0,0,1,1.44,4.71,13.41,13.41,0,0,1,.1,3.52,18.56,18.56,0,0,1-1.18,4.79,30.17,30.17,0,0,1-1.34,3v3.45h-1.7a12.4,12.4,0,0,0-1,3.39,7.57,7.57,0,0,0,0,2,21.32,21.32,0,0,0,2.18,7.09c.25.5.44,1,.65,1.56h20.25a40.41,40.41,0,0,1,2.31-5.43C133.59,162.84,134.54,161.29,135.48,159.75Zm-10.81-20.51h-7.28V145h7.28v2.6h-7.28v8.31h-2.27V136.65h9.55Z"/><path class="cls-1" d="M100.2,163.63a14.86,14.86,0,0,1-.08-3.77c.15-1.35.39-2.68.67-4h-.23V142.1a6.16,6.16,0,0,1,.36-2.14,5.86,5.86,0,0,1,1-1.73,4.64,4.64,0,0,1,1.53-1.16,5,5,0,0,1,.65-.23,7.64,7.64,0,0,0-1.22-2.52,9.19,9.19,0,0,0-3.15-2.63,16.22,16.22,0,0,0-5.2-1.66,19.83,19.83,0,0,0-3.17-.25H85.47a10.26,10.26,0,0,1-2.34-.28,5.11,5.11,0,0,1-3.84-3.29,14.77,14.77,0,0,1-.76-2.59,10.65,10.65,0,0,0-.77-2.46,6,6,0,0,0-3.6-3.29A10.37,10.37,0,0,0,70,117.3a23.61,23.61,0,0,0-4.78.85,27.64,27.64,0,0,0-9.51,4.65,19.4,19.4,0,0,0-4.61,5.27c-.93,1.48-1.7,3-2.5,4.59a20.92,20.92,0,0,1-2.51,4H51.4v2.59H48.22V152.9A9.19,9.19,0,0,0,55.35,151c.52-.41,1-.85,1.52-1.3V136.65h2.28v10.89a40.25,40.25,0,0,1,3.63-3.14,17.74,17.74,0,0,1,7-3.24,25.16,25.16,0,0,1,3.67-.53,16.51,16.51,0,0,1,6.83,1,8.84,8.84,0,0,1,3.3,2,6.82,6.82,0,0,1,2,4,14.07,14.07,0,0,1,.1,3c-.09,1-.11,2-.2,3a8.92,8.92,0,0,0,.45,4.4,6,6,0,0,0,2,2.38c1,.78,2,1.49,3,2.31a10.41,10.41,0,0,1,3.79,6.68c0,.18.09.35.13.53h7.47a13.26,13.26,0,0,0-.81-2.29A18.89,18.89,0,0,1,100.2,163.63Zm-11.73-20.4a3.34,3.34,0,0,0,.53.9,3,3,0,0,0,.78.6,2.13,2.13,0,0,0,1,.23,4.22,4.22,0,0,1,1.88.42,4.7,4.7,0,0,1,1.52,1.16,5.62,5.62,0,0,1,1,1.73,6.34,6.34,0,0,1,0,4.27,5.5,5.5,0,0,1-1,1.75,4.85,4.85,0,0,1-1.52,1.16,4.37,4.37,0,0,1-3.74,0,4.78,4.78,0,0,1-1.53-1.16,5.34,5.34,0,0,1-1-1.75,6.19,6.19,0,0,1-.36-2.13h2.27a3.08,3.08,0,0,0,.2,1.13,3.34,3.34,0,0,0,.53.9,2.81,2.81,0,0,0,.78.6,2.25,2.25,0,0,0,2,0,2.85,2.85,0,0,0,.79-.6,3.31,3.31,0,0,0,.52-.9,2.88,2.88,0,0,0,.21-1.13,2.92,2.92,0,0,0-.21-1.13,3.41,3.41,0,0,0-.52-.89,2.85,2.85,0,0,0-.79-.6,2,2,0,0,0-1-.23,4.22,4.22,0,0,1-1.86-.42A4.92,4.92,0,0,1,87.38,146a5.34,5.34,0,0,1-1-1.75,6.51,6.51,0,0,1,0-4.27,5.46,5.46,0,0,1,1-1.73,4.64,4.64,0,0,1,1.53-1.16,4.37,4.37,0,0,1,3.74,0,4.7,4.7,0,0,1,1.52,1.16,5.62,5.62,0,0,1,1,1.73,5.94,5.94,0,0,1,.37,2.14H93.28a2.92,2.92,0,0,0-.21-1.13,3.41,3.41,0,0,0-.52-.89,2.85,2.85,0,0,0-.79-.6,2.16,2.16,0,0,0-2,0,2.81,2.81,0,0,0-.78.6,3.44,3.44,0,0,0-.53.89,3.11,3.11,0,0,0-.2,1.13A3.08,3.08,0,0,0,88.47,143.23Z"/><path class="cls-1" d="M103.56,140.08a3.44,3.44,0,0,0-.53.89,3.11,3.11,0,0,0-.2,1.13V145h.92a21.08,21.08,0,0,0,.64-3.53,14.4,14.4,0,0,0,.11-2v-.05a1,1,0,0,0-.16.06A2.81,2.81,0,0,0,103.56,140.08Z"/><path class="cls-1" d="M102.83,148.23c.07-.22.13-.45.2-.67h-.2Z"/><path class="cls-1" d="M37.68,169.18a15,15,0,0,1-4.13-5.46,10.16,10.16,0,0,1-.77-5.38,6.77,6.77,0,0,1,1.83-3.86l.42-.42v-6.5H30v8.31H27.75V142.1a5.94,5.94,0,0,1,.37-2.14,5.48,5.48,0,0,1,.91-1.58,6.82,6.82,0,0,0-2.62,1.22,15.07,15.07,0,0,0-3.29,3.47c-.44.61-.83,1.25-1.21,1.89h.83v2.6H20.62a29.76,29.76,0,0,0-1.75,5.54,27.13,27.13,0,0,0-.56,3.81,18,18,0,0,0-.09,2.43,31.41,31.41,0,0,0,1,6.53,32.67,32.67,0,0,0,1.11,3.34,1.52,1.52,0,0,1,.15.66h17.8A2.63,2.63,0,0,0,37.68,169.18Z"/><path class="cls-1" d="M34.3,140.08a2.81,2.81,0,0,0-.78-.6,2.16,2.16,0,0,0-2,0,2.85,2.85,0,0,0-.79.6,3.41,3.41,0,0,0-.52.89A2.92,2.92,0,0,0,30,142.1V145h5V142.1a3.11,3.11,0,0,0-.2-1.13A3.44,3.44,0,0,0,34.3,140.08Z"/><path class="cls-1" d="M43,139.24a7.26,7.26,0,0,1-1.93.69,9.94,9.94,0,0,1-3.88-.16l-.42-.1c0,.1.1.19.14.29a6.16,6.16,0,0,1,.36,2.14v10.31a10.87,10.87,0,0,1,2.21-.75,10.31,10.31,0,0,1,4.55.35l1.89.46V139.24Z"/><path class="cls-2" d="M138.67,163.37c1.11-1.31,2.26-2.58,3.28-4a14.41,14.41,0,0,0,1.81-3,17.29,17.29,0,0,0,1.22-5.67,18.69,18.69,0,0,0-.52-6.18,10.48,10.48,0,0,0-2.82-5,14.54,14.54,0,0,0-2.41-1.73v1.43H132v1.95c.57.39,1.13.77,1.68,1.17a25.06,25.06,0,0,1,3.11,2.6h2.49v2.6h-.5a6.75,6.75,0,0,1,.58,4.45,8.67,8.67,0,0,1-.35,1.26h.27v2.6H137.8c-.71,1.33-1.53,2.6-2.32,3.88-.94,1.54-1.89,3.09-2.71,4.69a40.41,40.41,0,0,0-2.31,5.43h5.3a5.73,5.73,0,0,1,.08-1A12.82,12.82,0,0,1,138.67,163.37Z"/><path class="cls-2" d="M.39,133.15a29.85,29.85,0,0,1,1.28-3.29,36.67,36.67,0,0,1,3.92-6.64,14.81,14.81,0,0,1,2.62-2.74,12.29,12.29,0,0,1,4-2.09c1.57-.51,3.17-1,4.72-1.5a12.23,12.23,0,0,0,5.25-3.24,11.18,11.18,0,0,0,2-3.12,44.1,44.1,0,0,0,1.45-4.66,16.57,16.57,0,0,1,3.16-6.23l.28-.29h-.84V96.76h3.61a26.35,26.35,0,0,1,3.37-2.25,14.06,14.06,0,0,1,5.5-1.81,27.34,27.34,0,0,1,5.35.16,13.32,13.32,0,0,0,4.09-.27,17.39,17.39,0,0,0,5.42-2.42c1.26-.76,2.5-1.55,3.77-2.29s2.7-1.56,4.06-2.32a30,30,0,0,1,5.85-2.68,11.12,11.12,0,0,1,5.28-.39,4.63,4.63,0,0,1,2.1.89,5.52,5.52,0,0,1,1.75,2.85A30.86,30.86,0,0,1,79.34,92c.12,1.07.19,2.15.28,3.23A17.28,17.28,0,0,0,80.33,99a7.94,7.94,0,0,0,1.48,2.87,8,8,0,0,0,3.76,2.45,29,29,0,0,0,4.61,1c1.47.23,2.95.37,4.43.49,1.28.11,2.55.25,3.84.32.65,0,1.31.07,2,.16.87.12,1.75.1,2.62.23.63.08,1.26.08,1.89.17,1,.15,2,.31,3,.49a24.63,24.63,0,0,1,6,1.91,15.6,15.6,0,0,1,3.13,2,10.28,10.28,0,0,1,2.4,2.74,14.59,14.59,0,0,1,1.73,5.59c.13.89.21,1.79.31,2.68s.18,1.76.21,2.63c.05,1.37.12,2.75.3,4.11a13,13,0,0,0,.71,3,13.53,13.53,0,0,0,4.71,6.23c.73.55,1.47,1.07,2.22,1.58v-3h7.53c-1.28-.68-2.58-1.3-3.84-2a13.83,13.83,0,0,1-3-2.13,14.36,14.36,0,0,1-3.23-5.2,34.67,34.67,0,0,1-2-10.32c-.09-1.29-.18-2.57-.26-3.85s-.25-2.6-.42-3.89a27.13,27.13,0,0,0-1.21-5.41,9.51,9.51,0,0,0-2.14-3.66,9,9,0,0,0-6.3-2.58,15.67,15.67,0,0,0-4.09.47,34.25,34.25,0,0,1-5.59,1,22.69,22.69,0,0,1-4.94-.13,19.73,19.73,0,0,1-6.84-2.51,25.08,25.08,0,0,1-6-5,25.73,25.73,0,0,1-3.24-4.66,60.71,60.71,0,0,1-2.71-5.85,55.08,55.08,0,0,0-3-6.32,9.35,9.35,0,0,0-2.44-2.79,7.77,7.77,0,0,0-6.61-1.36,14.16,14.16,0,0,0-4.73,2.14l-1.92,1.27v2.21H60.51v-.7c-.35.24-.7.48-1.06.71a63.92,63.92,0,0,1-7.92,4.83,16,16,0,0,1-6,1.41A13.2,13.2,0,0,1,42,81.88a26.37,26.37,0,0,0-6.5-.75,19.57,19.57,0,0,0-2.17,0,15.25,15.25,0,0,0-5.21,1.65,14.38,14.38,0,0,0-6.08,6.08,32.6,32.6,0,0,0-2.47,6.53c-.13.45-.26.9-.4,1.34h3.54v2.59H18.33a26.77,26.77,0,0,1-1.37,3.1,18.44,18.44,0,0,1-1.5,2.39v.23h7.28v2.6H15.46V116H13.19v-8.93a17,17,0,0,1-3.41,2c-1.31.56-2.65,1-3.91,1.72A12.28,12.28,0,0,0,2,114a23.72,23.72,0,0,0-1.57,2.37c-.09.15-.16.33-.38.34v17C.33,133.67.32,133.37.39,133.15Z"/><path class="cls-2" d="M19.26,165.87a31.41,31.41,0,0,1-1-6.53,18,18,0,0,1,.09-2.43,27.13,27.13,0,0,1,.56-3.81,29.76,29.76,0,0,1,1.75-5.54H15.46v8.31H13.19V145.74a46.27,46.27,0,0,0-1.92,5.87A50.24,50.24,0,0,0,10.16,157a28.45,28.45,0,0,0-.38,3.9c0,.57,0,1.13,0,1.7a11.6,11.6,0,0,0,.17,2.43,16,16,0,0,0,1.6,4.8h9a1.52,1.52,0,0,0-.15-.66A32.67,32.67,0,0,1,19.26,165.87Z"/><path class="cls-2" d="M22.74,139.24H16.52c-.37.59-.72,1.18-1.06,1.78V145h6.45c.38-.64.77-1.28,1.21-1.89a15.07,15.07,0,0,1,3.29-3.47A6.82,6.82,0,0,1,29,138.38s.06-.1.1-.15a4.64,4.64,0,0,1,1.53-1.16,4.3,4.3,0,0,1,1.87-.42,4.25,4.25,0,0,1,1.88.42,4.67,4.67,0,0,1,1.51,1.16,5.4,5.4,0,0,1,.88,1.44l.42.1a9.94,9.94,0,0,0,3.88.16,7.26,7.26,0,0,0,1.93-.69h-.22v-2.59h3.31a20.92,20.92,0,0,0,2.51-4c.8-1.55,1.57-3.11,2.5-4.59a19.4,19.4,0,0,1,4.61-5.27,27.64,27.64,0,0,1,9.51-4.65A23.61,23.61,0,0,1,70,117.3a10.37,10.37,0,0,1,4.13.57,6,6,0,0,1,3.6,3.29,10.65,10.65,0,0,1,.77,2.46,14.77,14.77,0,0,0,.76,2.59,5.11,5.11,0,0,0,3.84,3.29,10.26,10.26,0,0,0,2.34.28h5.91a19.83,19.83,0,0,1,3.17.25,16.22,16.22,0,0,1,5.2,1.66,9.19,9.19,0,0,1,3.15,2.63,7.64,7.64,0,0,1,1.22,2.52,4.43,4.43,0,0,1,1.21-.19,4.22,4.22,0,0,1,1.88.42,4.6,4.6,0,0,1,1.52,1.16,5.86,5.86,0,0,1,1,1.73,6.16,6.16,0,0,1,.36,2.14v10.32a30.17,30.17,0,0,0,1.34-3,18.56,18.56,0,0,0,1.18-4.79,13.41,13.41,0,0,0-.1-3.52,16.91,16.91,0,0,0-1.44-4.71,38.48,38.48,0,0,0-3.25-5.4,34,34,0,0,0-2.34-2.89A15.29,15.29,0,0,0,103,126,16,16,0,0,0,95,123c-1.33-.13-2.65-.25-4-.39a30.72,30.72,0,0,1-4.38-.81,8,8,0,0,1-4.46-3c-1-1.28-1.83-2.64-2.74-4a16.64,16.64,0,0,0-3-3.25,12.4,12.4,0,0,0-7.21-2.82,23.25,23.25,0,0,0-5.07.13,27.68,27.68,0,0,0-5.1,1.23v3.28h7.28V116H56.87v-5a23.86,23.86,0,0,0-5,3v2H49.61a22.86,22.86,0,0,0-3.18,3.75,61.38,61.38,0,0,0-4,7,8.74,8.74,0,0,1-2.48,3.1,7.28,7.28,0,0,1-4.44,1.44c-1.26,0-2.52,0-3.79-.09a17.74,17.74,0,0,0-6.32.51,11.59,11.59,0,0,0-4,2,19.08,19.08,0,0,0-2.36,2.22c-.22.24-.42.49-.63.74h4.31Z"/><path class="cls-2" d="M107.38,161.22a7.57,7.57,0,0,1,0-2,12.4,12.4,0,0,1,1-3.39h-.57v-8.31H103c-.07.22-.13.45-.2.67v7.64h-2c-.28,1.31-.52,2.64-.67,4a14.86,14.86,0,0,0,.08,3.77,18.89,18.89,0,0,0,1.18,4,13.26,13.26,0,0,1,.81,2.29h8c-.21-.52-.4-1.06-.65-1.56A21.32,21.32,0,0,1,107.38,161.22Z"/><path class="cls-2" d="M104.39,141.43a21.08,21.08,0,0,1-.64,3.53h4.09V142.1a2.92,2.92,0,0,0-.21-1.13,3.41,3.41,0,0,0-.52-.89,2.71,2.71,0,0,0-.79-.6,2,2,0,0,0-1-.24,2.06,2.06,0,0,0-.83.18v.05A14.4,14.4,0,0,1,104.39,141.43Z"/><path class="cls-1" d="M.45,79a34.9,34.9,0,0,1,3.31-6.06,20.41,20.41,0,0,1,3-3.49,39.12,39.12,0,0,1,6.43-4.7V56.87h9.55v2.59H15.46v4.06c1.76-.87,3.57-1.65,5.38-2.42,1.5-.63,3-1.24,4.55-1.76,1.35-.44,2.72-.85,4.09-1.21a4.62,4.62,0,0,1,1.18-.84,4.23,4.23,0,0,1,3.27-.17c.85-.17,1.71-.34,2.57-.49s1.81-.3,2.74-.38,2-.25,3-.36l1.61-.16a26.87,26.87,0,0,0,5.64-1.06A13.38,13.38,0,0,0,57.4,48a9.66,9.66,0,0,0,1-3.63,7.13,7.13,0,0,0-.74-3.62,30.49,30.49,0,0,0-2.76-4.5A57.78,57.78,0,0,1,50,27.6a23.22,23.22,0,0,1-2.1-6.55c0-.27,0-.55,0-.82a23,23,0,0,1,.82-7,26,26,0,0,1,2.17-6,31,31,0,0,1,3.43-5c.63-.77,1.41-1.4,2-2.19H42a11.7,11.7,0,0,1-1.07,1.8,18.12,18.12,0,0,0-2.35,6.38,15.21,15.21,0,0,0-.22,2.41,30.09,30.09,0,0,0,1.07,7.48c1,3.44,2.35,6.74,3.65,10.06a63.31,63.31,0,0,1,2.51,7.45,6.39,6.39,0,0,1,.22,2,1.7,1.7,0,0,1-1.37,1.7,13.08,13.08,0,0,1-1.4.19c-2.12.22-4.25,0-6.37.15a43.46,43.46,0,0,0-6.22.85A30,30,0,0,0,22,43.56a48.29,48.29,0,0,0-6.29,4.22,72.47,72.47,0,0,0-7.62,7.13,48.92,48.92,0,0,0-3.56,4.17,39.67,39.67,0,0,0-2.9,4.16c-.42.7-.83,1.41-1.19,2.14-.1.21-.15.49-.46.53V79.64A1.12,1.12,0,0,0,.45,79Z"/><path class="cls-2" d="M159.17,5.82a22.51,22.51,0,0,1-4.78.29,14.18,14.18,0,0,1-6.55-1.95C145.9,3,144.12,1.6,142.27.31A2.66,2.66,0,0,1,142,0H105.86c-.33.4-.85.31-1.26.36a23.46,23.46,0,0,1-4.18.3A11.87,11.87,0,0,1,97,.13.43.43,0,0,1,96.62,0H86.16a1.11,1.11,0,0,1-.53.29A33.9,33.9,0,0,0,79.82,3a26.54,26.54,0,0,0-6.36,5.21,18.2,18.2,0,0,0-2.78,4.39,8.64,8.64,0,0,0-.82,3.06,12.44,12.44,0,0,0,1.6,6.78c.84,1.59,1.79,3.13,2.66,4.71a39.32,39.32,0,0,1,2.09,4.34,36.51,36.51,0,0,1,1.61,5.38,31.62,31.62,0,0,0,.86,3.35,4.67,4.67,0,0,0,2.6,3,4.4,4.4,0,0,0,3.34.26A2.06,2.06,0,0,0,86,41.53a6.53,6.53,0,0,0-.78-3c-.71-1.48-1.46-3-2.09-4.48a11.14,11.14,0,0,1-1-5.87,28.4,28.4,0,0,1,1-4.47,18.11,18.11,0,0,1,2.89-5.5,19.06,19.06,0,0,1,1.82-2.09,17.16,17.16,0,0,1,2.22-1.76,27.84,27.84,0,0,1,6.33-3.07,48.23,48.23,0,0,1,6.36-1.63c1.15-.25,2.3-.45,3.47-.59l2.55-.27c1.21-.14,2.42-.13,3.64-.24a26.25,26.25,0,0,1,3.31.13c1,0,1.94,0,2.91.1,1.43.11,2.88.18,4.31.29q1.43.11,2.82.33c2.18.36,4.35.79,6.51,1.21a78.52,78.52,0,0,0,8.76,1.22,14.57,14.57,0,0,1,1.75.14,17.38,17.38,0,0,0,2.15.21c.85.07,1.7.17,2.56.2.63,0,1.26.06,1.89.12,1.37.14,2.74.2,4.12.25.79,0,1.57-.07,2.36-.11a31.76,31.76,0,0,0,3.22-.38c1.2-.18,2.4-.39,3.61-.45a12.47,12.47,0,0,1,5.35,1,14,14,0,0,0,1.74.75V4.46c-1.27,1-2.77-.82-4.27-.26A32.4,32.4,0,0,1,159.17,5.82Z"/><path class="cls-2" d="M169.57,34.23A21.57,21.57,0,0,0,168,31.07a20.41,20.41,0,0,0-3.44-4.51,25.3,25.3,0,0,0-2-1.73,24.18,24.18,0,0,0-7.92-4.32,13.86,13.86,0,0,0-3.18-.67,28.88,28.88,0,0,0-7,.57c-2.76.53-5.51,1.17-8.28,1.67-1.42.26-2.84.48-4.28.64-.58.06-1.17.07-1.75.13a36.72,36.72,0,0,1-3.78.25h-4a2.53,2.53,0,0,1-.55,0c-1-.21-2-.09-3-.23-.71-.11-1.43-.15-2.14-.25l-2.55-.31L111.5,22c-1.19-.14-2.37-.3-3.56-.33s-2.54,0-3.81,0a14,14,0,0,0-2.15.18,17.36,17.36,0,0,0-4.13,1,13.28,13.28,0,0,0-4.46,2.79,14,14,0,0,0-2.34,3.22,14.44,14.44,0,0,0-1.46,3.79,12.31,12.31,0,0,0-.46,4.4,8.08,8.08,0,0,0,1.12,3.17A14,14,0,0,0,92.86,43a4.82,4.82,0,0,1,1.73,3.82c0,1.15.07,2.31-.08,3.45a.43.43,0,0,0,.35.51c.25.06.35-.13.41-.34s.08-.22.11-.33c.49-2,1-4,1.45-6A13.68,13.68,0,0,0,97,38.76a15.06,15.06,0,0,0-.45-1.49,4.39,4.39,0,0,1,.65-4.18,10.64,10.64,0,0,1,1.39-1.46,8.32,8.32,0,0,1,3.47-1.92,2.36,2.36,0,0,1,2.55.64,13.48,13.48,0,0,0,1.83,1.71,8.46,8.46,0,0,0,4.47,1.77,15.77,15.77,0,0,0,5.29-.62,46.2,46.2,0,0,0,6.53-2.44,51.93,51.93,0,0,1,5.62-2.2,26.1,26.1,0,0,1,7.39-1.11,25.48,25.48,0,0,1,4.54.15A16.22,16.22,0,0,1,147,30.19c1.18.8,2.32,1.65,3.43,2.53a15,15,0,0,1,2.32,2.18,15.4,15.4,0,0,1,2.91,5.31c.43,1.34.75,2.71,1.25,4a9.42,9.42,0,0,0,1.87,3.19,8.11,8.11,0,0,0,5.71,2.45,12.83,12.83,0,0,0,3.54-.45c.62-.13,1.19-.43,1.83-.5V34.65C169.69,34.57,169.64,34.4,169.57,34.23Z"/><path class="cls-2" d="M48.87,60.3a3,3,0,0,0-.79-.6,2.16,2.16,0,0,0-2,0,3,3,0,0,0-.79.6,3.41,3.41,0,0,0-.52.89,2.92,2.92,0,0,0-.2,1.13,2.6,2.6,0,0,0,0,.4c1.38-.28,2.76-.59,4.11-1,.25-.07.5-.17.74-.24a1.47,1.47,0,0,0-.08-.3A3.72,3.72,0,0,0,48.87,60.3Z"/><path class="cls-2" d="M50.82,7.22a26,26,0,0,0-2.17,6.05,23,23,0,0,0-.82,7c0,.27,0,.55,0,.82A23.22,23.22,0,0,0,50,27.6a57.78,57.78,0,0,0,4.95,8.64,30.49,30.49,0,0,1,2.76,4.5,7.13,7.13,0,0,1,.74,3.62,9.66,9.66,0,0,1-1,3.63,13.38,13.38,0,0,1-7.9,6.68,26.87,26.87,0,0,1-5.64,1.06l-1.61.16c-1,.11-2,.28-3,.36s-1.84.22-2.74.38-1.72.32-2.57.49a4.59,4.59,0,0,1,.48.17,4.67,4.67,0,0,1,1.51,1.16,5.46,5.46,0,0,1,1,1.73,6.16,6.16,0,0,1,.36,2.14V64c.24,0,.46-.08.7-.12,1.46-.2,2.92-.47,4.38-.7a7.35,7.35,0,0,1-.07-.82,5.94,5.94,0,0,1,.37-2.14,5.46,5.46,0,0,1,1-1.73,4.44,4.44,0,0,1,1.53-1.16,4.37,4.37,0,0,1,3.74,0,4.56,4.56,0,0,1,1.51,1.16,5.46,5.46,0,0,1,1,1.73,5.62,5.62,0,0,1,.15.55,42.05,42.05,0,0,0,5.28-2.45V56.87h2.39a21.4,21.4,0,0,0,4-3.21,12.34,12.34,0,0,0,3.25-6,7,7,0,0,0-.2-3.8,13,13,0,0,0-2.12-3.76c-.94-1.22-1.93-2.39-2.87-3.6a30.68,30.68,0,0,1-4.1-7.08,29.41,29.41,0,0,1-2.51-9,19.19,19.19,0,0,1,.06-4.79,17.38,17.38,0,0,1,2-5.66,31,31,0,0,1,4.74-6.24c1-1.11,2.14-2.15,3.21-3.22A2.38,2.38,0,0,0,65.23,0h-9c-.6.79-1.38,1.42-2,2.19A31,31,0,0,0,50.82,7.22Z"/><path class="cls-2" d="M.41,94.39a44.2,44.2,0,0,1,2.65-5.34,55.57,55.57,0,0,1,4.49-6.6c1.33-1.68,2.72-3.32,4.21-4.86.51-.51,1.05-1,1.57-1.5h-.14V64.73a39.12,39.12,0,0,0-6.43,4.7,20.41,20.41,0,0,0-3,3.49A34.9,34.9,0,0,0,.45,79a1.12,1.12,0,0,1-.45.66V95C.25,94.87.31,94.62.41,94.39Z"/><path class="cls-2" d="M35,62.32a3.11,3.11,0,0,0-.2-1.13,3.44,3.44,0,0,0-.53-.89,2.81,2.81,0,0,0-.78-.6,2.16,2.16,0,0,0-2,0,2.85,2.85,0,0,0-.79.6,3.41,3.41,0,0,0-.52.89A2.92,2.92,0,0,0,30,62.32v2.86h1.19c1.26-.32,2.54-.6,3.82-.84Z"/><path class="cls-2" d="M28.12,60.18a5.62,5.62,0,0,1,1-1.73c.11-.12.24-.21.35-.32-1.37.36-2.74.77-4.09,1.21-1.54.52-3.05,1.13-4.55,1.76-1.81.77-3.62,1.55-5.38,2.42v1.66h7.28v2.6H15.46V74.1c.81-.71,1.64-1.41,2.49-2.07a44.94,44.94,0,0,1,4.82-3.28,35.86,35.86,0,0,1,5-2.44v-4A5.94,5.94,0,0,1,28.12,60.18Z"/><path class="cls-2" d="M168.61,68.44a14.75,14.75,0,0,0-2.24,3.46,22.77,22.77,0,0,0-2,5.67,32.74,32.74,0,0,0-.61,3.93,21.39,21.39,0,0,0,.3,4.73c.24,1.62.56,3.23.83,4.86s.46,3.57.62,5.36a16.23,16.23,0,0,1-.27,4.11,13.53,13.53,0,0,1-3.79,7.27q-1.69,1.71-3.53,3.27a40,40,0,0,1-6.11,4.13c-1.55.88-3.15,1.68-4.7,2.57a13.44,13.44,0,0,0-4,3.23,7.57,7.57,0,0,0-1.89,6,8.76,8.76,0,0,0,1,3.07,43,43,0,0,0,3,4.37,29.16,29.16,0,0,1,3.16,5.53,23.92,23.92,0,0,1,1.85,9.23c0,.62-.18,1.21-.14,1.82a8.48,8.48,0,0,1-.18,1.95,50.21,50.21,0,0,1-1.17,5.55c-.74,2.78-1.71,5.48-2.72,8.17-.4,1.05-.82,2.1-1.23,3.15h6.66c.36-.83,1-1.53,1.38-2.33a57.28,57.28,0,0,0,2.8-5.8,27.55,27.55,0,0,0,1.72-5.56c.23-1.33.4-2.66.51-4,.09-1,.11-2.08.11-3.11,0-.86-.17-1.71-.23-2.56s-.21-1.79-.33-2.68c-.14-1.18-.36-2.36-.58-3.53a41,41,0,0,0-1.75-6,15.81,15.81,0,0,1-.88-3.88,7.29,7.29,0,0,1,.7-3.55,18.19,18.19,0,0,1,2.64-4c2.12-2.58,4.28-5.12,6.18-7.88a36.83,36.83,0,0,0,2.52-4.16,31.65,31.65,0,0,0,2.31-6,36.34,36.34,0,0,0,.94-4.71,25.42,25.42,0,0,0,.31-3.7v-.81c0-.41-.13-.84.13-1.23v-27a.66.66,0,0,0-.46.26C169.12,67.81,168.88,68.14,168.61,68.44Z"/><path class="cls-2" d="M.46,65.38c.36-.73.77-1.44,1.19-2.14a39.67,39.67,0,0,1,2.9-4.16,48.92,48.92,0,0,1,3.56-4.17,72.47,72.47,0,0,1,7.62-7.13A48.29,48.29,0,0,1,22,43.56a30,30,0,0,1,8.42-3.14,43.46,43.46,0,0,1,6.22-.85c2.12-.13,4.25.07,6.37-.15a13.08,13.08,0,0,0,1.4-.19,1.7,1.7,0,0,0,1.37-1.7,6.39,6.39,0,0,0-.22-2,63.31,63.31,0,0,0-2.51-7.45c-1.3-3.32-2.67-6.62-3.65-10.06a30.09,30.09,0,0,1-1.07-7.48,15.21,15.21,0,0,1,.22-2.41A18.12,18.12,0,0,1,40.92,1.8,11.7,11.7,0,0,0,42,0h-7.2c-.09.16-.17.32-.27.47a20.89,20.89,0,0,0-3.61,9A8.14,8.14,0,0,0,32,15.39c1.12,1.69,2.14,3.45,3.23,5.17.75,1.16,1.67,2.19,2.38,3.38a11,11,0,0,1,1.4,3c.44,1.82,0,2.27-1.14,3.17a16.08,16.08,0,0,1-7.48,3.16,22.39,22.39,0,0,1-5.6.28,50.33,50.33,0,0,0-5.49-.09,19.52,19.52,0,0,0-7.72,1.8,21.52,21.52,0,0,0-6.85,5.23A28.84,28.84,0,0,0,.85,45.85l-.54.94A.39.39,0,0,1,0,47V65.91C.31,65.87.36,65.59.46,65.38Z"/><path class="cls-1" d="M81.56,165.85a5.61,5.61,0,0,1-2.19-4.41,17.46,17.46,0,0,1,0-2.17c.06-.83.14-1.66.23-2.48a27.08,27.08,0,0,0,.16-3.93,11.06,11.06,0,0,0-.45-2.79,3,3,0,0,0-2-2,6.06,6.06,0,0,0-5.54.83,8.92,8.92,0,0,0-2.38,2.91c-.34.54-.64,1.09-1,1.63a8.22,8.22,0,0,1-2,2.23v.25h-.34a6.9,6.9,0,0,1-2.61.95,12.84,12.84,0,0,1-6.95-.95,14.78,14.78,0,0,0-2.26-.7,3.78,3.78,0,0,0-2.87.52v.18h-.26a4.1,4.1,0,0,0-.48.37,6.9,6.9,0,0,0-1.85,3A4.16,4.16,0,0,1,45,162.11a3.26,3.26,0,0,1-2-.52,6,6,0,0,1-1.42-1.14c-.26-.28-.54-.55-.82-.82a2.31,2.31,0,0,0-3.24-.2A3.81,3.81,0,0,0,36,161.36a3.51,3.51,0,0,0,.39,2.86,9.45,9.45,0,0,0,2.78,3c.94.7,1.91,1.37,2.82,2.1.18.14.36.27.38.53H88.6a2.46,2.46,0,0,0-.88-.49A29.18,29.18,0,0,1,81.56,165.85Z"/><path class="cls-2" d="M51.4,153.27v2.42a3.78,3.78,0,0,1,2.87-.52,14.78,14.78,0,0,1,2.26.7,12.84,12.84,0,0,0,6.95.95,6.9,6.9,0,0,0,2.61-.95H56.87v-6.16c-.49.45-1,.89-1.52,1.3a9.19,9.19,0,0,1-7.13,1.89v.37Z"/><path class="cls-2" d="M90.8,162.66c-1-.82-2-1.53-3-2.31a6,6,0,0,1-2-2.38,8.92,8.92,0,0,1-.45-4.4c.09-1,.11-2,.2-3a14.07,14.07,0,0,0-.1-3,6.82,6.82,0,0,0-2-4,8.84,8.84,0,0,0-3.3-2,16.51,16.51,0,0,0-6.83-1,25.16,25.16,0,0,0-3.67.53,17.74,17.74,0,0,0-7,3.24,40.25,40.25,0,0,0-3.63,3.14v5.73h7.28v2.35a8.22,8.22,0,0,0,2-2.23c.33-.54.63-1.09,1-1.63a8.92,8.92,0,0,1,2.38-2.91,6.06,6.06,0,0,1,5.54-.83,3,3,0,0,1,2,2,11.06,11.06,0,0,1,.45,2.79,27.08,27.08,0,0,1-.16,3.93c-.09.82-.17,1.65-.23,2.48a17.46,17.46,0,0,0,0,2.17,5.61,5.61,0,0,0,2.19,4.41,29.18,29.18,0,0,0,6.16,3.53,2.46,2.46,0,0,1,.88.49h6.12c0-.18-.1-.35-.13-.53A10.41,10.41,0,0,0,90.8,162.66Zm-11-15.1H72.57V145h7.28Z"/><path class="cls-2" d="M42,169.34c-.91-.73-1.88-1.4-2.82-2.1a9.45,9.45,0,0,1-2.78-3,3.51,3.51,0,0,1-.39-2.86,3.81,3.81,0,0,1,1.52-1.93,2.31,2.31,0,0,1,3.24.2c.28.27.56.54.82.82A6,6,0,0,0,43,161.59a3.26,3.26,0,0,0,2,.52,4.16,4.16,0,0,0,3.78-2.83,6.9,6.9,0,0,1,1.85-3,4.1,4.1,0,0,1,.48-.37H42.81v-2.6H46v-.8L44.06,152a10.31,10.31,0,0,0-4.55-.35,10.87,10.87,0,0,0-2.21.75v3.46H35v-1.81l-.42.42a6.77,6.77,0,0,0-1.83,3.86,10.16,10.16,0,0,0,.77,5.38,15,15,0,0,0,4.13,5.46,2.63,2.63,0,0,1,.64.69H42.4C42.38,169.61,42.2,169.48,42,169.34Z"/><path class="cls-1" d="M169.43,100.05a36.34,36.34,0,0,1-.94,4.71,31.65,31.65,0,0,1-2.31,6,36.83,36.83,0,0,1-2.52,4.16c-1.9,2.76-4.06,5.3-6.18,7.88a18.19,18.19,0,0,0-2.64,4,7.29,7.29,0,0,0-.7,3.55,15.81,15.81,0,0,0,.88,3.88,41,41,0,0,1,1.75,6c.22,1.17.44,2.35.58,3.53.12.89.27,1.78.33,2.68s.22,1.7.23,2.56c0,1,0,2.07-.11,3.11-.11,1.35-.28,2.68-.51,4a27.55,27.55,0,0,1-1.72,5.56,57.28,57.28,0,0,1-2.8,5.8c-.43.8-1,1.5-1.38,2.33h4.21a5.43,5.43,0,0,1,.78-1.49,31.55,31.55,0,0,1,3-4c1.29-1.51,2.64-3,3.93-4.47A29.84,29.84,0,0,0,168,153a17.45,17.45,0,0,0,1.57-5,4.34,4.34,0,0,0,.13-.94c0-.19-.05-.4.13-.54v-5.17c-.21-.19-.11-.45-.13-.68a17.12,17.12,0,0,0-.47-3.34c-.31-1.77-.84-3.5-1.11-5.28a15.53,15.53,0,0,1,0-5.18,41.66,41.66,0,0,1,1.42-5.29,1.25,1.25,0,0,1,.27-.61V96.35h-.13A25.42,25.42,0,0,1,169.43,100.05Z"/><path class="cls-1" d="M.31,46.79l.54-.94a28.84,28.84,0,0,1,3.87-5.37,21.52,21.52,0,0,1,6.85-5.23,19.52,19.52,0,0,1,7.72-1.8,50.33,50.33,0,0,1,5.49.09,22.39,22.39,0,0,0,5.6-.28,16.08,16.08,0,0,0,7.48-3.16c1.14-.9,1.58-1.35,1.14-3.17a11,11,0,0,0-1.4-3c-.71-1.19-1.63-2.22-2.38-3.38-1.09-1.72-2.11-3.48-3.23-5.17a8.14,8.14,0,0,1-1.08-5.87,20.89,20.89,0,0,1,3.61-9c.1-.15.18-.31.27-.47H24.73c-.34.68-.79,1.3-1.09,2a6.41,6.41,0,0,0-.35,3.77A22,22,0,0,0,25,10.71c.67,1.49,1.48,2.91,2.08,4.42a5.19,5.19,0,0,1,.39,1.5A3.6,3.6,0,0,1,25.85,20,19.85,19.85,0,0,1,21,22.55a21.74,21.74,0,0,1-5.91,1.38c-1.36.16-2.73.25-4.1.41A17.46,17.46,0,0,0,5.63,25.8a10.55,10.55,0,0,0-4.14,3.41c-.4.55-.76,1.12-1.11,1.7-.09.16-.16.33-.38.35V47A.39.39,0,0,0,.31,46.79Z"/><path class="cls-2" d="M.38,30.91c.35-.58.71-1.15,1.11-1.7A10.55,10.55,0,0,1,5.63,25.8,17.46,17.46,0,0,1,11,24.34c1.37-.16,2.74-.25,4.1-.41A21.74,21.74,0,0,0,21,22.55,19.85,19.85,0,0,0,25.85,20a3.6,3.6,0,0,0,1.6-3.32,5.19,5.19,0,0,0-.39-1.5c-.6-1.51-1.41-2.93-2.08-4.42a22,22,0,0,1-1.69-4.92A6.41,6.41,0,0,1,23.64,2c.3-.72.75-1.34,1.09-2H16.31a4.75,4.75,0,0,1-.58,1.06,7.43,7.43,0,0,0-1,3.06,3.94,3.94,0,0,0,1,3.07,22.85,22.85,0,0,0,2.24,2.16,9.17,9.17,0,0,1,2.84,4.07c.57,1.65.11,2.38-1.31,3.54A7.5,7.5,0,0,1,17.29,18a16.6,16.6,0,0,1-4.74,1c-1.52.11-3,0-4.54.11a19.34,19.34,0,0,0-5.79.9c-.5.2-1,.46-1.47.69a2.31,2.31,0,0,1-.75.3v10.2C.22,31.24.29,31.07.38,30.91Z"/><path class="cls-1" d="M2.22,20.07A19.34,19.34,0,0,1,8,19.17c1.51-.11,3,0,4.54-.11a16.6,16.6,0,0,0,4.74-1A7.5,7.5,0,0,0,19.47,17c1.42-1.16,1.88-1.89,1.31-3.54a9.17,9.17,0,0,0-2.84-4.07A22.85,22.85,0,0,1,15.7,7.19a3.94,3.94,0,0,1-1-3.07,7.43,7.43,0,0,1,1-3.06A4.75,4.75,0,0,0,16.31,0H8.83a6.87,6.87,0,0,1-.11,1.2c-.13,1.12-.15,2.25-.31,3.36a7.76,7.76,0,0,1-3.2,5.64,2.91,2.91,0,0,1-1.77.55,9.6,9.6,0,0,0-1.69.07,2.16,2.16,0,0,0-1.26.71c-.15.16-.22.41-.49.43v1.09H.61a.3.3,0,0,1,.26.18c.07.15,0,.26-.13.35a1.06,1.06,0,0,1-.74.27v7.2a2.31,2.31,0,0,0,.75-.3C1.24,20.53,1.72,20.27,2.22,20.07Z"/><path class="cls-1" d="M169.87,4.46c-.53,2-2.48.6-4,1.15-1.64.61-3.58-.35-5.3,0a26,26,0,0,1-6.22.53,14.18,14.18,0,0,1-6.55-1.95C145.9,3,144.12,1.6,142.27.31A2.66,2.66,0,0,1,142,0h23.4a4.46,4.46,0,0,1,4.46,4.46Z"/><path class="cls-2" d="M169.61,148a17.45,17.45,0,0,1-1.57,5,29.84,29.84,0,0,1-4.78,6.95c-1.29,1.5-2.64,3-3.93,4.47a31.55,31.55,0,0,0-3,4,5.43,5.43,0,0,0-.78,1.49h7.48a16.93,16.93,0,0,1,2.07-2.56,40,40,0,0,0,4-5c.21-.32.46-.6.69-.91V147h-.13A4.34,4.34,0,0,1,169.61,148Z"/><path class="cls-2" d="M8.83,0a6.87,6.87,0,0,1-.11,1.2c-.13,1.12-.15,2.25-.31,3.36a7.76,7.76,0,0,1-3.2,5.64,2.91,2.91,0,0,1-1.77.55,9.6,9.6,0,0,0-1.69.07,2.16,2.16,0,0,0-1.26.71c-.15.16-.22.41-.49.43V8.83A8.83,8.83,0,0,1,8.83,0Z"/><path class="cls-1" d="M165.15,167.31a16.93,16.93,0,0,0-2.07,2.56h0a6.79,6.79,0,0,0,6.79-6.79v-1.64c-.23.31-.48.59-.69.91A40,40,0,0,1,165.15,167.31Z"/><path class="cls-3" d="M168.18,126.85a15.53,15.53,0,0,0,0,5.18c.27,1.78.8,3.51,1.11,5.28a17.12,17.12,0,0,1,.47,3.34h.13V121a1.25,1.25,0,0,0-.27.61A41.66,41.66,0,0,0,168.18,126.85Z"/><path class="cls-4" d="M100.42.66a23.46,23.46,0,0,0,4.18-.3c.41,0,.93,0,1.26-.36H97V.13A11.87,11.87,0,0,0,100.42.66Z"/><path class="cls-5" d="M.87,13.24a.3.3,0,0,0-.26-.18H0v.81a1.06,1.06,0,0,0,.74-.27C.84,13.5.94,13.39.87,13.24Z"/><path class="cls-6" d="M169.74,95.54h.13V94.31C169.61,94.7,169.78,95.13,169.74,95.54Z"/><path class="cls-4" d="M169.74,96.35h.13v-.82h-.13Z"/><path class="cls-7" d="M169.87,141.33v-.68h-.13C169.76,140.88,169.66,141.14,169.87,141.33Z"/><path class="cls-7" d="M169.74,147h.13v-.54C169.69,146.64,169.74,146.85,169.74,147Z"/><path class="cls-8" d="M97,0h-.41A.43.43,0,0,0,97,.13Z"/><path class="cls-2" d="M108.92,64.69a30.44,30.44,0,0,0,5.56,2.79,70.36,70.36,0,0,1,6.83,3.15,15.25,15.25,0,0,1,4,3.25,11,11,0,0,1,1.56,2.37,16.74,16.74,0,0,1,1.42,5.82c.15,1.45.25,2.91.4,4.37s.32,2.73.58,4.08a22.67,22.67,0,0,0,2.81,7.66,16.1,16.1,0,0,0,5,5.37A9,9,0,0,0,142.3,105a11.6,11.6,0,0,0,3.89-.81A8.52,8.52,0,0,0,150.4,101a8.66,8.66,0,0,0,1.4-4.61,22.32,22.32,0,0,0-.26-3.16c-.18-1.43-.48-2.84-.6-4.28a16.25,16.25,0,0,1,.07-4.46,9,9,0,0,1,2.66-5c.66-.62,1.3-1.27,1.93-1.92a7.41,7.41,0,0,0,1.44-2,7.75,7.75,0,0,0,.72-3.62,7.36,7.36,0,0,0,0-1.15,23.59,23.59,0,0,0-4.6-10.95,24.85,24.85,0,0,0-3.59-3.87,14.64,14.64,0,0,0-3.31-2.22c-1.56-.78-3.14-1.51-4.66-2.38A76.28,76.28,0,0,1,135,47c-1.94-1.4-3.81-2.89-5.83-4.18a14.2,14.2,0,0,0-5.09-2,5,5,0,0,0-1.68-.16c-.73.11-1.47.19-2.19.37a6.14,6.14,0,0,0-3.78,2.88,8.67,8.67,0,0,1-1.13,1.68,9.77,9.77,0,0,1-2.82,1.85,7.68,7.68,0,0,0-2,1.1,13.43,13.43,0,0,0-3.63,4.59,14.17,14.17,0,0,0-1.06,4.32,8.54,8.54,0,0,0,.7,4.17A7.25,7.25,0,0,0,108.92,64.69Zm4.53-8.79a7.42,7.42,0,0,1,1.29-1.9,15.79,15.79,0,0,1,1.88-2,33.47,33.47,0,0,1,2.74-2.31,1.78,1.78,0,0,1,1.07-.33c.89,0,1.77,0,2.65,0a6.71,6.71,0,0,1,3.2.76A6.44,6.44,0,0,1,128.49,52a13.38,13.38,0,0,0,5.5,4.25c1.71.72,3.47,1.31,5.22,1.9a20.41,20.41,0,0,1,3.37,1.43,8.74,8.74,0,0,1,4.29,5.82,2,2,0,0,1-.31,1.3,3.41,3.41,0,0,1-.68,1c-.79.78-1.56,1.58-2.39,2.32a16.21,16.21,0,0,0-3.29,3.67,7.78,7.78,0,0,0-1,3.61,20.07,20.07,0,0,0,.74,5.61,17.06,17.06,0,0,1,.62,4.82,4,4,0,0,1-.22,1.19,2.3,2.3,0,0,1-3.75.85,6.26,6.26,0,0,1-1.86-2.8,15.84,15.84,0,0,1-1-4.26c-.07-.84-.06-1.67-.12-2.63,0-1.8.22-3.71.16-5.63a21.34,21.34,0,0,0-1.31-6.75,19,19,0,0,0-1.8-3.78,15.81,15.81,0,0,0-2.7-3.19,17.17,17.17,0,0,0-4.16-2.75,11.62,11.62,0,0,0-3.84-1c-1-.11-2.07-.1-3.11-.11a3.84,3.84,0,0,0-1,.09,4.72,4.72,0,0,1-2-.16C113.34,56.64,113.26,56.36,113.45,55.9Z"/><path class="cls-2" d="M85.3,49.47a6,6,0,0,0-3.09-1.59,2.59,2.59,0,0,0-2.15.33,2.91,2.91,0,0,0-.82,1.3,4.12,4.12,0,0,1-.56,1,7.07,7.07,0,0,0-1.41,2.9,3.49,3.49,0,0,0,.36,2.75A5.92,5.92,0,0,0,79,57.52c1.15.9,2.33,1.77,3.5,2.65A25.71,25.71,0,0,1,85,62.46a14.9,14.9,0,0,1,2.52,3.18,9.61,9.61,0,0,1,1.43,5c0,1-.15,2.11-.22,3.16a17.44,17.44,0,0,0,.31,5,18.26,18.26,0,0,0,3,6.9,13.71,13.71,0,0,0,2.52,2.64,14.14,14.14,0,0,0,5.22,2.52,16.23,16.23,0,0,0,4.34.59c.74,0,1.48-.06,2.23-.11,1-.06,1.88-.21,2.81-.34a26.48,26.48,0,0,1,4.11-.37c.56,0,1.06,0,1.56,0,.71,0,1-.44.8-1.13a4.86,4.86,0,0,0-.72-1.3,6,6,0,0,0-4.4-2.86,25.27,25.27,0,0,1-6.73-1.74,17.54,17.54,0,0,1-6.73-4.88A20.12,20.12,0,0,1,94,73.2c-.59-1.47-1-3-1.47-4.51-.56-1.84-1-3.7-1.46-5.56a63.34,63.34,0,0,0-2.19-7.82A14.93,14.93,0,0,0,85.3,49.47Z"/><path class="cls-1" d="M113.79,56.74a4.72,4.72,0,0,0,2,.16,3.84,3.84,0,0,1,1-.09c1,0,2.07,0,3.11.11a11.62,11.62,0,0,1,3.84,1,17.17,17.17,0,0,1,4.16,2.75,15.81,15.81,0,0,1,2.7,3.19,19,19,0,0,1,1.8,3.78,21.34,21.34,0,0,1,1.31,6.75c.06,1.92-.14,3.83-.16,5.63.06,1,.05,1.79.12,2.63a15.84,15.84,0,0,0,1,4.26,6.26,6.26,0,0,0,1.86,2.8,2.3,2.3,0,0,0,3.75-.85,4,4,0,0,0,.22-1.19,17.06,17.06,0,0,0-.62-4.82,20.07,20.07,0,0,1-.74-5.61,7.78,7.78,0,0,1,1-3.61A16.21,16.21,0,0,1,143.49,70c.83-.74,1.6-1.54,2.39-2.32a3.41,3.41,0,0,0,.68-1,2,2,0,0,0,.31-1.3,8.74,8.74,0,0,0-4.29-5.82,20.41,20.41,0,0,0-3.37-1.43c-1.75-.59-3.51-1.18-5.22-1.9a13.38,13.38,0,0,1-5.5-4.25,6.44,6.44,0,0,0-2.21-1.87,6.71,6.71,0,0,0-3.2-.76c-.88,0-1.76,0-2.65,0a1.78,1.78,0,0,0-1.07.33A33.47,33.47,0,0,0,116.62,52a15.79,15.79,0,0,0-1.88,2,7.42,7.42,0,0,0-1.29,1.9C113.26,56.36,113.34,56.64,113.79,56.74Z"/><path class="cls-2" d="M28.25,99.35h.84a22.48,22.48,0,0,1,2.65-2.51l.12-.08H28.25Z"/><path class="cls-2" d="M42.81,139.24H43a10.2,10.2,0,0,0,3-2.42s.08-.11.13-.17H42.81Z"/><path class="cls-1" d="M51.4,155.87v-.18l-.26.18Z"/><path class="cls-2" d="M51.87,114c-.29.22-.58.42-.85.65-.48.42-1,.85-1.41,1.3h2.26Z"/><path class="cls-2" d="M32.77,138.56c1.36.32,2.67.79,4,1.11a5.4,5.4,0,0,0-.88-1.44,4.67,4.67,0,0,0-1.51-1.16,4.25,4.25,0,0,0-1.88-.42,4.3,4.3,0,0,0-1.87.42,4.64,4.64,0,0,0-1.53,1.16c0,.05-.06.1-.1.15a5.94,5.94,0,0,1,1.48-.17A10.13,10.13,0,0,1,32.77,138.56Z"/><path class="cls-2" d="M35,154.06v1.81H37.3v-3.46c-.11.05-.23.09-.34.15A7.82,7.82,0,0,0,35,154.06Z"/><path class="cls-1" d="M49.59,62.32h2.28a6.29,6.29,0,0,0-.22-1.59c-.72.27-1.44.52-2.18.76A2.73,2.73,0,0,1,49.59,62.32Z"/><path class="cls-1" d="M13.33,76.09h2.13v-2c-.25.22-.52.44-.77.67C14.23,75.2,13.79,75.65,13.33,76.09Z"/><path class="cls-2" d="M60.51,76.09h2.28V73.88l-2.28,1.51Z"/><path class="cls-2" d="M56.93,58.28l.86-.47c.52-.3,1-.61,1.53-.94H56.93Z"/><path class="cls-2" d="M22.74,99.35V96.76H19.2c-.27.88-.56,1.74-.87,2.59Z"/><path class="cls-1" d="M108.41,155.87h1.7v-3.45c-.42.83-.85,1.66-1.26,2.49C108.7,155.22,108.55,155.54,108.41,155.87Z"/><path class="cls-2" d="M100.79,155.87h2v-7.64l-.57,1.93C101.71,152.05,101.2,153.94,100.79,155.87Z"/><path class="cls-2" d="M137.92,146.28a7.62,7.62,0,0,1,.81,1.28h.5V145h-2.49A16.56,16.56,0,0,1,137.92,146.28Z"/><path class="cls-2" d="M137.8,155.87h1.43v-2.6H139a16.06,16.06,0,0,1-.61,1.49C138.18,155.13,138,155.5,137.8,155.87Z"/><path class="cls-1" d="M66.09,155.87h.34v-.25c-.09.06-.16.13-.24.19Z"/></g></g></svg>