<svg xmlns="http://www.w3.org/2000/svg" viewBox="0 0 361.54 94.8"><defs><style>.cls-1{fill:#1d1d1b;}</style></defs><g id="Capa_2" data-name="Capa 2"><g id="Capa_1-2" data-name="Capa 1"><polygon class="cls-1" points="0 94.8 0 0 56.7 0 56.7 18.59 18.59 18.59 18.59 38.1 56.7 38.1 56.7 56.7 18.59 56.7 18.59 94.8 0 94.8"/><path class="cls-1" d="M130.78,17.07A27,27,0,0,0,115.84,2.13a30.93,30.93,0,0,0-22.56,0A27,27,0,0,0,78.34,17.07a29.42,29.42,0,0,0-2.13,11.28V94.8H94.8V56.7h19.52V94.8h18.59V28.35A29.42,29.42,0,0,0,130.78,17.07Zm-16.46,21H94.8V28.35a8.7,8.7,0,0,1,3-6.71,8.91,8.91,0,0,1,13.42,0,8.7,8.7,0,0,1,3,6.71Z"/><polygon class="cls-1" points="156.07 94.8 156.07 76.21 171.47 76.21 171.47 18.59 156.07 18.59 156.07 0 205.61 0 205.61 18.59 190.06 18.59 190.06 76.21 205.61 76.21 205.61 94.8 156.07 94.8"/><polygon class="cls-1" points="228.48 0 285.63 0 285.63 18.59 266.27 18.59 266.27 94.8 247.68 94.8 247.68 18.59 228.48 18.59 228.48 0"/><polygon class="cls-1" points="323.43 0 323.43 38.1 342.94 38.1 342.94 0 361.54 0 361.54 94.8 342.94 94.8 342.94 56.7 323.43 56.7 323.43 94.8 304.84 94.8 304.84 0 323.43 0"/></g></g></svg>